<?xml version="1.0" encoding="utf-8"?>
<!-- Generator: Adobe Illustrator 28.0.0, SVG Export Plug-In . SVG Version: 6.00 Build 0)  -->
<svg version="1.0" id="Layer_1" xmlns="http://www.w3.org/2000/svg" xmlns:xlink="http://www.w3.org/1999/xlink" x="0px" y="0px"
	 viewBox="0 0 360 990" style="enable-background:new 0 0 360 990;" xml:space="preserve">
<g id="g5602" transform="matrix(0.40241451,0,0,-0.40241451,-640.29789,234.03241)">
	<path id="path5604" d="M1838.2-1794.5h0.9c28.6,57.2,61.5,112.6,92.2,168.5c30.1,57.9,66.5,112,98.4,168.9
		c20.2,30.2,36.5,62.9,57.5,92.6v0.9h-14.3c-156-5.4-312.3-6-468.3,0h-14.3v-0.9c21-29.7,37.3-62.4,57.5-92.6
		c31.8-56.9,68.3-111,98.4-168.9C1776.7-1681.9,1809.6-1737.3,1838.2-1794.5 M1838.2-1777.5c-32.8,63.5-67.8,125.9-103.1,187.9
		c9.3-1.7,7.4-15.9,16.6-18.5c6.7-0.9,12.3,3.5,17.3,7.4c21-20.4,35.1-46.7,46-73.6c-1.3-2.6-4.7-1.3-6.9-2.2
		c-14.3-6-6.8-31,7.9-30.1c13.2,0.2,21.8,13.8,22.1,26c3.3-10.3,7.3-23.7,20.2-26c15.7-3.6,25.6,21.6,12.1,29.5
		c-2.3,2.3-6.8-0.5-8,2.9c10.4,26.8,25,53.2,45.8,73.6c4.9-4.4,11-8.8,18-7.2c8.6,3.1,6.6,16.8,15.9,18.2
		C1906.3-1651.3,1872.3-1715.4,1838.2-1777.5 M1815-1701.1c-13.2-0.4-10.3,25.7,2.2,16.7c6.3-4.2-6.2-6.8-1.1-8.9
		c9.1,2,5.6,13.6,4.2,19.9c-12.1,31.4-27,65.2-56.7,83.5c-3.5,4.7-15.9-2.9-6.9-3.2c7.7,2.1,6-9.2,0.2-9.4
		c-12.4-2.7-16.3,19.2-3.5,20.9c11.8,2.4,23-5.7,30.7-14.1c19.2-19.7,32.6-44.4,41.7-70.3C1832.1-1677.7,1833.2-1700.7,1815-1701.1
		 M1861.2-1701.1c-12.9,0-15.8,15.3-13.2,25.1c8.3,26.8,21,52.7,39.4,74.2c8.9,10.4,20.9,22.4,35.7,20.6
		c11.7-0.9,11.2-19.6,0.7-21.1c-4.3-2-10.8,3.8-8.2,8c2,3.3,8.5-1.4,8.3,3.6c-3.9,3.3-9.7,1.5-13.6-1.1
		c-19.6-12.7-31.6-33.8-42-54.1c-5-14.2-15.7-27.9-12.5-43.5c0.3-4.2,10.4-5.2,5.2-1.1c-6.1,1.3-0.1,10.7,4.3,7.6
		C1875.9-1684.5,1871.2-1702.7,1861.2-1701.1 M1833.6-1669.1c-15.9,33.1-32.4,69.8-65,89.7c-9.7,4.5-20.8-0.3-29.5-5.1
		c-4.8,0.7-2.4,5.2,1,6.1c9.6,4.1,19.8,14.5,30.9,8.8c31.6-20.9,52-55.1,63.2-90.7C1834.8-1662.7,1836-1668.9,1833.6-1669.1
		 M1843-1669.4c-2.2,7.5,2.5,14.5,4.4,21.6c11.9,30.7,31,59.9,58.9,78.3c11.7,5.3,22.9-4.9,32.9-10.1c4.8-1.1-0.5-7.2-2.9-3.8
		c-7.7,5.1-18.1,7.7-26.9,4.4C1875.8-1598.6,1859.9-1636.7,1843-1669.4 M1836.3-1651.6c-12.9,34.6-35.1,68.9-66.3,88.9
		c22.7,13.4,46,25.3,68.3,39.7c22.6-14.1,46.1-26.3,68.8-39.7c-31.2-20.2-53.2-54.3-66.2-88.9
		C1837.5-1648,1839.7-1648,1836.3-1651.6 M1737.1-1576.3c-7.1,10.9,20.9,7.7,17.3,21.4c-7.8,1.6-16.1-2-20.7-8.3
		c-1.9-3.3-6.7,0.4-5.4,3.4c10.9,4.3,19.9,16.9,32.4,8.8C1764.6-1566.8,1746.5-1569.2,1737.1-1576.3 M1939.8-1576
		c-7.8,6.3-22.9,7.6-23.3,19.9c-2.8,7.5,7,6.5,11.5,8.3c7.1-2.5,12.2-9,19.5-11.2c4.1-1.3-1.1-7.8-3.6-4.7
		c-5,6.4-13.7,11.4-21.8,8.3C1921-1568.8,1947.3-1565.7,1939.8-1576 M1726.2-1575.8C1718-1565.6,1734.7-1570.5,1726.2-1575.8
		 M1949.5-1575.2C1945.1-1565.8,1959.5-1571.9,1949.5-1575.2 M1722.5-1558.4c-1.6,0.1-1.1,2.8-1,4.1c9.8,4.5,20.1,13.7,19.2,25.4
		c-2.1,37.6-25,69.5-45.5,99.5c8.8-1.3,11.2-10.6,17.5-15.5c21.2-26.8,38.5-59.6,37.1-94.6
		C1743.7-1548.7,1732.3-1554.2,1722.5-1558.4 M1767.2-1558.4c2.2,8.3-2.6,11.5-8.8,15.1c22.4,13.3,46.9,28.1,70,41.9
		c0.3,27.1,1.9,54.6,0.9,81.7c3.8,0.5,6.1-3.1,9.1-4.7c3.5,0.7,5.7,5.4,9.7,4.6c-0.9-27.2,0.8-54.6,0.6-81.8
		c22.5-12.4,44-26.5,66.2-39.4c7-0.5,2.3-5.8-2.1-6.2c-5.8-1.2,1.1-10.2-3.5-11.4c-20.7,13.6-44.1,23.2-64.8,37.1
		c-7,5.1-14.4-1.8-20.4-5.1C1806-1538.5,1785.3-1547,1767.2-1558.4 M1952.5-1558.1c-10.2,6.5-28.5,12-25.3,27.4
		c2.3,32,17.9,61.1,37.3,85.8c5.9,5.2,9,14,17.5,15.5c-20.4-29.8-42.9-61.4-45.5-98.7c-1.1-11.2,7.9-20.7,17.4-25.1
		C1957.5-1553.7,1956-1560.4,1952.5-1558.1 M1714.6-1555.3c-34.5,62.6-73,123-110.3,183.9c71.5-3.1,142.9-5.2,214.5-4.1
		c-1-6.9-13.2-1.7-18-3.5c-9.9-0.2-11.1-13.7-7.8-20.6c-27.8-9.9-58.3-6.6-87.1-3.5c-2.8,3.3,4.4,6.9,0.8,11
		c-2.2,15.6-30.4,15.4-31.6-1c-2.3-11.6,5.4-20.2,13-27.4c-10.6,4.9-24.6,5.3-32.5-4.6c-9.5-11.5,6-31.7,19.4-24.5
		c3.3,0.3,4,6.3,7.7,4.8c17.2-22.8,33.8-47.6,40.3-75.7c-8.2-1.1-19.4-9.6-13.8-18.6C1709.5-1544.9,1720.5-1550.3,1714.6-1555.3
		 M1961.1-1555.2c-0.5,8.6,9.6,14.2,8.5,23.1c-2,7.2-9,9.6-15.3,11.6c6.7,28.1,23,53,40.3,75.8c3.7,1.5,4.3-4.5,7.7-4.8
		c13.4-7.3,28.9,13,19.4,24.5c-7.8,10-21.9,9.3-32.5,4.6c10.5,8.2,19.4,25.4,8.2,36.6c-12.3,10.4-34.1-2.9-25.3-18.4
		c-28-6-59.7-5.5-87.8,2.7c4.1,7.6,1.4,21.7-9.3,21c-4.5,0.2-15.5-3-16.5,3.2c71.6-1.2,142.9,1.2,214.4,4.1
		c-36-60-74.5-119.1-108.1-180.7C1963.6-1553.3,1963.2-1555.9,1961.1-1555.2 M1721.3-1546.8c-13.6,1.9-8.3,27.2,3.7,16.1
		c-7.4-7.5,2.6-11.8,3.9-0.2c0.4,33.8-21.5,62.5-40.8,88.4c-6.2,5.7-13.7,16.9-22.9,8.9c2-3.3,9.4,2.7,9.8-5.1
		c-3.2-13.7-21.8-2.2-16.3,8.3c5.1,11,20.4,8.4,27.4,0.9c25.1-27.3,49.1-60.9,50.6-99.1C1736.9-1537,1731.4-1549.2,1721.3-1546.8
		 M1951.3-1547c-11.5,4-11.7,18.8-10.6,29c7,32.8,25.7,62.1,48.3,86.5c5.9,6.7,16.8,11.9,24.9,6c9.7-4.2,4.4-20.2-5.3-19.7
		c-4,1.1-8.8,5.9-4.7,9.7c1.3,4.6,7.3-2.8,8.1,1.8c-2.9,3.3-8.4,3.6-12.1,1.3c-12.6-10-20.6-24.2-30.4-36.7
		c-10.3-20.4-26.1-42.7-19.8-66.5c-0.1-5.8,10-2.3,4.2,1c-5.6,5.2,5.4,9.9,8.4,4.4C1968.3-1537.4,1959.9-1548.8,1951.3-1547
		 M1755.3-1538.1c0.3,38.4-21.4,72.9-43.2,102.6c6.5-2.4,4.2-1.6,2.2,3.2c36.9-7.3,77.2-3.9,110.8,12.7c-1.1-26.3-1.2-52.7,0.2-79
		C1801.3-1510.6,1778.8-1527,1755.3-1538.1 M1919.6-1538.2c-22,13.9-44.4,27-67.5,39.2c2.2,26.3-0.4,54.2,0.8,79.4
		c33.2-17.7,73.4-19.8,110-12.8c1.3-2.1-5.5-5.7-1.7-4.5c8.3,3.5-1.2-6.6-3.6-9.2c-18.8-26.8-36.2-58.1-35.7-91.8
		C1921.4-1538,1920.2-1538.1,1919.6-1538.2 M1743.5-1431.1c-14.3,1.4-31.2,1.2-43.3,9c36-1.3,80-7.3,113.4,14
		c10,6.4,2.4,23.5,11.6,27.9c0.3-12.1,5.3-32.9-10.2-38.3C1792.8-1428.9,1767.8-1432.7,1743.5-1431.1 M1913.6-1431
		c-20.2,1.7-41.2,5.4-58.4,16.7c-5.5,10-4.4,23.2-3.3,34.1c9.1-4.5,1.9-21.8,12-28.4c32.2-19.3,72.1-16.5,108.1-12.8
		c9.1,2.3,3.2-3.6-0.3-4.2C1952.8-1430.1,1933.2-1432.5,1913.6-1431 M1735.6-1420.1c-14.4,2-29.1,2.7-43,7
		c-7.3,3.6-15.1,11.6-11.8,20.5c1.8,10.7,22.9,8.5,19-3.4c-0.2-6.1-12.1-5.2-9,2.1c-6.3,0.5-0.7-10.6,3.9-11.2
		c29.2-9.1,60.7-8.7,90.6-3.7c8.7,3.7,20.4,5,23.8,15.4c0.4,4.1-4.9,3-4.5-0.6c-2.5-6.9-11,2-7.6,6.4c3.8,8.8,19.2,5.8,20.2-3.3
		c1.1-7.6-4.8-13.4-10.3-17.5C1785.4-1420.3,1759.5-1420.7,1735.6-1420.1 M1923.7-1419.9c-19.8,1.3-42.5,1.9-58.1,15.8
		c-7.7,5.7-7.7,21,3.9,21.6c8.1,2.9,16-8.8,8-13.5c-5.6-3.9-4.5,9.3-9.2,4.2c0.8-11.1,14.5-12.9,22.8-16.8
		c26.2-6.1,53.5-3.8,79.8,0.2c7.7,1.4,19.9,4.1,18.1,14.8c-5.9,0.9-0.9-11.4-10.1-5.4c-8.5,10.8,10.3,18.3,16.2,9.4
		c6.7-11.4-5.6-23.9-16.7-25.3C1960.4-1418.2,1942-1421.8,1923.7-1419.9 M1838.1-1417.3c-13.6,6.2-8.1,21.7-8.5,33.4
		c13.1,0.8-3.9-22.4,9.4-26.8c6.4,6.5,5.6,15.5,3.4,23.5c-2,3.6,7,5.5,5.5,0.9C1847.6-1397.4,1851.6-1413.6,1838.1-1417.3
		 M1837.4-1379.4C1829.5-1371.7,1849.8-1378.1,1837.4-1379.4z"/>
	<path id="path5606" d="M1838.2-1762.2c7.8,12.5,16.1,26.7,22.7,40.5c2.1,3.8-0.4,12.5-5.9,9.3c-8.9-4.8-10.2-17.1-16.9-24
		c-6,8.2-7.8,21.2-18.3,24.8c-4.1-0.4-5-6.3-3.9-9.5C1822.2-1735.4,1831.3-1748.2,1838.2-1762.2 M1838.2-1754.2
		c-5.3,10.6-10.7,21.2-16.1,31.6c8.8-3.8,9.6-16.8,16.8-21.9c6.3,6.2,7.6,18.1,16.1,21.9C1849.3-1732.8,1844.6-1744.9,1838.2-1754.2
		z"/>
	<path id="path5608" d="M1836.2-1615.1c8.2-2.6,8.6,8.5,11.2,13.8c7.4,13.5,18.2,24.8,29.5,35.1c3.7,3.8-2.2,7.6-5.4,9
		c-10.6,7.3-22.1,12.9-33.2,19.3c-10.6-6.8-22.2-12-32.5-19.3c-3.6-1.3-9.5-5.9-4.9-9.5C1816.4-1579.8,1828.7-1596.7,1836.2-1615.1
		 M1837.1-1605c-4.9,4.1-4.9,11.3,1.1,14.4C1846.2-1592.1,1844.8-1605.9,1837.1-1605 M1829.3-1592.2c-6,10.9-16.7,18.5-23.1,28.6
		c7,5.2,15.1,8.7,22.1,13.9c14.6,14.8,28.8-9.5,42.7-13.9c-6.9-9.8-16.9-17.9-23.1-28.6c-4.2,2.4-5,8.9-9.7,10.5
		C1834.3-1584.3,1833.2-1589.6,1829.3-1592.2z"/>
	<path id="path5610" d="M1770.5-1513.2c14.8,3.2,27.6,14.4,41,21.5c-0.8,15.5,4,33.8-2.6,48.2c-20-6.8-41.6-10.8-62.4-7
		c-5.7-4.6,0.8-10.8,4.2-14.4C1762-1478.6,1762.8-1498.8,1770.5-1513.2 M1773.5-1506.3c-5.6,10.6-7.3,23.6-13.5,34.4
		c4.3,0.5,8.7,0.5,13,1.1c5,4.9-10.6,16.1,1.4,15c10.8-0.4,20.8,5.6,31.4,5c1.1-8.3-0.1-16.8,1.1-25
		C1812.5-1496.6,1784.5-1497,1773.5-1506.3 M1759.4-1467.2c-4.4,1-9.5,10.8-2.3,10.8C1766.5-1452.5,1769.9-1469.5,1759.4-1467.2z"/>
	<path id="path5612" d="M1904.5-1513.2c7.4-0.6,5.1,9.9,6.9,14.4c5.7,13.5,8.6,28.9,19.7,39.4c4.2,3.2,1,11.7-4.9,9
		c-19.4-4.5-39.4,0.8-57.9,7c-6.7-14.2-1.3-32-3-47.6C1877.6-1499.2,1890.9-1507.3,1904.5-1513.2 M1902.9-1506.1
		c-10.3,6.6-22.5,10-32,17.6c-2,12.2,1.4,25.2,0.3,37.6c12.2-0.4,24.1-6,36.8-5.4c-0.9-4.8-5-8.6-4.7-13.6
		c3.5-2.9,11.4,0.1,13.7-2.7C1910.6-1482.8,1909.6-1497.8,1902.9-1506.1 M1916.3-1467.1c-8.4-0.9-5.2,12.8,1.8,10.7
		C1928.3-1454.1,1922.7-1468.2,1916.3-1467.1z"/>
	<path id="path5614" d="M1646.7-1422.1c15.7,2.2-5.3,21.8-5.6,29.7c9.7,2,21.1-2.6,29.6,3.6c2.2,4.2-3,8.4-6.8,8.5
		c-15.1,2-30.4,0.2-45.6,1C1627.8-1393,1632-1413,1646.7-1422.1 M1643.5-1413.1c-5.5,10-14.1,19-18.2,29.8
		c11.7-0.8,23.7-0.6,35.2-1.8c-8-5.5-19.2,0-27.4-3.4C1634.9-1396.6,1645.2-1405.9,1643.5-1413.1z"/>
	<path id="path5616" d="M2026.6-1422.3c6.2-1.1,10.6,4.3,13.3,9c6.1,11.6,14.2,22.1,18.9,34.3c-13.8-1.1-27.6-0.1-41.4-0.7
		c-4.6,0.2-13.5-3-10.9-9.2c8.7-6.3,20.3-1.4,30.2-3.5C2034.6-1402.3,2020.6-1412.1,2026.6-1422.3 M2033-1413.5
		c0.6,9.4,8.9,16.3,10.9,24.8c-7.5,3.9-19.4-1.9-27.2,3.5c11.4,1.4,23.6,0.9,35.3,2C2047.3-1393.9,2039.5-1404,2033-1413.5z"/>
</g>
<g id="g5618" transform="matrix(0.42643926,0,0,-0.42643926,-480.29788,265.43186)">
	<path id="path5620" d="M1699.2-1693.4h71.7c66.6,3.8,132.9-4.9,198.6,2.8v2.7c-64,115.6-131.3,229.8-197.5,344.1
		c-10.3,21.1-24.7,40.1-36.6,60.5h-0.9c-34.4-53.2-64.2-109.1-96.2-163.9c-27.5-41.4-48.4-87-74.9-129.1
		c-20.8-37.3-43.4-73.5-62.9-111.6v-2.7 M1712.1-1685.9c-66.6,3.2-133.1,1.2-199.5,2.3c33.5,62,71.5,122.7,103.9,186.2
		c41,64.3,76.6,130.9,116.8,195.2c0.2,5.2,3.8,3.5,3.6-0.8c32.6-50.9,61.6-104.2,92.6-156.4c14.3-19.5,26.9-40.5,36.1-62.9
		c31.2-53.8,61.6-107.6,91.7-161.3C1875.9-1683.6,1794-1685,1712.1-1685.9z"/>
	<path id="path5622" d="M1717.2-1683c8.5-2.8,16.7,4.3,24.9,0c16-6.9,34.8,17.2,18.3,27.5c27.2,7.3,58,6.4,85.9,0.9
		c-13.8-20.9,21.9-32.8,29.9-13.3c9,30.2-30.6,37.1-43.3,56.5c20.1-2.5,36.3-18.8,56.8-18.2c13.3,2.8,22,18.6,12.5,30
		c-4.2,11.2-20.8,7.8-24.8-1.8c-19.2,19.4-32,45.3-42.6,70.5c-0.8,1.4-0.5,3.3,0.5,4.5c10.4-6.6,21.6,4.7,20.6,15.8
		c-0.5,11.8-14.3,16.7-14.9,28.8c-4.2,15.4-30.3,17.3-31.9-0.2c-9.4,4.1-13.2,17.4-20.5,24.9c-8.1,16.2-19.4,31.3-23,49.3
		c11.7-2.5,22.3,12.3,13.1,21.9c-5,12.8-21.5,10.9-30.5,3.5c-11.8-17.7-4.8-42.1-13.9-59.9c-7.1,19.2-2.5,40.4-12,58.9
		c-8.7,8.3-26.2,10.8-31.5-2.5c-9.1-9.6,1.5-24.4,13.2-21.9c-7.2-25.7-21.9-49.1-38.1-70.1c-1.3-1.5-4.8-6.9-5.7-2.6
		c-1.7,11.5-17,14.3-25,7.3c-9-6.3-6.8-19.8-16.5-25.5c-10.4-10.8-2.7-32.8,13.1-29.5c1.3,2.6,4.1,1.7,3.6-1.2
		c-9.6-25.2-23.2-48.9-40.2-69.8c-3.5-5.3-5.3,2.6-8.4,4.4c-17.1,11.5-32.6-19.7-16.2-29.4c21.6-16.7,45,13.4,66.6,12.2
		c-10.9-13.9-29.1-19.1-39.6-33.3c-11.7-9.5-4.1-34,12.2-32c13.6-3.8,20.3,13,13.7,23c28.1,4.5,58.9,7.3,86.1-1
		C1696.6-1663.2,1704.9-1680.9,1717.2-1683 M1718.1-1678c-7.9,0.8-13.3,12.2-6.3,17.5c3.7,5,15-4.5,6.4-5.6
		c-3.5-5.7,10.2-6.5,9.4-0.3c-1.9,13.2-17.9,15.8-28.4,18.5c-28.7,5.2-60,4.4-87.4-5.7c-11.4-5.2,3.5-17.5,1-5.2
		c8,5.3,13-11.5,2.7-12.7c-15.3-6.8-22.3,14.9-11.1,23.3c29,15.2,63,12.8,94.5,8.9c13.7-2.8,30.7-6.8,35.8-21.8
		C1738-1671.1,1727.7-1680.5,1718.1-1678 M1746.1-1678c-11,1-14.3,15.8-7.3,23.3c10.5,12.4,27.6,15.3,43,17
		c27,1.7,55.7,3.5,80.7-8.8c7.2-2.4,10.5-12,8.2-18.7c-2.6-10.8-22.5-9.2-22.1,2.5c1.1,5.9,12.4,7.1,8.2-0.7c8.1-4.7,7,10-0.2,11.1
		c-30.9,9.3-64.6,10.3-95.9,1.8c-7.9-2.5-17.1-6.6-18.1-15.9c-0.9-6.2,12.9-5.4,9.4,0.3c-9,1.3,3.6,11,6.9,5
		C1766.9-1668.6,1755.4-1681.5,1746.1-1678 M1734.7-1651.2c-9.8,11.7-25.9,14.5-40.2,16.8c-25.3,2.8-50.9,3.4-75.9-2
		c6.5,8.9,22,9.7,32.9,9c28-1.1,60.5,1.6,83.8-16.7c16.8,14.6,40.3,15,61.3,16.7c17.8-1.7,40.6,4.7,54.7-8.1
		C1815.3-1633.1,1766.2-1624.7,1734.7-1651.2 M1734.7-1637.1c-29.7,17.2-66,15.2-98.9,13.6c1.4,7.4,11.9,11.4,13.3,19.3
		c-7.8,0.6-14.8-2.8-22.4-3.1c16.5,28.6,36.9,58.8,37,93.1c29.2,17.6,46.7,50,61.9,79.7c4.4-5.7,4.1-16.5,9.7-21.7
		c4.5,6.4,4.9,15.7,9,21.7c15.6-29.5,32.2-62.2,61.9-79.4c0.2-34,19.9-64.5,37-92.6c-5.8-1.8-15.1,4.2-22.4,2.4
		c1.6-7.9,11.5-11.9,13.5-19.3C1801.1-1621.8,1764.7-1620.4,1734.7-1637.1 M1580.5-1621.9c-8.7,0.2-15.1,10.7-9.2,18.2
		c3,8.7,19.5,6.8,15-4.1c-2.6-4.8-6.3,4.3-8.6,0c-1.6-8.2,11.4-6,14.8-1.6c19.8,20.5,35.8,44.8,44.8,72c2.8,10.2,6.9,23.9-2.3,31.9
		c-8.1,4.9-10-13.7-2.3-6.1c7.6-2.9-0.8-15.5-7.7-10.4c-14.2,7.1-0.2,29.7,12.5,22.6c10.6-3.4,11.4-15.6,11.5-24.9
		c-5.2-28.6-20.6-54.2-37.1-77.6C1602.5-1609.6,1594.3-1623.4,1580.5-1621.9 M1882.9-1621.9c-32.8,18.7-49.9,56.8-60.7,91.6
		c-2.7,11.8-1.3,29,13.1,32c13.5,3.1,22.9-20.5,7.6-24.4c-8.9-4.2-11.3,15.9-3,9.3c6.2-0.5,0.4,12.2-4.7,7.9
		c-9.7-8-5.2-22.2-2.1-32.5c7.7-24.7,22.2-46.5,39.2-65.7c4.2-6.1,12.2-12.5,19.8-8c2.7,5.1-2.9,6.4-5.6,2.5c-8.2,2.7,0.5,17,8.1,10
		C1907.9-1607.1,1897.2-1626.7,1882.9-1621.9 M1606.5-1615.4c6.4,10,16,17.8,21,29c12.9,25.2,30.9,51.5,24.2,79.9
		c13.1,2.1,22.8,12.2,31,21.9c16.7,21.5,31.5,45.1,40,71c4.1-4.9-0.1-16.8-3.2-22.8c-16.5-27.4-30.6-60.6-61.8-74.1
		c4.1-24.2-9.1-46.1-19.2-66.9C1628.8-1590.6,1624.3-1610.5,1606.5-1615.4 M1861.9-1615c-7.5,2.7-13,8.3-17.1,14.9
		c-14.9,27.9-36.9,56.3-32.5,89.7c-21.5,8.2-34.1,28.5-46.2,46.7c-8.2,15.8-22.2,31.1-20.2,50.1c3.7,0.5,3.2-5.8,4.7-7.6
		c3.1-13.9,11.6-25.4,18.4-37.6c13.1-18.2,25.3-42.2,49.2-47.6c-4.9-17.1,1.4-32.8,8.2-48.9c9.9-19.9,19.4-40.8,35.4-56.7
		C1863.1-1612.9,1864.6-1616.3,1861.9-1615 M1646.4-1501.9c-16.4-0.3-17.9,25.1-2.3,26.9c11.6,4.9,15.5-15.9,2.9-13.9
		c1.5,4.2-2.5,9.9-5.4,3.2c-5.2-10.8,12.1-9.4,16.7-4.5c25.6,19.7,40.2,49.2,50.5,78.6c3.3,6.4,5,19.1-4.1,21
		c-2.7-0.9-4.3-4.7-0.4-5.1c7.3-2.8-5.1-10.8-7.5-5.4c-9.2,8.9,5,25.8,15.5,17c13.9-9.8,3.8-27.6,1.9-40.9
		c-8.8-19.6-20.1-38.5-33.3-55.6C1671.7-1490.7,1661.3-1502.4,1646.4-1501.9 M1820.5-1501.8c-16.9,2-27,16.5-37.1,28.4
		c-13.8,20.9-28.7,42.7-31.9,68.2c-4,9.3,1.9,23.4,13,22.9c10,1.2,16.6-14.6,7.5-20.4c-3.6-1.5-12.7,4.4-6.1,7
		c5.8,1-0.7,7.8-3.7,3.8c-6.2-6.1-2.7-16.5,0.6-23.2c6.5-18.8,14.9-36.3,26.7-52.3c9.7-10.6,19.8-27.9,36.2-26
		c8.4-0.4,1.2,16.1-2.9,8.8c3.4-8.8-11.1-2.2-7.8,3.7c2.3,9.4,15.3,7.6,19.6,0.6C1842.1-1490.1,1831.9-1503.6,1820.5-1501.8
		L1820.5-1501.8z"/>
	<path id="path5624" d="M1523.8-1677.5c21.2,0.5,42.7-1.2,63.7,1.9c5.5,1.8,1.8,9.3-2.6,9.9c-13.2,0.3-26,1.8-39.2,1
		c6,11.2,11.7,22.4,17.8,33.5c4.2,4.8-3.5,13.6-7.8,7.8C1544.3-1640.7,1532-1658.9,1523.8-1677.5 M1531.6-1672.7
		c5.3,11.3,12.9,21.5,18.5,32.7c0.2,1.6,3.3,2.3,2,0c-4.6-8.7-8.6-18-11.3-27.4c8.1-1.3,16.3-2.9,24.6-3c4,3.8,11.2-6.2,1.2-2.2
		C1554.9-1672.3,1543.3-1672.2,1531.6-1672.7z"/>
	<path id="path5626" d="M1898.9-1677c15.8-1,31.7-0.2,47.5-0.5c-8.8,18.4-20.2,36.3-31.4,53.5c-3.7,5.8-11.5-0.2-9.1-5.9
		c6.1-10.8,10.9-22.1,17.6-32.6c-6.5-9.5-39.3,7.8-43.9-10.7C1884.2-1678.9,1892.7-1675.3,1898.9-1677 M1898.6-1672.6
		c7,4.7,21.1,2.6,30.6,5.2c-2.8,10.1-7.5,19.5-11.6,28.9c8.2-9.2,14.2-23.1,20.8-34.2C1925.1-1672.1,1911.9-1672.4,1898.6-1672.6
		L1898.6-1672.6z"/>
	<path id="path5628" d="M1729.8-1618.2c4.3,18.4,0.8,41.9,2.2,62.1c-18.5,8.5-34.7,21.2-53.4,28.6c0-21-8.1-43.3-20.9-60.7
		c2.2-5.6,10.2-0.9,13.7-4c-1.1-3.9-7.7-9.2-3.6-13C1688.9-1603.8,1712.4-1605,1729.8-1618.2 M1724.7-1609.2
		c-11.8,5.1-24.5,7-37.1,8.9c1.3,8.7,9,15,9.6,24c-8.3,1.8-16.7,0.7-24.9,2.4c3.1,12.8,9.4,24.7,10.4,38
		c16.3-3.2,29.6-17.3,45.6-22.7C1724.3-1574,1732.3-1597.3,1724.7-1609.2 M1674.9-1600.2c-3.7,4.1,3.9,9.2,4.4,13.6
		c-4.4-0.1-11.3-2.3-13.7,2.1c3.4,10.9,17,3.1,24.7,4.2C1685.8-1586.8,1686.7-1602.5,1674.9-1600.2z"/>
	<path id="path5630" d="M1739.4-1618.5c17.9,13.1,41.6,14.7,62.8,13.3c6.1,4.6-11.1,15.4,1.2,13.9c3.2,0,10.4,0,8.1,5.1
		c-13.3,16.3-20,38.6-20.2,58.8c-18.6-7.5-35.2-20.2-53.3-28.8C1738.6-1576.8,1737.2-1597.9,1739.4-1618.5 M1743.7-1609.4
		c-3.5,16.5,0.7,34.1-2.1,50.8c16.1,5.4,29.3,19.2,45.7,22.9c0.8-13.5,7.5-25.4,10.4-38.2c-8.2-1.6-16.6-0.6-24.9-2.3
		c0.7-9,8.3-15.3,9.6-23.9C1769.4-1602.7,1756.1-1604.4,1743.7-1609.4 M1791-1600c-8,1.8-7.1,14.1-11.3,19.7
		c8-0.3,21.2,6.3,24.7-4.2c-2.4-4.3-9.3-2.2-13.7-2C1791.4-1589.8,1802.5-1602.6,1791-1600L1791-1600z"/>
	<path id="path5632" d="M1734.7-1552c16.8,11.9,37,19.7,52.9,32.6c-18.2,9.3-33.5,27-41.1,45.9c-5,6.3-9.2-4.9-11-8.8
		c-3.3,2.3-4.8,13.6-10.9,10c-8.1-18.1-21.5-36.1-39.6-45.4c-6-1.8,2.2-5.7,4.6-6.7C1704.1-1534.5,1720.3-1541.2,1734.7-1552
		 M1734.7-1547.1c-12.6,10.9-30,15.7-41.9,27c8.8,8.6,18.7,18.6,26.8,28.8c6.2-5.8,9.2-13.8,15.2-19.7c6.7,4.7,9.4,14,15.8,19.7
		c8.1-10.2,18-20.2,26.8-28.8C1765.1-1531.2,1747.7-1537,1734.7-1547.1 M1734.8-1502.9c-3.1,7.3-16.8,13.9-9.1,22.4
		c5.3,3.7,5.9-8.2,9.7-9.8c2.6,3.3,3.4,10.1,7.8,10.7C1753.1-1487.4,1738.7-1496.8,1734.8-1502.9z"/>
	<path id="path5634" d="M1706-1371.1c15.3,1.1,19.2,24,28.8,34.4c9.8-8.9,14.1-35,30.1-34c-2.8,21.8-20.5,40.4-29.6,61
		c-8.3-12.6-15.6-27.9-24.1-41.2C1711.4-1358.1,1700.1-1364.5,1706-1371.1 M1715.7-1354.3c5.5,11.5,12.8,22.6,18.9,33.9
		c7.3-10.4,14-22.5,19.8-34c-6.6,6.7-13.1,16.2-19,24.6C1728.6-1336.9,1722.6-1347.9,1715.7-1354.3L1715.7-1354.3z"/>
</g>
<g id="g6148" transform="matrix(0.40241451,0,0,0.40241451,-640.29789,-167.79455)">
	<path id="path6150" d="M1838.2,1794.5h0.9c28.6,57.2,61.5,112.6,92.2,168.5c30.1,57.9,66.5,112,98.4,168.9
		c20.2,30.2,36.5,62.9,57.5,92.6v0.9h-14.3c-156-5.4-312.3-6-468.3,0h-14.3v-0.9c21-29.7,37.3-62.4,57.5-92.6
		c31.8-56.9,68.3-111,98.4-168.9C1776.7,1907.1,1809.6,1851.7,1838.2,1794.5 M1838.2,1811.5c-32.8,63.5-67.8,125.9-103.1,187.9
		c9.3-1.7,7.4-15.9,16.6-18.5c6.7-0.9,12.3,3.5,17.3,7.4c21-20.4,35.1-46.7,46-73.6c-1.3-2.6-4.7-1.3-6.9-2.2
		c-14.3-6-6.8-31,7.9-30.1c13.2,0.2,21.8,13.8,22.1,26c3.3-10.3,7.3-23.7,20.2-26c15.7-3.6,25.6,21.6,12.1,29.5
		c-2.3,2.3-6.8-0.5-8,2.9c10.4,26.8,25,53.2,45.8,73.6c4.9-4.4,11-8.8,18-7.2c8.6,3.1,6.6,16.8,15.9,18.2
		C1906.3,1937.7,1872.3,1873.6,1838.2,1811.5 M1815,1887.9c-13.2-0.4-10.3,25.7,2.2,16.7c6.3-4.2-6.2-6.8-1.1-8.9
		c9.1,2,5.6,13.6,4.2,19.9c-12.1,31.4-27,65.2-56.7,83.5c-3.5,4.7-15.9-2.9-6.9-3.2c7.7,2.1,6-9.2,0.2-9.4
		c-12.4-2.7-16.3,19.2-3.5,20.9c11.8,2.4,23-5.7,30.7-14.1c19.2-19.7,32.6-44.4,41.7-70.3C1832.1,1911.3,1833.2,1888.3,1815,1887.9
		 M1861.2,1887.9c-12.9,0-15.8,15.3-13.2,25.1c8.3,26.8,21,52.7,39.4,74.2c8.9,10.4,20.9,22.4,35.7,20.6
		c11.7-0.9,11.2-19.6,0.7-21.1c-4.3-2-10.8,3.8-8.2,8c2,3.3,8.5-1.4,8.3,3.6c-3.9,3.3-9.7,1.5-13.6-1.1
		c-19.6-12.7-31.6-33.8-42-54.1c-5-14.2-15.7-27.9-12.5-43.5c0.3-4.2,10.4-5.2,5.2-1.1c-6.1,1.3-0.1,10.7,4.3,7.6
		C1875.9,1904.5,1871.2,1886.3,1861.2,1887.9 M1833.6,1919.9c-15.9,33.1-32.4,69.8-65,89.7c-9.7,4.5-20.8-0.3-29.5-5.1
		c-4.8,0.7-2.4,5.2,1,6.1c9.6,4.1,19.8,14.5,30.9,8.8c31.6-20.9,52-55.1,63.2-90.7C1834.8,1926.3,1836,1920.1,1833.6,1919.9
		 M1843,1919.6c-2.2,7.5,2.5,14.5,4.4,21.6c11.9,30.7,31,59.9,58.9,78.3c11.7,5.3,22.9-4.9,32.9-10.1c4.8-1.1-0.5-7.2-2.9-3.8
		c-7.7,5.1-18.1,7.7-26.9,4.4C1875.8,1990.4,1859.9,1952.3,1843,1919.6 M1836.3,1937.4c-12.9,34.6-35.1,68.9-66.3,88.9
		c22.7,13.4,46,25.3,68.3,39.7c22.6-14.1,46.1-26.3,68.8-39.7c-31.2-20.2-53.2-54.3-66.2-88.9
		C1837.5,1941,1839.7,1941,1836.3,1937.4 M1737.1,2012.7c-7.1,10.9,20.9,7.7,17.3,21.4c-7.8,1.6-16.1-2-20.7-8.3
		c-1.9-3.3-6.7,0.4-5.4,3.4c10.9,4.3,19.9,16.9,32.4,8.8C1764.6,2022.2,1746.5,2019.8,1737.1,2012.7 M1939.8,2013
		c-7.8,6.3-22.9,7.6-23.3,19.9c-2.8,7.5,7,6.5,11.5,8.3c7.1-2.5,12.2-9,19.5-11.2c4.1-1.3-1.1-7.8-3.6-4.7
		c-5,6.4-13.7,11.4-21.8,8.3C1921,2020.2,1947.3,2023.3,1939.8,2013 M1726.2,2013.2C1718,2023.4,1734.7,2018.5,1726.2,2013.2
		 M1949.5,2013.8C1945.1,2023.2,1959.5,2017.1,1949.5,2013.8 M1722.5,2030.6c-1.6,0.1-1.1,2.8-1,4.1c9.8,4.5,20.1,13.7,19.2,25.4
		c-2.1,37.6-25,69.5-45.5,99.5c8.8-1.3,11.2-10.6,17.5-15.5c21.2-26.8,38.5-59.6,37.1-94.6
		C1743.7,2040.2,1732.3,2034.8,1722.5,2030.6 M1767.2,2030.6c2.2,8.3-2.6,11.5-8.8,15.1c22.4,13.3,46.9,28.1,70,41.9
		c0.3,27.1,1.9,54.6,0.9,81.8c3.8,0.5,6.1-3.1,9.1-4.7c3.5,0.7,5.7,5.4,9.7,4.7c-0.9-27.2,0.8-54.6,0.6-81.8
		c22.5-12.4,44-26.5,66.2-39.4c7-0.5,2.3-5.8-2.1-6.2c-5.8-1.2,1.1-10.2-3.5-11.4c-20.7,13.6-44.1,23.2-64.8,37.1
		c-7,5.1-14.4-1.8-20.4-5.1C1806,2050.5,1785.3,2042,1767.2,2030.6 M1952.5,2030.9c-10.2,6.5-28.5,12-25.3,27.4
		c2.3,32,17.9,61.1,37.3,85.8c5.9,5.2,9,14,17.5,15.5c-20.4-29.8-42.9-61.4-45.5-98.7c-1.1-11.2,7.9-20.7,17.4-25.2
		C1957.5,2035.2,1956,2028.6,1952.5,2030.9 M1714.6,2033.7c-34.5,62.6-73,123-110.3,183.9c71.5-3.1,142.9-5.2,214.5-4.1
		c-1-6.9-13.2-1.7-18-3.5c-9.9-0.2-11.1-13.6-7.8-20.6c-27.8-9.9-58.3-6.6-87.1-3.5c-2.8,3.3,4.4,6.9,0.8,10.9
		c-2.2,15.6-30.4,15.4-31.6-1c-2.3-11.6,5.4-20.2,13-27.4c-10.6,4.9-24.6,5.3-32.5-4.6c-9.5-11.5,6-31.7,19.4-24.5
		c3.3,0.3,4,6.3,7.7,4.8c17.2-22.8,33.8-47.6,40.3-75.7c-8.2-1.1-19.4-9.6-13.8-18.6C1709.5,2044.1,1720.5,2038.7,1714.6,2033.7
		 M1961.1,2033.8c-0.5,8.6,9.6,14.2,8.5,23.1c-2,7.2-9,9.6-15.3,11.6c6.7,28.1,23,53,40.3,75.8c3.7,1.5,4.3-4.5,7.7-4.8
		c13.4-7.3,28.9,13,19.4,24.5c-7.8,10-21.9,9.3-32.5,4.6c10.5,8.1,19.4,25.4,8.2,36.6c-12.3,10.4-34.1-2.9-25.3-18.4
		c-28-6-59.7-5.5-87.8,2.7c4.1,7.6,1.4,21.7-9.3,21c-4.5,0.2-15.5-3-16.5,3.2c71.6-1.2,142.9,1.2,214.4,4.1
		c-36-60-74.5-119.1-108.1-180.7C1963.6,2035.7,1963.2,2033.1,1961.1,2033.8 M1721.3,2042.2c-13.6,1.9-8.3,27.2,3.7,16.1
		c-7.4-7.5,2.6-11.8,3.9-0.2c0.4,33.8-21.5,62.5-40.8,88.4c-6.2,5.7-13.7,16.9-22.9,8.9c2-3.3,9.4,2.7,9.8-5.1
		c-3.2-13.7-21.8-2.2-16.3,8.3c5.1,11,20.4,8.4,27.4,0.9c25.1-27.3,49.1-60.9,50.6-99.1C1736.9,2052,1731.4,2039.8,1721.3,2042.2
		 M1951.3,2042c-11.5,4-11.7,18.8-10.6,29c7,32.8,25.7,62.1,48.3,86.5c5.9,6.7,16.8,11.9,24.9,6c9.7-4.2,4.4-20.2-5.3-19.7
		c-4,1.1-8.8,5.9-4.7,9.7c1.3,4.6,7.3-2.8,8.1,1.8c-2.9,3.3-8.4,3.7-12.1,1.3c-12.6-10-20.6-24.1-30.4-36.7
		c-10.3-20.4-26.1-42.7-19.8-66.5c-0.1-5.8,10-2.3,4.2,1c-5.6,5.2,5.4,9.9,8.4,4.4C1968.3,2051.6,1959.9,2040.2,1951.3,2042
		 M1755.3,2050.9c0.3,38.4-21.4,72.9-43.2,102.6c6.5-2.4,4.2-1.6,2.2,3.2c36.9-7.3,77.2-3.9,110.8,12.6c-1.1-26.3-1.2-52.7,0.2-79
		C1801.3,2078.4,1778.8,2062,1755.3,2050.9 M1919.6,2050.8c-22,13.9-44.4,27-67.5,39.2c2.2,26.3-0.4,54.2,0.8,79.4
		c33.2-17.6,73.4-19.8,110-12.8c1.3-2.1-5.5-5.6-1.7-4.5c8.3,3.5-1.2-6.6-3.6-9.2c-18.8-26.8-36.2-58.1-35.7-91.8
		C1921.4,2051,1920.2,2050.8,1919.6,2050.8 M1743.5,2157.9c-14.3,1.4-31.2,1.2-43.3,9c36-1.3,80-7.3,113.4,14
		c10,6.3,2.4,23.5,11.6,27.9c0.3-12.1,5.3-32.9-10.2-38.3C1792.8,2160.1,1767.8,2156.3,1743.5,2157.9 M1913.6,2158
		c-20.2,1.7-41.2,5.4-58.4,16.7c-5.5,10-4.4,23.2-3.3,34.1c9.1-4.5,1.9-21.8,12-28.4c32.2-19.3,72.1-16.5,108.1-12.8
		c9.1,2.3,3.2-3.6-0.3-4.2C1952.8,2158.9,1933.2,2156.5,1913.6,2158 M1735.6,2168.9c-14.4,2-29.1,2.7-43,7
		c-7.3,3.6-15.1,11.6-11.8,20.5c1.8,10.7,22.9,8.5,19-3.4c-0.2-6.1-12.1-5.2-9,2.1c-6.3,0.5-0.7-10.6,3.9-11.2
		c29.2-9.1,60.7-8.7,90.6-3.7c8.7,3.7,20.4,5,23.8,15.4c0.4,4.1-4.9,3-4.5-0.6c-2.5-6.9-11,2-7.6,6.4c3.8,8.8,19.2,5.9,20.2-3.3
		c1.1-7.6-4.8-13.4-10.3-17.5C1785.4,2168.6,1759.5,2168.3,1735.6,2168.9 M1923.7,2169c-19.8,1.3-42.5,1.9-58.1,15.8
		c-7.7,5.7-7.7,21,3.9,21.6c8.1,2.9,16-8.8,8-13.5c-5.6-3.9-4.5,9.3-9.2,4.2c0.8-11.1,14.5-12.9,22.8-16.8
		c26.2-6.1,53.5-3.8,79.8,0.2c7.7,1.4,19.9,4.1,18.1,14.8c-5.9,0.9-0.9-11.4-10.1-5.4c-8.5,10.8,10.3,18.3,16.2,9.4
		c6.7-11.4-5.6-23.9-16.7-25.3C1960.4,2170.8,1942,2167.2,1923.7,2169 M1838.1,2171.7c-13.6,6.2-8.1,21.7-8.5,33.4
		c13.1,0.9-3.9-22.4,9.4-26.8c6.4,6.5,5.6,15.5,3.4,23.5c-2,3.7,7,5.5,5.5,0.9C1847.6,2191.6,1851.6,2175.4,1838.1,2171.7
		 M1837.4,2209.6C1829.5,2217.3,1849.8,2210.9,1837.4,2209.6z"/>
	<path id="path6152" d="M1838.2,1826.8c7.8,12.5,16.1,26.7,22.7,40.5c2.1,3.8-0.4,12.5-5.9,9.3c-8.9-4.8-10.2-17.1-16.9-24
		c-6,8.2-7.8,21.2-18.3,24.8c-4.1-0.4-5-6.3-3.9-9.5C1822.2,1853.6,1831.3,1840.8,1838.2,1826.8 M1838.2,1834.8
		c-5.3,10.6-10.7,21.2-16.1,31.6c8.8-3.8,9.6-16.8,16.8-21.9c6.3,6.2,7.6,18.1,16.1,21.9C1849.3,1856.2,1844.6,1844.1,1838.2,1834.8
		z"/>
	<path id="path6154" d="M1836.2,1973.9c8.2-2.6,8.6,8.5,11.2,13.8c7.4,13.5,18.2,24.8,29.5,35.1c3.7,3.8-2.2,7.6-5.4,9
		c-10.6,7.3-22.1,12.9-33.2,19.3c-10.6-6.8-22.2-12-32.5-19.3c-3.6-1.3-9.5-5.9-4.9-9.5C1816.4,2009.2,1828.7,1992.3,1836.2,1973.9
		 M1837.1,1984c-4.9,4.1-4.9,11.3,1.1,14.4C1846.2,1996.9,1844.8,1983.1,1837.1,1984 M1829.3,1996.8c-6,10.9-16.7,18.5-23.1,28.6
		c7,5.2,15.1,8.7,22.1,13.9c14.6,14.8,28.8-9.5,42.7-13.9c-6.9-9.8-16.9-17.9-23.1-28.6c-4.2,2.4-5,8.9-9.7,10.5
		C1834.3,2004.7,1833.2,1999.4,1829.3,1996.8z"/>
	<path id="path6156" d="M1770.5,2075.8c14.8,3.2,27.6,14.4,41,21.5c-0.8,15.5,4,33.8-2.6,48.2c-20-6.8-41.6-10.9-62.4-7
		c-5.7-4.6,0.8-10.8,4.2-14.4C1762,2110.4,1762.8,2090.2,1770.5,2075.8 M1773.5,2082.7c-5.6,10.6-7.3,23.6-13.5,34.4
		c4.3,0.5,8.7,0.5,13,1.1c5,4.9-10.6,16.1,1.4,15c10.8-0.4,20.8,5.5,31.4,5c1.1-8.3-0.1-16.8,1.1-25.1
		C1812.5,2092.4,1784.5,2092,1773.5,2082.7 M1759.4,2121.8c-4.4,1-9.5,10.8-2.3,10.8C1766.5,2136.5,1769.9,2119.5,1759.4,2121.8z"/>
	<path id="path6158" d="M1904.5,2075.8c7.4-0.6,5.1,9.9,6.9,14.3c5.7,13.5,8.6,28.9,19.7,39.4c4.2,3.2,1,11.6-4.9,9
		c-19.4-4.5-39.4,0.8-57.9,7c-6.7-14.2-1.3-32-3-47.6C1877.6,2089.8,1890.9,2081.7,1904.5,2075.8 M1902.9,2082.8
		c-10.3,6.6-22.5,10-32,17.6c-2,12.2,1.4,25.2,0.3,37.6c12.2-0.4,24.1-6,36.8-5.3c-0.9-4.8-5-8.6-4.7-13.6
		c3.5-2.9,11.4,0.1,13.7-2.7C1910.6,2106.2,1909.6,2091.2,1902.9,2082.8 M1916.3,2121.8c-8.4-0.9-5.2,12.8,1.8,10.7
		C1928.3,2134.9,1922.7,2120.8,1916.3,2121.8z"/>
	<path id="path6160" d="M1646.7,2166.9c15.7,2.2-5.3,21.8-5.6,29.7c9.7,2,21.1-2.6,29.6,3.6c2.2,4.2-3,8.4-6.8,8.5
		c-15.1,2-30.4,0.2-45.6,1C1627.8,2195.9,1632,2176,1646.7,2166.9 M1643.5,2175.9c-5.5,10-14.1,19-18.2,29.8
		c11.7-0.8,23.7-0.6,35.2-1.8c-8-5.5-19.2,0-27.4-3.4C1634.9,2192.4,1645.2,2183.1,1643.5,2175.9z"/>
	<path id="path6162" d="M2026.6,2166.7c6.2-1.1,10.6,4.3,13.3,9c6.1,11.6,14.2,22.1,18.9,34.3c-13.8-1.1-27.6-0.1-41.4-0.7
		c-4.6,0.2-13.5-3-10.9-9.2c8.7-6.3,20.3-1.4,30.2-3.5C2034.6,2186.7,2020.6,2176.9,2026.6,2166.7 M2033,2175.5
		c0.6,9.4,8.9,16.3,10.9,24.8c-7.5,3.9-19.4-1.9-27.2,3.4c11.4,1.4,23.6,0.9,35.3,2C2047.3,2195.1,2039.5,2185,2033,2175.5z"/>
</g>
<g id="g6164" transform="matrix(0.42643926,0,0,0.42643926,-480.29788,-199.19401)">
	<path id="path6166" d="M1699.2,1693.4h71.7c66.6,3.8,132.9-4.9,198.6,2.8v2.7c-64,115.6-131.3,229.8-197.5,344.1
		c-10.3,21.1-24.7,40.1-36.6,60.5h-0.9c-34.4-53.2-64.2-109.1-96.2-163.9c-27.5-41.4-48.4-87-74.9-129.1
		c-20.8-37.3-43.4-73.5-62.9-111.6v-2.7 M1712.1,1700.9c-66.6,3.2-133.1,1.2-199.5,2.3c33.5,62,71.5,122.7,103.9,186.2
		c41,64.3,76.6,130.9,116.8,195.2c0.2,5.1,3.8,3.5,3.6-0.8c32.6-50.9,61.6-104.2,92.6-156.4c14.3-19.5,26.9-40.5,36.1-62.9
		c31.2-53.8,61.6-107.6,91.7-161.3C1875.9,1703.2,1794,1701.8,1712.1,1700.9z"/>
	<path id="path6168" d="M1717.2,1703.8c8.5-2.8,16.7,4.3,24.9,0c16-6.9,34.8,17.2,18.3,27.5c27.2,7.3,58,6.4,85.9,0.9
		c-13.8-20.9,21.9-32.8,29.9-13.3c9,30.2-30.6,37.1-43.3,56.5c20.1-2.5,36.3-18.8,56.8-18.2c13.3,2.8,22,18.6,12.5,29.9
		c-4.2,11.2-20.8,7.8-24.8-1.8c-19.2,19.4-32,45.3-42.6,70.5c-0.8,1.4-0.5,3.3,0.5,4.5c10.4-6.6,21.6,4.7,20.6,15.8
		c-0.5,11.8-14.3,16.7-14.9,28.8c-4.2,15.4-30.3,17.3-31.9-0.2c-9.4,4.1-13.2,17.4-20.5,24.9c-8.1,16.2-19.4,31.3-23,49.3
		c11.7-2.5,22.3,12.3,13.1,21.9c-5,12.8-21.5,10.9-30.5,3.5c-11.8-17.7-4.8-42.1-13.9-59.9c-7.1,19.2-2.5,40.4-12,58.9
		c-8.7,8.3-26.2,10.8-31.5-2.5c-9.1-9.6,1.5-24.4,13.2-21.9c-7.2-25.7-21.9-49.1-38.1-70.1c-1.3-1.5-4.8-6.9-5.7-2.6
		c-1.7,11.5-17,14.3-25,7.3c-9-6.3-6.8-19.8-16.5-25.5c-10.4-10.8-2.7-32.9,13.1-29.5c1.3,2.6,4.1,1.7,3.6-1.2
		c-9.6-25.2-23.2-48.9-40.2-69.8c-3.5-5.3-5.3,2.6-8.4,4.4c-17.1,11.5-32.6-19.7-16.2-29.4c21.6-16.7,45,13.4,66.6,12.2
		c-10.9-13.9-29.1-19.1-39.6-33.3c-11.7-9.5-4.1-34,12.2-32c13.6-3.8,20.3,13,13.7,23c28.1,4.5,58.9,7.3,86.1-1
		C1696.6,1723.6,1704.9,1705.9,1717.2,1703.8 M1718.1,1708.8c-7.9,0.8-13.3,12.2-6.3,17.5c3.7,5,15-4.5,6.4-5.6
		c-3.5-5.7,10.2-6.5,9.4-0.3c-1.9,13.2-17.9,15.8-28.4,18.5c-28.7,5.2-60,4.4-87.4-5.7c-11.4-5.2,3.5-17.5,1-5.2
		c8,5.3,13-11.5,2.7-12.7c-15.3-6.8-22.3,14.9-11.1,23.3c29,15.2,63,12.8,94.5,8.9c13.7-2.8,30.7-6.9,35.8-21.8
		C1738,1715.7,1727.7,1706.3,1718.1,1708.8 M1746.1,1708.8c-11,1-14.3,15.8-7.3,23.3c10.5,12.4,27.6,15.3,43,17
		c27,1.7,55.7,3.5,80.7-8.8c7.2-2.4,10.5-12,8.2-18.7c-2.6-10.8-22.5-9.2-22.1,2.5c1.1,5.9,12.4,7.1,8.2-0.7
		c8.1-4.7,7,10.1-0.2,11.1c-30.9,9.3-64.6,10.3-95.9,1.8c-7.9-2.5-17.1-6.6-18.1-15.9c-0.9-6.2,12.9-5.4,9.4,0.3
		c-9,1.3,3.6,11,6.9,5C1766.9,1718.2,1755.4,1705.3,1746.1,1708.8 M1734.7,1735.6c-9.8,11.7-25.9,14.5-40.2,16.8
		c-25.3,2.8-50.9,3.4-75.9-2c6.5,8.9,22,9.7,32.9,9c28-1.1,60.5,1.6,83.8-16.7c16.8,14.6,40.3,15,61.3,16.7
		c17.8-1.6,40.6,4.7,54.7-8.1C1815.3,1753.7,1766.2,1762.1,1734.7,1735.6 M1734.7,1749.7c-29.7,17.2-66,15.2-98.9,13.6
		c1.4,7.4,11.9,11.4,13.3,19.3c-7.8,0.6-14.8-2.8-22.4-3.1c16.5,28.6,36.9,58.8,37,93.1c29.2,17.6,46.7,50,61.9,79.7
		c4.4-5.7,4.1-16.5,9.7-21.7c4.5,6.4,4.9,15.7,9,21.7c15.6-29.5,32.2-62.2,61.9-79.4c0.2-34,19.9-64.5,37-92.6
		c-5.8-1.8-15.1,4.2-22.4,2.4c1.6-7.9,11.5-11.9,13.5-19.3C1801.1,1764.9,1764.7,1766.4,1734.7,1749.7 M1580.5,1764.9
		c-8.7,0.2-15.1,10.7-9.2,18.2c3,8.7,19.5,6.8,15-4.1c-2.6-4.8-6.3,4.3-8.6,0c-1.6-8.2,11.4-6,14.8-1.6c19.8,20.5,35.8,44.8,44.8,72
		c2.8,10.2,6.9,23.9-2.3,31.9c-8.1,4.9-10-13.7-2.3-6.1c7.6-2.9-0.8-15.5-7.7-10.4c-14.2,7.1-0.2,29.7,12.5,22.6
		c10.6-3.4,11.4-15.6,11.5-24.9c-5.2-28.6-20.6-54.2-37.1-77.6C1602.5,1777.2,1594.3,1763.4,1580.5,1764.9 M1882.9,1764.9
		c-32.8,18.7-49.9,56.8-60.7,91.6c-2.7,11.8-1.3,29,13.1,32c13.5,3.1,22.9-20.5,7.6-24.4c-8.9-4.2-11.3,15.9-3,9.3
		c6.2-0.5,0.4,12.2-4.7,7.9c-9.7-8-5.2-22.2-2.1-32.5c7.7-24.7,22.2-46.5,39.2-65.7c4.2-6.1,12.2-12.5,19.8-8
		c2.7,5.1-2.9,6.4-5.6,2.5c-8.2,2.7,0.5,17,8.1,10C1907.9,1779.7,1897.2,1760.1,1882.9,1764.9 M1606.5,1771.4c6.4,10,16,17.8,21,29
		c12.9,25.2,30.9,51.5,24.2,79.9c13.1,2.1,22.8,12.2,31,21.9c16.7,21.5,31.5,45.1,40,71c4.1-4.9-0.1-16.8-3.2-22.8
		c-16.5-27.4-30.6-60.6-61.8-74.1c4.1-24.2-9.1-46.1-19.2-66.9C1628.8,1796.2,1624.3,1776.3,1606.5,1771.4 M1861.9,1771.8
		c-7.5,2.7-13,8.3-17.1,14.9c-14.9,27.9-36.9,56.3-32.5,89.7c-21.5,8.2-34.1,28.5-46.2,46.7c-8.2,15.8-22.2,31.1-20.2,50.1
		c3.7,0.5,3.2-5.8,4.7-7.6c3.1-13.9,11.6-25.4,18.4-37.6c13.1-18.2,25.3-42.2,49.2-47.6c-4.9-17.1,1.4-32.8,8.2-48.9
		c9.9-19.9,19.4-40.8,35.4-56.7C1863.1,1773.9,1864.6,1770.5,1861.9,1771.8 M1646.4,1884.9c-16.4-0.3-17.9,25.1-2.3,26.9
		c11.6,4.9,15.5-15.9,2.9-13.9c1.5,4.2-2.5,9.9-5.4,3.2c-5.2-10.8,12.1-9.4,16.7-4.5c25.6,19.7,40.2,49.2,50.5,78.6
		c3.3,6.4,5,19.1-4.1,21c-2.7-0.9-4.3-4.7-0.4-5.1c7.3-2.8-5.1-10.8-7.5-5.4c-9.2,8.8,5,25.8,15.5,17c13.9-9.8,3.8-27.6,1.9-40.9
		c-8.8-19.6-20.1-38.5-33.3-55.6C1671.7,1896.1,1661.3,1884.4,1646.4,1884.9 M1820.5,1884.9c-16.9,2-27,16.5-37.1,28.3
		c-13.8,20.9-28.7,42.7-31.9,68.2c-4,9.3,1.9,23.4,13,22.9c10,1.2,16.6-14.6,7.5-20.4c-3.6-1.5-12.7,4.3-6.1,7
		c5.8,1-0.7,7.8-3.7,3.8c-6.2-6.1-2.7-16.5,0.6-23.2c6.5-18.8,14.9-36.3,26.7-52.3c9.7-10.6,19.8-27.9,36.2-26
		c8.4-0.4,1.2,16.1-2.9,8.8c3.4-8.8-11.1-2.2-7.8,3.7c2.3,9.4,15.3,7.6,19.6,0.6C1842.1,1896.6,1831.9,1883.1,1820.5,1884.9
		L1820.5,1884.9z"/>
	<path id="path6170" d="M1523.8,1709.3c21.2,0.5,42.7-1.2,63.7,1.9c5.5,1.8,1.8,9.3-2.6,9.9c-13.2,0.3-26,1.8-39.2,1
		c6,11.2,11.7,22.4,17.8,33.5c4.2,4.8-3.5,13.6-7.8,7.8C1544.3,1746.1,1532,1727.9,1523.8,1709.3 M1531.6,1714.1
		c5.3,11.3,12.9,21.5,18.5,32.7c0.2,1.6,3.3,2.3,2,0c-4.6-8.7-8.6-18-11.3-27.4c8.1-1.3,16.3-2.9,24.6-3c4,3.8,11.2-6.2,1.2-2.2
		C1554.9,1714.5,1543.3,1714.6,1531.6,1714.1z"/>
	<path id="path6172" d="M1898.9,1709.8c15.8-1,31.7-0.2,47.5-0.5c-8.8,18.4-20.2,36.3-31.4,53.5c-3.7,5.8-11.5-0.2-9.1-5.9
		c6.1-10.8,10.9-22.1,17.6-32.6c-6.5-9.5-39.3,7.8-43.9-10.7C1884.2,1707.9,1892.7,1711.5,1898.9,1709.8 M1898.6,1714.2
		c7,4.7,21.1,2.6,30.6,5.2c-2.8,10.1-7.5,19.5-11.6,28.9c8.2-9.2,14.2-23.1,20.8-34.2C1925.1,1714.6,1911.9,1714.4,1898.6,1714.2
		L1898.6,1714.2z"/>
	<path id="path6174" d="M1729.8,1768.6c4.3,18.4,0.8,41.9,2.2,62.1c-18.5,8.5-34.7,21.2-53.4,28.6c0-21-8.1-43.3-20.9-60.7
		c2.2-5.6,10.2-0.9,13.7-4c-1.1-3.9-7.7-9.2-3.6-13C1688.9,1783,1712.4,1781.8,1729.8,1768.6 M1724.7,1777.6
		c-11.8,5.1-24.5,7.1-37.1,8.9c1.3,8.7,9,15,9.6,24c-8.3,1.8-16.7,0.7-24.9,2.4c3.1,12.8,9.4,24.7,10.4,38
		c16.3-3.2,29.6-17.3,45.6-22.7C1724.3,1812.8,1732.3,1789.5,1724.7,1777.6 M1674.9,1786.6c-3.7,4.1,3.9,9.2,4.4,13.7
		c-4.4-0.1-11.3-2.3-13.7,2.1c3.4,10.9,17,3.1,24.7,4.2C1685.8,1800,1686.7,1784.3,1674.9,1786.6z"/>
	<path id="path6176" d="M1739.4,1768.3c17.9,13.1,41.6,14.7,62.8,13.3c6.1,4.6-11.1,15.4,1.2,13.9c3.2,0,10.4,0,8.1,5.1
		c-13.3,16.3-20,38.6-20.2,58.8c-18.6-7.5-35.2-20.2-53.3-28.8C1738.6,1810,1737.2,1788.9,1739.4,1768.3 M1743.7,1777.4
		c-3.5,16.5,0.7,34.1-2.1,50.8c16.1,5.4,29.3,19.2,45.7,22.9c0.8-13.5,7.5-25.4,10.4-38.2c-8.2-1.6-16.6-0.6-24.9-2.3
		c0.7-9,8.3-15.3,9.6-23.9C1769.4,1784,1756.1,1782.4,1743.7,1777.4 M1791,1786.8c-8,1.8-7.1,14.1-11.3,19.7
		c8-0.3,21.2,6.3,24.7-4.2c-2.4-4.3-9.3-2.2-13.7-2C1791.4,1797,1802.5,1784.2,1791,1786.8L1791,1786.8z"/>
	<path id="path6178" d="M1734.7,1834.8c16.8,11.9,37,19.7,52.9,32.6c-18.2,9.3-33.5,27-41.1,45.8c-5,6.3-9.2-4.9-11-8.8
		c-3.3,2.3-4.8,13.6-10.9,10c-8.1-18.1-21.5-36.1-39.6-45.5c-6-1.8,2.2-5.7,4.6-6.7C1704.1,1852.2,1720.3,1845.6,1734.7,1834.8
		 M1734.7,1839.6c-12.6,10.9-30,15.7-41.9,27c8.8,8.6,18.7,18.6,26.8,28.8c6.2-5.8,9.2-13.8,15.2-19.7c6.7,4.7,9.4,14,15.8,19.7
		c8.1-10.2,18-20.2,26.8-28.8C1765.1,1855.5,1747.7,1849.7,1734.7,1839.6 M1734.8,1883.8c-3.1,7.3-16.8,13.9-9.1,22.4
		c5.3,3.7,5.9-8.2,9.7-9.8c2.6,3.3,3.4,10.1,7.8,10.7C1753.1,1899.3,1738.7,1889.9,1734.8,1883.8z"/>
	<path id="path6180" d="M1706,2015.6c15.3,1.1,19.2,24,28.8,34.4c9.8-8.9,14.1-35,30.1-34c-2.8,21.8-20.5,40.4-29.6,61
		c-8.3-12.6-15.6-27.9-24.1-41.2C1711.4,2028.7,1700.1,2022.3,1706,2015.6 M1715.7,2032.5c5.5,11.6,12.8,22.6,18.9,33.9
		c7.3-10.4,14-22.5,19.8-34c-6.6,6.7-13.1,16.2-19,24.6C1728.6,2049.9,1722.6,2038.8,1715.7,2032.5L1715.7,2032.5z"/>
</g>
<g id="g6420" transform="matrix(0.40241451,0,0,-0.40241451,-640.29789,-285.96762)">
	<path id="path6422" d="M1838.2-1794.5h0.9c28.6,57.2,61.5,112.6,92.2,168.5c30.1,57.9,66.5,112,98.4,168.9
		c20.2,30.2,36.5,62.9,57.5,92.6v0.9h-14.3c-156-5.4-312.3-6-468.3,0h-14.3v-0.9c21-29.7,37.3-62.4,57.5-92.6
		c31.8-56.9,68.3-111,98.4-168.9C1776.7-1681.9,1809.6-1737.3,1838.2-1794.5 M1838.2-1777.5c-32.8,63.5-67.8,125.9-103.1,187.9
		c9.3-1.7,7.4-15.9,16.6-18.5c6.7-0.9,12.3,3.5,17.3,7.4c21-20.4,35.1-46.7,46-73.6c-1.3-2.6-4.7-1.3-6.9-2.2
		c-14.3-6-6.8-31,7.9-30.1c13.2,0.2,21.8,13.8,22.1,26c3.3-10.3,7.3-23.7,20.2-26c15.7-3.6,25.6,21.6,12.1,29.5
		c-2.3,2.3-6.8-0.5-8,2.9c10.4,26.8,25,53.2,45.8,73.6c4.9-4.4,11-8.8,18-7.2c8.6,3.1,6.6,16.8,15.9,18.2
		C1906.3-1651.3,1872.3-1715.4,1838.2-1777.5 M1815-1701.1c-13.2-0.4-10.3,25.7,2.2,16.7c6.3-4.2-6.2-6.8-1.1-8.9
		c9.1,2,5.6,13.6,4.2,19.9c-12.1,31.4-27,65.2-56.7,83.5c-3.5,4.7-15.9-2.9-6.9-3.2c7.7,2.1,6-9.2,0.2-9.4
		c-12.4-2.7-16.3,19.2-3.5,20.9c11.8,2.4,23-5.7,30.7-14.1c19.2-19.7,32.6-44.4,41.7-70.3C1832.1-1677.7,1833.2-1700.7,1815-1701.1
		 M1861.2-1701.1c-12.9,0-15.8,15.3-13.2,25.1c8.3,26.8,21,52.7,39.4,74.2c8.9,10.4,20.9,22.4,35.7,20.6
		c11.7-0.9,11.2-19.6,0.7-21.1c-4.3-2-10.8,3.8-8.2,8c2,3.3,8.5-1.4,8.3,3.6c-3.9,3.3-9.7,1.5-13.6-1.1
		c-19.6-12.7-31.6-33.8-42-54.1c-5-14.2-15.7-27.9-12.5-43.5c0.3-4.2,10.4-5.2,5.2-1.1c-6.1,1.3-0.1,10.7,4.3,7.6
		C1875.9-1684.5,1871.2-1702.7,1861.2-1701.1 M1833.6-1669.1c-15.9,33.1-32.4,69.8-65,89.7c-9.7,4.5-20.8-0.3-29.5-5.1
		c-4.8,0.7-2.4,5.2,1,6.1c9.6,4.1,19.8,14.5,30.9,8.8c31.6-20.9,52-55.1,63.2-90.7C1834.8-1662.7,1836-1668.9,1833.6-1669.1
		 M1843-1669.4c-2.2,7.5,2.5,14.5,4.4,21.6c11.9,30.7,31,59.9,58.9,78.3c11.7,5.3,22.9-4.9,32.9-10.1c4.8-1.1-0.5-7.2-2.9-3.8
		c-7.7,5.1-18.1,7.7-26.9,4.4C1875.8-1598.6,1859.9-1636.7,1843-1669.4 M1836.3-1651.6c-12.9,34.6-35.1,68.9-66.3,88.9
		c22.7,13.4,46,25.3,68.3,39.7c22.6-14.1,46.1-26.3,68.8-39.7c-31.2-20.2-53.2-54.3-66.2-88.9
		C1837.5-1648,1839.7-1648,1836.3-1651.6 M1737.1-1576.3c-7.1,10.9,20.9,7.7,17.3,21.4c-7.8,1.6-16.1-2-20.7-8.3
		c-1.9-3.3-6.7,0.4-5.4,3.4c10.9,4.3,19.9,16.9,32.4,8.8C1764.6-1566.8,1746.5-1569.2,1737.1-1576.3 M1939.8-1576
		c-7.8,6.3-22.9,7.6-23.3,19.9c-2.8,7.5,7,6.5,11.5,8.3c7.1-2.5,12.2-9,19.5-11.2c4.1-1.3-1.1-7.8-3.6-4.7
		c-5,6.4-13.7,11.4-21.8,8.3C1921-1568.8,1947.3-1565.7,1939.8-1576 M1726.2-1575.8C1718-1565.6,1734.7-1570.5,1726.2-1575.8
		 M1949.5-1575.2C1945.1-1565.8,1959.5-1571.9,1949.5-1575.2 M1722.5-1558.4c-1.6,0.1-1.1,2.8-1,4.1c9.8,4.5,20.1,13.7,19.2,25.4
		c-2.1,37.6-25,69.5-45.5,99.5c8.8-1.3,11.2-10.6,17.5-15.5c21.2-26.8,38.5-59.6,37.1-94.6
		C1743.7-1548.7,1732.3-1554.2,1722.5-1558.4 M1767.2-1558.4c2.2,8.3-2.6,11.5-8.8,15.1c22.4,13.3,46.9,28.1,70,41.9
		c0.3,27.1,1.9,54.6,0.9,81.7c3.8,0.5,6.1-3.1,9.1-4.7c3.5,0.7,5.7,5.4,9.7,4.6c-0.9-27.2,0.8-54.6,0.6-81.8
		c22.5-12.4,44-26.5,66.2-39.4c7-0.5,2.3-5.8-2.1-6.2c-5.8-1.2,1.1-10.2-3.5-11.4c-20.7,13.6-44.1,23.2-64.8,37.1
		c-7,5.1-14.4-1.8-20.4-5.1C1806-1538.5,1785.3-1547,1767.2-1558.4 M1952.5-1558.1c-10.2,6.5-28.5,12-25.3,27.4
		c2.3,32,17.9,61.1,37.3,85.8c5.9,5.2,9,14,17.5,15.5c-20.4-29.8-42.9-61.4-45.5-98.7c-1.1-11.2,7.9-20.7,17.4-25.1
		C1957.5-1553.7,1956-1560.4,1952.5-1558.1 M1714.6-1555.3c-34.5,62.6-73,123-110.3,183.9c71.5-3.1,142.9-5.2,214.5-4.1
		c-1-6.9-13.2-1.7-18-3.5c-9.9-0.2-11.1-13.7-7.8-20.6c-27.8-9.9-58.3-6.6-87.1-3.5c-2.8,3.3,4.4,6.9,0.8,11
		c-2.2,15.6-30.4,15.4-31.6-1c-2.3-11.6,5.4-20.2,13-27.4c-10.6,4.9-24.6,5.3-32.5-4.6c-9.5-11.5,6-31.7,19.4-24.5
		c3.3,0.3,4,6.3,7.7,4.8c17.2-22.8,33.8-47.6,40.3-75.7c-8.2-1.1-19.4-9.6-13.8-18.6C1709.5-1544.9,1720.5-1550.3,1714.6-1555.3
		 M1961.1-1555.2c-0.5,8.6,9.6,14.2,8.5,23.1c-2,7.2-9,9.6-15.3,11.6c6.7,28.1,23,53,40.3,75.8c3.7,1.5,4.3-4.5,7.7-4.8
		c13.4-7.3,28.9,13,19.4,24.5c-7.8,10-21.9,9.3-32.5,4.6c10.5,8.2,19.4,25.4,8.2,36.6c-12.3,10.4-34.1-2.9-25.3-18.4
		c-28-6-59.7-5.5-87.8,2.7c4.1,7.6,1.4,21.7-9.3,21c-4.5,0.2-15.5-3-16.5,3.2c71.6-1.2,142.9,1.2,214.4,4.1
		c-36-60-74.5-119.1-108.1-180.7C1963.6-1553.3,1963.2-1555.9,1961.1-1555.2 M1721.3-1546.8c-13.6,1.9-8.3,27.2,3.7,16.1
		c-7.4-7.5,2.6-11.8,3.9-0.2c0.4,33.8-21.5,62.5-40.8,88.4c-6.2,5.7-13.7,16.9-22.9,8.9c2-3.3,9.4,2.7,9.8-5.1
		c-3.2-13.7-21.8-2.2-16.3,8.3c5.1,11,20.4,8.4,27.4,0.9c25.1-27.3,49.1-60.9,50.6-99.1C1736.9-1537,1731.4-1549.2,1721.3-1546.8
		 M1951.3-1547c-11.5,4-11.7,18.8-10.6,29c7,32.8,25.7,62.1,48.3,86.5c5.9,6.7,16.8,11.9,24.9,6c9.7-4.2,4.4-20.2-5.3-19.7
		c-4,1.1-8.8,5.9-4.7,9.7c1.3,4.6,7.3-2.8,8.1,1.8c-2.9,3.3-8.4,3.6-12.1,1.3c-12.6-10-20.6-24.2-30.4-36.7
		c-10.3-20.4-26.1-42.7-19.8-66.5c-0.1-5.8,10-2.3,4.2,1c-5.6,5.2,5.4,9.9,8.4,4.4C1968.3-1537.4,1959.9-1548.8,1951.3-1547
		 M1755.3-1538.1c0.3,38.4-21.4,72.9-43.2,102.6c6.5-2.4,4.2-1.6,2.2,3.2c36.9-7.3,77.2-3.9,110.8,12.7c-1.1-26.3-1.2-52.7,0.2-79
		C1801.3-1510.6,1778.8-1527,1755.3-1538.1 M1919.6-1538.2c-22,13.9-44.4,27-67.5,39.2c2.2,26.3-0.4,54.2,0.8,79.4
		c33.2-17.7,73.4-19.8,110-12.8c1.3-2.1-5.5-5.7-1.7-4.5c8.3,3.5-1.2-6.6-3.6-9.2c-18.8-26.8-36.2-58.1-35.7-91.8
		C1921.4-1538,1920.2-1538.1,1919.6-1538.2 M1743.5-1431.1c-14.3,1.4-31.2,1.2-43.3,9c36-1.3,80-7.3,113.4,14
		c10,6.4,2.4,23.5,11.6,27.9c0.3-12.1,5.3-32.9-10.2-38.3C1792.8-1428.9,1767.8-1432.7,1743.5-1431.1 M1913.6-1431
		c-20.2,1.7-41.2,5.4-58.4,16.7c-5.5,10-4.4,23.2-3.3,34.1c9.1-4.5,1.9-21.8,12-28.4c32.2-19.3,72.1-16.5,108.1-12.8
		c9.1,2.3,3.2-3.6-0.3-4.2C1952.8-1430.1,1933.2-1432.5,1913.6-1431 M1735.6-1420.1c-14.4,2-29.1,2.7-43,7
		c-7.3,3.6-15.1,11.6-11.8,20.5c1.8,10.7,22.9,8.5,19-3.4c-0.2-6.1-12.1-5.2-9,2.1c-6.3,0.5-0.7-10.6,3.9-11.2
		c29.2-9.1,60.7-8.7,90.6-3.7c8.7,3.7,20.4,5,23.8,15.4c0.4,4.1-4.9,3-4.5-0.6c-2.5-6.9-11,2-7.6,6.4c3.8,8.8,19.2,5.8,20.2-3.3
		c1.1-7.6-4.8-13.4-10.3-17.5C1785.4-1420.3,1759.5-1420.7,1735.6-1420.1 M1923.7-1419.9c-19.8,1.3-42.5,1.9-58.1,15.8
		c-7.7,5.7-7.7,21,3.9,21.6c8.1,2.9,16-8.8,8-13.5c-5.6-3.9-4.5,9.3-9.2,4.2c0.8-11.1,14.5-12.9,22.8-16.8
		c26.2-6.1,53.5-3.8,79.8,0.2c7.7,1.4,19.9,4.1,18.1,14.8c-5.9,0.9-0.9-11.4-10.1-5.4c-8.5,10.8,10.3,18.3,16.2,9.4
		c6.7-11.4-5.6-23.9-16.7-25.3C1960.4-1418.2,1942-1421.8,1923.7-1419.9 M1838.1-1417.3c-13.6,6.2-8.1,21.7-8.5,33.4
		c13.1,0.8-3.9-22.4,9.4-26.8c6.4,6.5,5.6,15.5,3.4,23.5c-2,3.6,7,5.5,5.5,0.9C1847.6-1397.4,1851.6-1413.6,1838.1-1417.3
		 M1837.4-1379.4C1829.5-1371.7,1849.8-1378.1,1837.4-1379.4z"/>
	<path id="path6424" d="M1838.2-1762.2c7.8,12.5,16.1,26.7,22.7,40.5c2.1,3.8-0.4,12.5-5.9,9.3c-8.9-4.8-10.2-17.1-16.9-24
		c-6,8.2-7.8,21.2-18.3,24.8c-4.1-0.4-5-6.3-3.9-9.5C1822.2-1735.4,1831.3-1748.2,1838.2-1762.2 M1838.2-1754.2
		c-5.3,10.6-10.7,21.2-16.1,31.6c8.8-3.8,9.6-16.8,16.8-21.9c6.3,6.2,7.6,18.1,16.1,21.9C1849.3-1732.8,1844.6-1744.9,1838.2-1754.2
		z"/>
	<path id="path6426" d="M1836.2-1615.1c8.2-2.6,8.6,8.5,11.2,13.8c7.4,13.5,18.2,24.8,29.5,35.1c3.7,3.8-2.2,7.6-5.4,9
		c-10.6,7.3-22.1,12.9-33.2,19.3c-10.6-6.8-22.2-12-32.5-19.3c-3.6-1.3-9.5-5.9-4.9-9.5C1816.4-1579.8,1828.7-1596.7,1836.2-1615.1
		 M1837.1-1605c-4.9,4.1-4.9,11.3,1.1,14.4C1846.2-1592.1,1844.8-1605.9,1837.1-1605 M1829.3-1592.2c-6,10.9-16.7,18.5-23.1,28.6
		c7,5.2,15.1,8.7,22.1,13.9c14.6,14.8,28.8-9.5,42.7-13.9c-6.9-9.8-16.9-17.9-23.1-28.6c-4.2,2.4-5,8.9-9.7,10.5
		C1834.3-1584.3,1833.2-1589.6,1829.3-1592.2z"/>
	<path id="path6428" d="M1770.5-1513.2c14.8,3.2,27.6,14.4,41,21.5c-0.8,15.5,4,33.8-2.6,48.2c-20-6.8-41.6-10.8-62.4-7
		c-5.7-4.6,0.8-10.8,4.2-14.4C1762-1478.6,1762.8-1498.8,1770.5-1513.2 M1773.5-1506.3c-5.6,10.6-7.3,23.6-13.5,34.4
		c4.3,0.5,8.7,0.5,13,1.1c5,4.9-10.6,16.1,1.4,15c10.8-0.4,20.8,5.6,31.4,5c1.1-8.3-0.1-16.8,1.1-25
		C1812.5-1496.6,1784.5-1497,1773.5-1506.3 M1759.4-1467.2c-4.4,1-9.5,10.8-2.3,10.8C1766.5-1452.5,1769.9-1469.5,1759.4-1467.2z"/>
	<path id="path6430" d="M1904.5-1513.2c7.4-0.6,5.1,9.9,6.9,14.4c5.7,13.5,8.6,28.9,19.7,39.4c4.2,3.2,1,11.7-4.9,9
		c-19.4-4.5-39.4,0.8-57.9,7c-6.7-14.2-1.3-32-3-47.6C1877.6-1499.2,1890.9-1507.3,1904.5-1513.2 M1902.9-1506.1
		c-10.3,6.6-22.5,10-32,17.6c-2,12.2,1.4,25.2,0.3,37.6c12.2-0.4,24.1-6,36.8-5.4c-0.9-4.8-5-8.6-4.7-13.6
		c3.5-2.9,11.4,0.1,13.7-2.7C1910.6-1482.8,1909.6-1497.8,1902.9-1506.1 M1916.3-1467.1c-8.4-0.9-5.2,12.8,1.8,10.7
		C1928.3-1454.1,1922.7-1468.2,1916.3-1467.1z"/>
	<path id="path6432" d="M1646.7-1422.1c15.7,2.2-5.3,21.8-5.6,29.7c9.7,2,21.1-2.6,29.6,3.6c2.2,4.2-3,8.4-6.8,8.5
		c-15.1,2-30.4,0.2-45.6,1C1627.8-1393,1632-1413,1646.7-1422.1 M1643.5-1413.1c-5.5,10-14.1,19-18.2,29.8
		c11.7-0.8,23.7-0.6,35.2-1.8c-8-5.5-19.2,0-27.4-3.4C1634.9-1396.6,1645.2-1405.9,1643.5-1413.1z"/>
	<path id="path6434" d="M2026.6-1422.3c6.2-1.1,10.6,4.3,13.3,9c6.1,11.6,14.2,22.1,18.9,34.3c-13.8-1.1-27.6-0.1-41.4-0.7
		c-4.6,0.2-13.5-3-10.9-9.2c8.7-6.3,20.3-1.4,30.2-3.5C2034.6-1402.3,2020.6-1412.1,2026.6-1422.3 M2033-1413.5
		c0.6,9.4,8.9,16.3,10.9,24.8c-7.5,3.9-19.4-1.9-27.2,3.5c11.4,1.4,23.6,0.9,35.3,2C2047.3-1393.9,2039.5-1404,2033-1413.5z"/>
</g>
<g id="g6436" transform="matrix(0.42643926,0,0,-0.42643926,-480.29788,-254.56817)">
	<path id="path6438" d="M1699.2-1693.4h71.7c66.6,3.8,132.9-4.9,198.6,2.8v2.7c-64,115.6-131.3,229.8-197.5,344.1
		c-10.3,21.1-24.7,40.1-36.6,60.5h-0.9c-34.4-53.2-64.2-109.1-96.2-163.9c-27.5-41.4-48.4-87-74.9-129.1
		c-20.8-37.3-43.4-73.5-62.9-111.6v-2.7 M1712.1-1685.9c-66.6,3.2-133.1,1.2-199.5,2.3c33.5,62,71.5,122.7,103.9,186.2
		c41,64.3,76.6,130.9,116.8,195.2c0.2,5.2,3.8,3.5,3.6-0.8c32.6-50.9,61.6-104.2,92.6-156.4c14.3-19.5,26.9-40.5,36.1-62.9
		c31.2-53.8,61.6-107.6,91.7-161.3C1875.9-1683.6,1794-1685,1712.1-1685.9z"/>
	<path id="path6440" d="M1717.2-1683c8.5-2.8,16.7,4.3,24.9,0c16-6.9,34.8,17.2,18.3,27.5c27.2,7.3,58,6.4,85.9,0.9
		c-13.8-20.9,21.9-32.8,29.9-13.3c9,30.2-30.6,37.1-43.3,56.5c20.1-2.5,36.3-18.8,56.8-18.2c13.3,2.8,22,18.6,12.5,30
		c-4.2,11.2-20.8,7.8-24.8-1.8c-19.2,19.4-32,45.3-42.6,70.5c-0.8,1.4-0.5,3.3,0.5,4.5c10.4-6.6,21.6,4.7,20.6,15.8
		c-0.5,11.8-14.3,16.7-14.9,28.8c-4.2,15.4-30.3,17.3-31.9-0.2c-9.4,4.1-13.2,17.4-20.5,24.9c-8.1,16.2-19.4,31.3-23,49.3
		c11.7-2.5,22.3,12.3,13.1,21.9c-5,12.8-21.5,10.9-30.5,3.5c-11.8-17.7-4.8-42.1-13.9-59.9c-7.1,19.2-2.5,40.4-12,58.9
		c-8.7,8.3-26.2,10.8-31.5-2.5c-9.1-9.6,1.5-24.4,13.2-21.9c-7.2-25.7-21.9-49.1-38.1-70.1c-1.3-1.5-4.8-6.9-5.7-2.6
		c-1.7,11.5-17,14.3-25,7.3c-9-6.3-6.8-19.8-16.5-25.5c-10.4-10.8-2.7-32.8,13.1-29.5c1.3,2.6,4.1,1.7,3.6-1.2
		c-9.6-25.2-23.2-48.9-40.2-69.8c-3.5-5.3-5.3,2.6-8.4,4.4c-17.1,11.5-32.6-19.7-16.2-29.4c21.6-16.7,45,13.4,66.6,12.2
		c-10.9-13.9-29.1-19.1-39.6-33.3c-11.7-9.5-4.1-34,12.2-32c13.6-3.8,20.3,13,13.7,23c28.1,4.5,58.9,7.3,86.1-1
		C1696.6-1663.2,1704.9-1680.9,1717.2-1683 M1718.1-1678c-7.9,0.8-13.3,12.2-6.3,17.5c3.7,5,15-4.5,6.4-5.6
		c-3.5-5.7,10.2-6.5,9.4-0.3c-1.9,13.2-17.9,15.8-28.4,18.5c-28.7,5.2-60,4.4-87.4-5.7c-11.4-5.2,3.5-17.5,1-5.2
		c8,5.3,13-11.5,2.7-12.7c-15.3-6.8-22.3,14.9-11.1,23.3c29,15.2,63,12.8,94.5,8.9c13.7-2.8,30.7-6.8,35.8-21.8
		C1738-1671.1,1727.7-1680.5,1718.1-1678 M1746.1-1678c-11,1-14.3,15.8-7.3,23.3c10.5,12.4,27.6,15.3,43,17
		c27,1.7,55.7,3.5,80.7-8.8c7.2-2.4,10.5-12,8.2-18.7c-2.6-10.8-22.5-9.2-22.1,2.5c1.1,5.9,12.4,7.1,8.2-0.7c8.1-4.7,7,10-0.2,11.1
		c-30.9,9.3-64.6,10.3-95.9,1.8c-7.9-2.5-17.1-6.6-18.1-15.9c-0.9-6.2,12.9-5.4,9.4,0.3c-9,1.3,3.6,11,6.9,5
		C1766.9-1668.6,1755.4-1681.5,1746.1-1678 M1734.7-1651.2c-9.8,11.7-25.9,14.5-40.2,16.8c-25.3,2.8-50.9,3.4-75.9-2
		c6.5,8.9,22,9.7,32.9,9c28-1.1,60.5,1.6,83.8-16.7c16.8,14.6,40.3,15,61.3,16.7c17.8-1.7,40.6,4.7,54.7-8.1
		C1815.3-1633.1,1766.2-1624.7,1734.7-1651.2 M1734.7-1637.1c-29.7,17.2-66,15.2-98.9,13.6c1.4,7.4,11.9,11.4,13.3,19.3
		c-7.8,0.6-14.8-2.8-22.4-3.1c16.5,28.6,36.9,58.8,37,93.1c29.2,17.6,46.7,50,61.9,79.7c4.4-5.7,4.1-16.5,9.7-21.7
		c4.5,6.4,4.9,15.7,9,21.7c15.6-29.5,32.2-62.2,61.9-79.4c0.2-34,19.9-64.5,37-92.6c-5.8-1.8-15.1,4.2-22.4,2.4
		c1.6-7.9,11.5-11.9,13.5-19.3C1801.1-1621.8,1764.7-1620.4,1734.7-1637.1 M1580.5-1621.9c-8.7,0.2-15.1,10.7-9.2,18.2
		c3,8.7,19.5,6.8,15-4.1c-2.6-4.8-6.3,4.3-8.6,0c-1.6-8.2,11.4-6,14.8-1.6c19.8,20.5,35.8,44.8,44.8,72c2.8,10.2,6.9,23.9-2.3,31.9
		c-8.1,4.9-10-13.7-2.3-6.1c7.6-2.9-0.8-15.5-7.7-10.4c-14.2,7.1-0.2,29.7,12.5,22.6c10.6-3.4,11.4-15.6,11.5-24.9
		c-5.2-28.6-20.6-54.2-37.1-77.6C1602.5-1609.6,1594.3-1623.4,1580.5-1621.9 M1882.9-1621.9c-32.8,18.7-49.9,56.8-60.7,91.6
		c-2.7,11.8-1.3,29,13.1,32c13.5,3.1,22.9-20.5,7.6-24.4c-8.9-4.2-11.3,15.9-3,9.3c6.2-0.5,0.4,12.2-4.7,7.9
		c-9.7-8-5.2-22.2-2.1-32.5c7.7-24.7,22.2-46.5,39.2-65.7c4.2-6.1,12.2-12.5,19.8-8c2.7,5.1-2.9,6.4-5.6,2.5c-8.2,2.7,0.5,17,8.1,10
		C1907.9-1607.1,1897.2-1626.7,1882.9-1621.9 M1606.5-1615.4c6.4,10,16,17.8,21,29c12.9,25.2,30.9,51.5,24.2,79.9
		c13.1,2.1,22.8,12.2,31,21.9c16.7,21.5,31.5,45.1,40,71c4.1-4.9-0.1-16.8-3.2-22.8c-16.5-27.4-30.6-60.6-61.8-74.1
		c4.1-24.2-9.1-46.1-19.2-66.9C1628.8-1590.6,1624.3-1610.5,1606.5-1615.4 M1861.9-1615c-7.5,2.7-13,8.3-17.1,14.9
		c-14.9,27.9-36.9,56.3-32.5,89.7c-21.5,8.2-34.1,28.5-46.2,46.7c-8.2,15.8-22.2,31.1-20.2,50.1c3.7,0.5,3.2-5.8,4.7-7.6
		c3.1-13.9,11.6-25.4,18.4-37.6c13.1-18.2,25.3-42.2,49.2-47.6c-4.9-17.1,1.4-32.8,8.2-48.9c9.9-19.9,19.4-40.8,35.4-56.7
		C1863.1-1612.9,1864.6-1616.3,1861.9-1615 M1646.4-1501.9c-16.4-0.3-17.9,25.1-2.3,26.9c11.6,4.9,15.5-15.9,2.9-13.9
		c1.5,4.2-2.5,9.9-5.4,3.2c-5.2-10.8,12.1-9.4,16.7-4.5c25.6,19.7,40.2,49.2,50.5,78.6c3.3,6.4,5,19.1-4.1,21
		c-2.7-0.9-4.3-4.7-0.4-5.1c7.3-2.8-5.1-10.8-7.5-5.4c-9.2,8.9,5,25.8,15.5,17c13.9-9.8,3.8-27.6,1.9-40.9
		c-8.8-19.6-20.1-38.5-33.3-55.6C1671.7-1490.7,1661.3-1502.4,1646.4-1501.9 M1820.5-1501.8c-16.9,2-27,16.5-37.1,28.4
		c-13.8,20.9-28.7,42.7-31.9,68.2c-4,9.3,1.9,23.4,13,22.9c10,1.2,16.6-14.6,7.5-20.4c-3.6-1.5-12.7,4.4-6.1,7
		c5.8,1-0.7,7.8-3.7,3.8c-6.2-6.1-2.7-16.5,0.6-23.2c6.5-18.8,14.9-36.3,26.7-52.3c9.7-10.6,19.8-27.9,36.2-26
		c8.4-0.4,1.2,16.1-2.9,8.8c3.4-8.8-11.1-2.2-7.8,3.7c2.3,9.4,15.3,7.6,19.6,0.6C1842.1-1490.1,1831.9-1503.6,1820.5-1501.8
		L1820.5-1501.8z"/>
	<path id="path6442" d="M1523.8-1677.5c21.2,0.5,42.7-1.2,63.7,1.9c5.5,1.8,1.8,9.3-2.6,9.9c-13.2,0.3-26,1.8-39.2,1
		c6,11.2,11.7,22.4,17.8,33.5c4.2,4.8-3.5,13.6-7.8,7.8C1544.3-1640.7,1532-1658.9,1523.8-1677.5 M1531.6-1672.7
		c5.3,11.3,12.9,21.5,18.5,32.7c0.2,1.6,3.3,2.3,2,0c-4.6-8.7-8.6-18-11.3-27.4c8.1-1.3,16.3-2.9,24.6-3c4,3.8,11.2-6.2,1.2-2.2
		C1554.9-1672.3,1543.3-1672.2,1531.6-1672.7z"/>
	<path id="path6444" d="M1898.9-1677c15.8-1,31.7-0.2,47.5-0.5c-8.8,18.4-20.2,36.3-31.4,53.5c-3.7,5.8-11.5-0.2-9.1-5.9
		c6.1-10.8,10.9-22.1,17.6-32.6c-6.5-9.5-39.3,7.8-43.9-10.7C1884.2-1678.9,1892.7-1675.3,1898.9-1677 M1898.6-1672.6
		c7,4.7,21.1,2.6,30.6,5.2c-2.8,10.1-7.5,19.5-11.6,28.9c8.2-9.2,14.2-23.1,20.8-34.2C1925.1-1672.1,1911.9-1672.4,1898.6-1672.6
		L1898.6-1672.6z"/>
	<path id="path6446" d="M1729.8-1618.2c4.3,18.4,0.8,41.9,2.2,62.1c-18.5,8.5-34.7,21.2-53.4,28.6c0-21-8.1-43.3-20.9-60.7
		c2.2-5.6,10.2-0.9,13.7-4c-1.1-3.9-7.7-9.2-3.6-13C1688.9-1603.8,1712.4-1605,1729.8-1618.2 M1724.7-1609.2
		c-11.8,5.1-24.5,7-37.1,8.9c1.3,8.7,9,15,9.6,24c-8.3,1.8-16.7,0.7-24.9,2.4c3.1,12.8,9.4,24.7,10.4,38
		c16.3-3.2,29.6-17.3,45.6-22.7C1724.3-1574,1732.3-1597.3,1724.7-1609.2 M1674.9-1600.2c-3.7,4.1,3.9,9.2,4.4,13.6
		c-4.4-0.1-11.3-2.3-13.7,2.1c3.4,10.9,17,3.1,24.7,4.2C1685.8-1586.8,1686.7-1602.5,1674.9-1600.2z"/>
	<path id="path6448" d="M1739.4-1618.5c17.9,13.1,41.6,14.7,62.8,13.3c6.1,4.6-11.1,15.4,1.2,13.9c3.2,0,10.4,0,8.1,5.1
		c-13.3,16.3-20,38.6-20.2,58.8c-18.6-7.5-35.2-20.2-53.3-28.8C1738.6-1576.8,1737.2-1597.9,1739.4-1618.5 M1743.7-1609.4
		c-3.5,16.5,0.7,34.1-2.1,50.8c16.1,5.4,29.3,19.2,45.7,22.9c0.8-13.5,7.5-25.4,10.4-38.2c-8.2-1.6-16.6-0.6-24.9-2.3
		c0.7-9,8.3-15.3,9.6-23.9C1769.4-1602.7,1756.1-1604.4,1743.7-1609.4 M1791-1600c-8,1.8-7.1,14.1-11.3,19.7
		c8-0.3,21.2,6.3,24.7-4.2c-2.4-4.3-9.3-2.2-13.7-2C1791.4-1589.8,1802.5-1602.6,1791-1600L1791-1600z"/>
	<path id="path6450" d="M1734.7-1552c16.8,11.9,37,19.7,52.9,32.6c-18.2,9.3-33.5,27-41.1,45.9c-5,6.3-9.2-4.9-11-8.8
		c-3.3,2.3-4.8,13.6-10.9,10c-8.1-18.1-21.5-36.1-39.6-45.4c-6-1.8,2.2-5.7,4.6-6.7C1704.1-1534.5,1720.3-1541.2,1734.7-1552
		 M1734.7-1547.1c-12.6,10.9-30,15.7-41.9,27c8.8,8.6,18.7,18.6,26.8,28.8c6.2-5.8,9.2-13.8,15.2-19.7c6.7,4.7,9.4,14,15.8,19.7
		c8.1-10.2,18-20.2,26.8-28.8C1765.1-1531.2,1747.7-1537,1734.7-1547.1 M1734.8-1502.9c-3.1,7.3-16.8,13.9-9.1,22.4
		c5.3,3.7,5.9-8.2,9.7-9.8c2.6,3.3,3.4,10.1,7.8,10.7C1753.1-1487.4,1738.7-1496.8,1734.8-1502.9z"/>
	<path id="path6452" d="M1706-1371.1c15.3,1.1,19.2,24,28.8,34.4c9.8-8.9,14.1-35,30.1-34c-2.8,21.8-20.5,40.4-29.6,61
		c-8.3-12.6-15.6-27.9-24.1-41.2C1711.4-1358.1,1700.1-1364.5,1706-1371.1 M1715.7-1354.3c5.5,11.5,12.8,22.6,18.9,34
		c7.3-10.4,14-22.5,19.8-34c-6.6,6.7-13.1,16.2-19,24.6C1728.6-1336.9,1722.6-1347.9,1715.7-1354.3L1715.7-1354.3z"/>
</g>
<g id="g6692" transform="matrix(0.40241451,0,0,0.40241451,-640.29789,-687.7946)">
	<path id="path6694" d="M1838.2,1794.5h0.9c28.6,57.2,61.5,112.6,92.2,168.5c30.1,57.9,66.5,112,98.4,168.9
		c20.2,30.2,36.5,62.9,57.5,92.6v0.9h-14.3c-156-5.4-312.3-6-468.3,0h-14.3v-0.9c21-29.7,37.3-62.4,57.5-92.6
		c31.8-56.9,68.3-111,98.4-168.9C1776.7,1907.1,1809.6,1851.7,1838.2,1794.5 M1838.2,1811.5c-32.8,63.5-67.8,125.9-103.1,187.9
		c9.3-1.7,7.4-15.9,16.6-18.5c6.7-0.9,12.3,3.5,17.3,7.4c21-20.4,35.1-46.7,46-73.6c-1.3-2.6-4.7-1.3-6.9-2.2
		c-14.3-6-6.8-31,7.9-30.1c13.2,0.2,21.8,13.8,22.1,26c3.3-10.3,7.3-23.7,20.2-26c15.7-3.6,25.6,21.6,12.1,29.5
		c-2.3,2.3-6.8-0.5-8,2.9c10.4,26.8,25,53.2,45.8,73.6c4.9-4.4,11-8.8,18-7.2c8.6,3.1,6.6,16.8,15.9,18.2
		C1906.3,1937.7,1872.3,1873.6,1838.2,1811.5 M1815,1887.9c-13.2-0.4-10.3,25.7,2.2,16.7c6.3-4.2-6.2-6.8-1.1-8.9
		c9.1,2,5.6,13.6,4.2,19.9c-12.1,31.4-27,65.2-56.7,83.5c-3.5,4.7-15.9-2.9-6.9-3.2c7.7,2.1,6-9.2,0.2-9.4
		c-12.4-2.7-16.3,19.2-3.5,20.9c11.8,2.4,23-5.7,30.7-14.1c19.2-19.7,32.6-44.4,41.7-70.3C1832.1,1911.3,1833.2,1888.3,1815,1887.9
		 M1861.2,1887.9c-12.9,0-15.8,15.3-13.2,25.1c8.3,26.8,21,52.7,39.4,74.2c8.9,10.4,20.9,22.4,35.7,20.6
		c11.7-0.9,11.2-19.6,0.7-21.1c-4.3-2-10.8,3.8-8.2,8c2,3.3,8.5-1.4,8.3,3.6c-3.9,3.3-9.7,1.5-13.6-1.1
		c-19.6-12.7-31.6-33.8-42-54.1c-5-14.2-15.7-27.9-12.5-43.5c0.3-4.2,10.4-5.2,5.2-1.1c-6.1,1.3-0.1,10.7,4.3,7.6
		C1875.9,1904.5,1871.2,1886.3,1861.2,1887.9 M1833.6,1919.9c-15.9,33.1-32.4,69.8-65,89.7c-9.7,4.5-20.8-0.3-29.5-5.1
		c-4.8,0.7-2.4,5.2,1,6.1c9.6,4.1,19.8,14.5,30.9,8.8c31.6-20.9,52-55.1,63.2-90.7C1834.8,1926.3,1836,1920.1,1833.6,1919.9
		 M1843,1919.6c-2.2,7.5,2.5,14.5,4.4,21.6c11.9,30.7,31,59.9,58.9,78.3c11.7,5.3,22.9-4.9,32.9-10.1c4.8-1.1-0.5-7.2-2.9-3.8
		c-7.7,5.1-18.1,7.7-26.9,4.4C1875.8,1990.4,1859.9,1952.3,1843,1919.6 M1836.3,1937.4c-12.9,34.6-35.1,68.9-66.3,88.9
		c22.7,13.4,46,25.3,68.3,39.7c22.6-14.1,46.1-26.3,68.8-39.7c-31.2-20.2-53.2-54.3-66.2-88.9
		C1837.5,1941,1839.7,1941,1836.3,1937.4 M1737.1,2012.7c-7.1,10.9,20.9,7.7,17.3,21.4c-7.8,1.6-16.1-2-20.7-8.3
		c-1.9-3.3-6.7,0.4-5.4,3.4c10.9,4.3,19.9,16.9,32.4,8.8C1764.6,2022.2,1746.5,2019.8,1737.1,2012.7 M1939.8,2013
		c-7.8,6.3-22.9,7.6-23.3,19.9c-2.8,7.5,7,6.5,11.5,8.3c7.1-2.5,12.2-9,19.5-11.2c4.1-1.3-1.1-7.8-3.6-4.7
		c-5,6.4-13.7,11.4-21.8,8.3C1921,2020.2,1947.3,2023.3,1939.8,2013 M1726.2,2013.2C1718,2023.4,1734.7,2018.5,1726.2,2013.2
		 M1949.5,2013.8C1945.1,2023.2,1959.5,2017.1,1949.5,2013.8 M1722.5,2030.6c-1.6,0.1-1.1,2.8-1,4.1c9.8,4.5,20.1,13.7,19.2,25.4
		c-2.1,37.6-25,69.5-45.5,99.5c8.8-1.3,11.2-10.6,17.5-15.5c21.2-26.8,38.5-59.6,37.1-94.6
		C1743.7,2040.2,1732.3,2034.8,1722.5,2030.6 M1767.2,2030.6c2.2,8.3-2.6,11.5-8.8,15.1c22.4,13.3,46.9,28.1,70,41.9
		c0.3,27.1,1.9,54.6,0.9,81.8c3.8,0.5,6.1-3.1,9.1-4.7c3.5,0.7,5.7,5.4,9.7,4.7c-0.9-27.2,0.8-54.6,0.6-81.8
		c22.5-12.4,44-26.5,66.2-39.4c7-0.5,2.3-5.8-2.1-6.2c-5.8-1.2,1.1-10.2-3.5-11.4c-20.7,13.6-44.1,23.2-64.8,37.1
		c-7,5.1-14.4-1.8-20.4-5.1C1806,2050.5,1785.3,2042,1767.2,2030.6 M1952.5,2030.9c-10.2,6.5-28.5,12-25.3,27.4
		c2.3,32,17.9,61.1,37.3,85.8c5.9,5.2,9,14,17.5,15.5c-20.4-29.8-42.9-61.4-45.5-98.7c-1.1-11.2,7.9-20.7,17.4-25.2
		C1957.5,2035.2,1956,2028.6,1952.5,2030.9 M1714.6,2033.7c-34.5,62.6-73,123-110.3,183.9c71.5-3.1,142.9-5.2,214.5-4.1
		c-1-6.9-13.2-1.7-18-3.5c-9.9-0.2-11.1-13.6-7.8-20.6c-27.8-9.9-58.3-6.6-87.1-3.5c-2.8,3.3,4.4,6.9,0.8,10.9
		c-2.2,15.6-30.4,15.4-31.6-1c-2.3-11.6,5.4-20.2,13-27.4c-10.6,4.9-24.6,5.3-32.5-4.6c-9.5-11.5,6-31.7,19.4-24.5
		c3.3,0.3,4,6.3,7.7,4.8c17.2-22.8,33.8-47.6,40.3-75.7c-8.2-1.1-19.4-9.6-13.8-18.6C1709.5,2044.1,1720.5,2038.7,1714.6,2033.7
		 M1961.1,2033.8c-0.5,8.6,9.6,14.2,8.5,23.1c-2,7.2-9,9.6-15.3,11.6c6.7,28.1,23,53,40.3,75.8c3.7,1.5,4.3-4.5,7.7-4.8
		c13.4-7.3,28.9,13,19.4,24.5c-7.8,10-21.9,9.3-32.5,4.6c10.5,8.1,19.4,25.4,8.2,36.6c-12.3,10.4-34.1-2.9-25.3-18.4
		c-28-6-59.7-5.5-87.8,2.7c4.1,7.6,1.4,21.7-9.3,21c-4.5,0.2-15.5-3-16.5,3.2c71.6-1.2,142.9,1.2,214.4,4.1
		c-36-60-74.5-119.1-108.1-180.7C1963.6,2035.7,1963.2,2033.1,1961.1,2033.8 M1721.3,2042.2c-13.6,1.9-8.3,27.2,3.7,16.1
		c-7.4-7.5,2.6-11.8,3.9-0.2c0.4,33.8-21.5,62.5-40.8,88.4c-6.2,5.7-13.7,16.9-22.9,8.9c2-3.3,9.4,2.7,9.8-5.1
		c-3.2-13.7-21.8-2.2-16.3,8.3c5.1,11,20.4,8.4,27.4,0.9c25.1-27.3,49.1-60.9,50.6-99.1C1736.9,2052,1731.4,2039.8,1721.3,2042.2
		 M1951.3,2042c-11.5,4-11.7,18.8-10.6,29c7,32.8,25.7,62.1,48.3,86.5c5.9,6.7,16.8,11.9,24.9,6c9.7-4.2,4.4-20.2-5.3-19.7
		c-4,1.1-8.8,5.9-4.7,9.7c1.3,4.6,7.3-2.8,8.1,1.8c-2.9,3.3-8.4,3.7-12.1,1.3c-12.6-10-20.6-24.1-30.4-36.7
		c-10.3-20.4-26.1-42.7-19.8-66.5c-0.1-5.8,10-2.3,4.2,1c-5.6,5.2,5.4,9.9,8.4,4.4C1968.3,2051.6,1959.9,2040.2,1951.3,2042
		 M1755.3,2050.9c0.3,38.4-21.4,72.9-43.2,102.6c6.5-2.4,4.2-1.6,2.2,3.2c36.9-7.3,77.2-3.9,110.8,12.6c-1.1-26.3-1.2-52.7,0.2-79
		C1801.3,2078.4,1778.8,2062,1755.3,2050.9 M1919.6,2050.8c-22,13.9-44.4,27-67.5,39.2c2.2,26.3-0.4,54.2,0.8,79.4
		c33.2-17.6,73.4-19.8,110-12.8c1.3-2.1-5.5-5.6-1.7-4.5c8.3,3.5-1.2-6.6-3.6-9.2c-18.8-26.8-36.2-58.1-35.7-91.8
		C1921.4,2051,1920.2,2050.8,1919.6,2050.8 M1743.5,2157.9c-14.3,1.4-31.2,1.2-43.3,9c36-1.3,80-7.3,113.4,14
		c10,6.3,2.4,23.5,11.6,27.9c0.3-12.1,5.3-32.9-10.2-38.3C1792.8,2160.1,1767.8,2156.3,1743.5,2157.9 M1913.6,2158
		c-20.2,1.7-41.2,5.4-58.4,16.7c-5.5,10-4.4,23.2-3.3,34.1c9.1-4.5,1.9-21.8,12-28.4c32.2-19.3,72.1-16.5,108.1-12.8
		c9.1,2.3,3.2-3.6-0.3-4.2C1952.8,2158.9,1933.2,2156.5,1913.6,2158 M1735.6,2168.9c-14.4,2-29.1,2.7-43,7
		c-7.3,3.6-15.1,11.6-11.8,20.5c1.8,10.7,22.9,8.5,19-3.4c-0.2-6.1-12.1-5.2-9,2.1c-6.3,0.5-0.7-10.6,3.9-11.2
		c29.2-9.1,60.7-8.7,90.6-3.7c8.7,3.7,20.4,5,23.8,15.4c0.4,4.1-4.9,3-4.5-0.6c-2.5-6.9-11,2-7.6,6.4c3.8,8.8,19.2,5.9,20.2-3.3
		c1.1-7.6-4.8-13.4-10.3-17.5C1785.4,2168.6,1759.5,2168.3,1735.6,2168.9 M1923.7,2169c-19.8,1.3-42.5,1.9-58.1,15.8
		c-7.7,5.7-7.7,21,3.9,21.6c8.1,2.9,16-8.8,8-13.5c-5.6-3.9-4.5,9.3-9.2,4.2c0.8-11.1,14.5-12.9,22.8-16.8
		c26.2-6.1,53.5-3.8,79.8,0.2c7.7,1.4,19.9,4.1,18.1,14.8c-5.9,0.9-0.9-11.4-10.1-5.4c-8.5,10.8,10.3,18.3,16.2,9.4
		c6.7-11.4-5.6-23.9-16.7-25.3C1960.4,2170.8,1942,2167.2,1923.7,2169 M1838.1,2171.7c-13.6,6.2-8.1,21.7-8.5,33.4
		c13.1,0.9-3.9-22.4,9.4-26.8c6.4,6.5,5.6,15.5,3.4,23.5c-2,3.7,7,5.5,5.5,0.9C1847.6,2191.6,1851.6,2175.4,1838.1,2171.7
		 M1837.4,2209.6C1829.5,2217.3,1849.8,2210.9,1837.4,2209.6z"/>
	<path id="path6696" d="M1838.2,1826.8c7.8,12.5,16.1,26.7,22.7,40.5c2.1,3.8-0.4,12.5-5.9,9.3c-8.9-4.8-10.2-17.1-16.9-24
		c-6,8.2-7.8,21.2-18.3,24.8c-4.1-0.4-5-6.3-3.9-9.5C1822.2,1853.6,1831.3,1840.8,1838.2,1826.8 M1838.2,1834.8
		c-5.3,10.6-10.7,21.2-16.1,31.6c8.8-3.8,9.6-16.8,16.8-21.9c6.3,6.2,7.6,18.1,16.1,21.9C1849.3,1856.2,1844.6,1844.1,1838.2,1834.8
		z"/>
	<path id="path6698" d="M1836.2,1973.9c8.2-2.6,8.6,8.5,11.2,13.8c7.4,13.5,18.2,24.8,29.5,35.1c3.7,3.8-2.2,7.6-5.4,9
		c-10.6,7.3-22.1,12.9-33.2,19.3c-10.6-6.8-22.2-12-32.5-19.3c-3.6-1.3-9.5-5.9-4.9-9.5C1816.4,2009.2,1828.7,1992.3,1836.2,1973.9
		 M1837.1,1984c-4.9,4.1-4.9,11.3,1.1,14.4C1846.2,1996.9,1844.8,1983.1,1837.1,1984 M1829.3,1996.8c-6,10.9-16.7,18.5-23.1,28.6
		c7,5.2,15.1,8.7,22.1,13.9c14.6,14.8,28.8-9.5,42.7-13.9c-6.9-9.8-16.9-17.9-23.1-28.6c-4.2,2.4-5,8.9-9.7,10.5
		C1834.3,2004.7,1833.2,1999.4,1829.3,1996.8z"/>
	<path id="path6700" d="M1770.5,2075.8c14.8,3.2,27.6,14.4,41,21.5c-0.8,15.5,4,33.8-2.6,48.2c-20-6.8-41.6-10.9-62.4-7
		c-5.7-4.6,0.8-10.8,4.2-14.4C1762,2110.4,1762.8,2090.2,1770.5,2075.8 M1773.5,2082.7c-5.6,10.6-7.3,23.6-13.5,34.4
		c4.3,0.5,8.7,0.5,13,1.1c5,4.9-10.6,16.1,1.4,15c10.8-0.4,20.8,5.5,31.4,5c1.1-8.3-0.1-16.8,1.1-25.1
		C1812.5,2092.4,1784.5,2092,1773.5,2082.7 M1759.4,2121.8c-4.4,1-9.5,10.8-2.3,10.8C1766.5,2136.5,1769.9,2119.5,1759.4,2121.8z"/>
	<path id="path6702" d="M1904.5,2075.8c7.4-0.6,5.1,9.9,6.9,14.3c5.7,13.5,8.6,28.9,19.7,39.4c4.2,3.2,1,11.6-4.9,9
		c-19.4-4.5-39.4,0.8-57.9,7c-6.7-14.2-1.3-32-3-47.6C1877.6,2089.8,1890.9,2081.7,1904.5,2075.8 M1902.9,2082.8
		c-10.3,6.6-22.5,10-32,17.6c-2,12.2,1.4,25.2,0.3,37.6c12.2-0.4,24.1-6,36.8-5.3c-0.9-4.8-5-8.6-4.7-13.6
		c3.5-2.9,11.4,0.1,13.7-2.7C1910.6,2106.2,1909.6,2091.2,1902.9,2082.8 M1916.3,2121.8c-8.4-0.9-5.2,12.8,1.8,10.7
		C1928.3,2134.9,1922.7,2120.8,1916.3,2121.8z"/>
	<path id="path6704" d="M1646.7,2166.9c15.7,2.2-5.3,21.8-5.6,29.7c9.7,2,21.1-2.6,29.6,3.6c2.2,4.2-3,8.4-6.8,8.5
		c-15.1,2-30.4,0.2-45.6,1C1627.8,2195.9,1632,2176,1646.7,2166.9 M1643.5,2175.9c-5.5,10-14.1,19-18.2,29.8
		c11.7-0.8,23.7-0.6,35.2-1.8c-8-5.5-19.2,0-27.4-3.4C1634.9,2192.4,1645.2,2183.1,1643.5,2175.9z"/>
	<path id="path6706" d="M2026.6,2166.7c6.2-1.1,10.6,4.3,13.3,9c6.1,11.6,14.2,22.1,18.9,34.3c-13.8-1.1-27.6-0.1-41.4-0.7
		c-4.6,0.2-13.5-3-10.9-9.2c8.7-6.3,20.3-1.4,30.2-3.5C2034.6,2186.7,2020.6,2176.9,2026.6,2166.7 M2033,2175.5
		c0.6,9.4,8.9,16.3,10.9,24.8c-7.5,3.9-19.4-1.9-27.2,3.4c11.4,1.4,23.6,0.9,35.3,2C2047.3,2195.1,2039.5,2185,2033,2175.5z"/>
</g>
<g id="g6708" transform="matrix(0.42643926,0,0,0.42643926,-480.29788,-719.19405)">
	<path id="path6710" d="M1699.2,1693.4h71.7c66.6,3.8,132.9-4.9,198.6,2.8v2.7c-64,115.6-131.3,229.8-197.5,344.1
		c-10.3,21.1-24.7,40.1-36.6,60.5h-0.9c-34.4-53.2-64.2-109.1-96.2-163.9c-27.5-41.4-48.4-87-74.9-129.1
		c-20.8-37.3-43.4-73.5-62.9-111.6v-2.7 M1712.1,1700.9c-66.6,3.2-133.1,1.2-199.5,2.3c33.5,62,71.5,122.7,103.9,186.2
		c41,64.3,76.6,130.9,116.8,195.2c0.2,5.1,3.8,3.5,3.6-0.8c32.6-50.9,61.6-104.2,92.6-156.4c14.3-19.5,26.9-40.5,36.1-62.9
		c31.2-53.8,61.6-107.6,91.7-161.3C1875.9,1703.2,1794,1701.8,1712.1,1700.9z"/>
	<path id="path6712" d="M1717.2,1703.8c8.5-2.8,16.7,4.3,24.9,0c16-6.9,34.8,17.2,18.3,27.5c27.2,7.3,58,6.4,85.9,0.9
		c-13.8-20.9,21.9-32.8,29.9-13.3c9,30.2-30.6,37.1-43.3,56.5c20.1-2.5,36.3-18.8,56.8-18.2c13.3,2.8,22,18.6,12.5,29.9
		c-4.2,11.2-20.8,7.8-24.8-1.8c-19.2,19.4-32,45.3-42.6,70.5c-0.8,1.4-0.5,3.3,0.5,4.5c10.4-6.6,21.6,4.7,20.6,15.8
		c-0.5,11.8-14.3,16.7-14.9,28.8c-4.2,15.4-30.3,17.3-31.9-0.2c-9.4,4.1-13.2,17.4-20.5,24.9c-8.1,16.2-19.4,31.3-23,49.3
		c11.7-2.5,22.3,12.3,13.1,21.9c-5,12.8-21.5,10.9-30.5,3.5c-11.8-17.7-4.8-42.1-13.9-59.9c-7.1,19.2-2.5,40.4-12,58.9
		c-8.7,8.3-26.2,10.8-31.5-2.5c-9.1-9.6,1.5-24.4,13.2-21.9c-7.2-25.7-21.9-49.1-38.1-70.1c-1.3-1.5-4.8-6.9-5.7-2.6
		c-1.7,11.5-17,14.3-25,7.3c-9-6.3-6.8-19.8-16.5-25.5c-10.4-10.8-2.7-32.9,13.1-29.5c1.3,2.6,4.1,1.7,3.6-1.2
		c-9.6-25.2-23.2-48.9-40.2-69.8c-3.5-5.3-5.3,2.6-8.4,4.4c-17.1,11.5-32.6-19.7-16.2-29.4c21.6-16.7,45,13.4,66.6,12.2
		c-10.9-13.9-29.1-19.1-39.6-33.3c-11.7-9.5-4.1-34,12.2-32c13.6-3.8,20.3,13,13.7,23c28.1,4.5,58.9,7.3,86.1-1
		C1696.6,1723.6,1704.9,1705.9,1717.2,1703.8 M1718.1,1708.8c-7.9,0.8-13.3,12.2-6.3,17.5c3.7,5,15-4.5,6.4-5.6
		c-3.5-5.7,10.2-6.5,9.4-0.3c-1.9,13.2-17.9,15.8-28.4,18.5c-28.7,5.2-60,4.4-87.4-5.7c-11.4-5.2,3.5-17.5,1-5.2
		c8,5.3,13-11.5,2.7-12.7c-15.3-6.8-22.3,14.9-11.1,23.3c29,15.2,63,12.8,94.5,8.9c13.7-2.8,30.7-6.9,35.8-21.8
		C1738,1715.7,1727.7,1706.3,1718.1,1708.8 M1746.1,1708.8c-11,1-14.3,15.8-7.3,23.3c10.5,12.4,27.6,15.3,43,17
		c27,1.7,55.7,3.5,80.7-8.8c7.2-2.4,10.5-12,8.2-18.7c-2.6-10.8-22.5-9.2-22.1,2.5c1.1,5.9,12.4,7.1,8.2-0.7
		c8.1-4.7,7,10.1-0.2,11.1c-30.9,9.3-64.6,10.3-95.9,1.8c-7.9-2.5-17.1-6.6-18.1-15.9c-0.9-6.2,12.9-5.4,9.4,0.3
		c-9,1.3,3.6,11,6.9,5C1766.9,1718.2,1755.4,1705.3,1746.1,1708.8 M1734.7,1735.6c-9.8,11.7-25.9,14.5-40.2,16.8
		c-25.3,2.8-50.9,3.4-75.9-2c6.5,8.9,22,9.7,32.9,9c28-1.1,60.5,1.6,83.8-16.7c16.8,14.6,40.3,15,61.3,16.7
		c17.8-1.6,40.6,4.7,54.7-8.1C1815.3,1753.7,1766.2,1762.1,1734.7,1735.6 M1734.7,1749.7c-29.7,17.2-66,15.2-98.9,13.6
		c1.4,7.4,11.9,11.4,13.3,19.3c-7.8,0.6-14.8-2.8-22.4-3.1c16.5,28.6,36.9,58.8,37,93.1c29.2,17.6,46.7,50,61.9,79.7
		c4.4-5.7,4.1-16.5,9.7-21.7c4.5,6.4,4.9,15.7,9,21.7c15.6-29.5,32.2-62.2,61.9-79.4c0.2-34,19.9-64.5,37-92.6
		c-5.8-1.8-15.1,4.2-22.4,2.4c1.6-7.9,11.5-11.9,13.5-19.3C1801.1,1764.9,1764.7,1766.4,1734.7,1749.7 M1580.5,1764.9
		c-8.7,0.2-15.1,10.7-9.2,18.2c3,8.7,19.5,6.8,15-4.1c-2.6-4.8-6.3,4.3-8.6,0c-1.6-8.2,11.4-6,14.8-1.6c19.8,20.5,35.8,44.8,44.8,72
		c2.8,10.2,6.9,23.9-2.3,31.9c-8.1,4.9-10-13.7-2.3-6.1c7.6-2.9-0.8-15.5-7.7-10.4c-14.2,7.1-0.2,29.7,12.5,22.6
		c10.6-3.4,11.4-15.6,11.5-24.9c-5.2-28.6-20.6-54.2-37.1-77.6C1602.5,1777.2,1594.3,1763.4,1580.5,1764.9 M1882.9,1764.9
		c-32.8,18.7-49.9,56.8-60.7,91.6c-2.7,11.8-1.3,29,13.1,32c13.5,3.1,22.9-20.5,7.6-24.4c-8.9-4.2-11.3,15.9-3,9.3
		c6.2-0.5,0.4,12.2-4.7,7.9c-9.7-8-5.2-22.2-2.1-32.5c7.7-24.7,22.2-46.5,39.2-65.7c4.2-6.1,12.2-12.5,19.8-8
		c2.7,5.1-2.9,6.4-5.6,2.5c-8.2,2.7,0.5,17,8.1,10C1907.9,1779.7,1897.2,1760.1,1882.9,1764.9 M1606.5,1771.4c6.4,10,16,17.8,21,29
		c12.9,25.2,30.9,51.5,24.2,79.9c13.1,2.1,22.8,12.2,31,21.9c16.7,21.5,31.5,45.1,40,71c4.1-4.9-0.1-16.8-3.2-22.8
		c-16.5-27.4-30.6-60.6-61.8-74.1c4.1-24.2-9.1-46.1-19.2-66.9C1628.8,1796.2,1624.3,1776.3,1606.5,1771.4 M1861.9,1771.8
		c-7.5,2.7-13,8.3-17.1,14.9c-14.9,27.9-36.9,56.3-32.5,89.7c-21.5,8.2-34.1,28.5-46.2,46.7c-8.2,15.8-22.2,31.1-20.2,50.1
		c3.7,0.5,3.2-5.8,4.7-7.6c3.1-13.9,11.6-25.4,18.4-37.6c13.1-18.2,25.3-42.2,49.2-47.6c-4.9-17.1,1.4-32.8,8.2-48.9
		c9.9-19.9,19.4-40.8,35.4-56.7C1863.1,1773.9,1864.6,1770.5,1861.9,1771.8 M1646.4,1884.9c-16.4-0.3-17.9,25.1-2.3,26.9
		c11.6,4.9,15.5-15.9,2.9-13.9c1.5,4.2-2.5,9.9-5.4,3.2c-5.2-10.8,12.1-9.4,16.7-4.5c25.6,19.7,40.2,49.2,50.5,78.6
		c3.3,6.4,5,19.1-4.1,21c-2.7-0.9-4.3-4.7-0.4-5.1c7.3-2.8-5.1-10.8-7.5-5.4c-9.2,8.8,5,25.8,15.5,17c13.9-9.8,3.8-27.6,1.9-40.9
		c-8.8-19.6-20.1-38.5-33.3-55.6C1671.7,1896.1,1661.3,1884.4,1646.4,1884.9 M1820.5,1884.9c-16.9,2-27,16.5-37.1,28.3
		c-13.8,20.9-28.7,42.7-31.9,68.2c-4,9.3,1.9,23.4,13,22.9c10,1.2,16.6-14.6,7.5-20.4c-3.6-1.5-12.7,4.3-6.1,7
		c5.8,1-0.7,7.8-3.7,3.8c-6.2-6.1-2.7-16.5,0.6-23.2c6.5-18.8,14.9-36.3,26.7-52.3c9.7-10.6,19.8-27.9,36.2-26
		c8.4-0.4,1.2,16.1-2.9,8.8c3.4-8.8-11.1-2.2-7.8,3.7c2.3,9.4,15.3,7.6,19.6,0.6C1842.1,1896.6,1831.9,1883.1,1820.5,1884.9
		L1820.5,1884.9z"/>
	<path id="path6714" d="M1523.8,1709.3c21.2,0.5,42.7-1.2,63.7,1.9c5.5,1.8,1.8,9.3-2.6,9.9c-13.2,0.3-26,1.8-39.2,1
		c6,11.2,11.7,22.4,17.8,33.5c4.2,4.8-3.5,13.6-7.8,7.8C1544.3,1746.1,1532,1727.9,1523.8,1709.3 M1531.6,1714.1
		c5.3,11.3,12.9,21.5,18.5,32.7c0.2,1.6,3.3,2.3,2,0c-4.6-8.7-8.6-18-11.3-27.4c8.1-1.3,16.3-2.9,24.6-3c4,3.8,11.2-6.2,1.2-2.2
		C1554.9,1714.5,1543.3,1714.6,1531.6,1714.1z"/>
	<path id="path6716" d="M1898.9,1709.8c15.8-1,31.7-0.2,47.5-0.5c-8.8,18.4-20.2,36.3-31.4,53.5c-3.7,5.8-11.5-0.2-9.1-5.9
		c6.1-10.8,10.9-22.1,17.6-32.6c-6.5-9.5-39.3,7.8-43.9-10.7C1884.2,1707.9,1892.7,1711.5,1898.9,1709.8 M1898.6,1714.2
		c7,4.7,21.1,2.6,30.6,5.2c-2.8,10.1-7.5,19.5-11.6,28.9c8.2-9.2,14.2-23.1,20.8-34.2C1925.1,1714.6,1911.9,1714.4,1898.6,1714.2
		L1898.6,1714.2z"/>
	<path id="path6718" d="M1729.8,1768.6c4.3,18.4,0.8,41.9,2.2,62.1c-18.5,8.5-34.7,21.2-53.4,28.6c0-21-8.1-43.3-20.9-60.7
		c2.2-5.6,10.2-0.9,13.7-4c-1.1-3.9-7.7-9.2-3.6-13C1688.9,1783,1712.4,1781.8,1729.8,1768.6 M1724.7,1777.6
		c-11.8,5.1-24.5,7.1-37.1,8.9c1.3,8.7,9,15,9.6,24c-8.3,1.8-16.7,0.7-24.9,2.4c3.1,12.8,9.4,24.7,10.4,38
		c16.3-3.2,29.6-17.3,45.6-22.7C1724.3,1812.8,1732.3,1789.5,1724.7,1777.6 M1674.9,1786.6c-3.7,4.1,3.9,9.2,4.4,13.7
		c-4.4-0.1-11.3-2.3-13.7,2.1c3.4,10.9,17,3.1,24.7,4.2C1685.8,1800,1686.7,1784.3,1674.9,1786.6z"/>
	<path id="path6720" d="M1739.4,1768.3c17.9,13.1,41.6,14.7,62.8,13.3c6.1,4.6-11.1,15.4,1.2,13.9c3.2,0,10.4,0,8.1,5.1
		c-13.3,16.3-20,38.6-20.2,58.8c-18.6-7.5-35.2-20.2-53.3-28.8C1738.6,1810,1737.2,1788.9,1739.4,1768.3 M1743.7,1777.4
		c-3.5,16.5,0.7,34.1-2.1,50.8c16.1,5.4,29.3,19.2,45.7,22.9c0.8-13.5,7.5-25.4,10.4-38.2c-8.2-1.6-16.6-0.6-24.9-2.3
		c0.7-9,8.3-15.3,9.6-23.9C1769.4,1784,1756.1,1782.4,1743.7,1777.4 M1791,1786.8c-8,1.8-7.1,14.1-11.3,19.7
		c8-0.3,21.2,6.3,24.7-4.2c-2.4-4.3-9.3-2.2-13.7-2C1791.4,1797,1802.5,1784.2,1791,1786.8L1791,1786.8z"/>
	<path id="path6722" d="M1734.7,1834.8c16.8,11.9,37,19.7,52.9,32.6c-18.2,9.3-33.5,27-41.1,45.8c-5,6.3-9.2-4.9-11-8.8
		c-3.3,2.3-4.8,13.6-10.9,10c-8.1-18.1-21.5-36.1-39.6-45.5c-6-1.8,2.2-5.7,4.6-6.7C1704.1,1852.2,1720.3,1845.6,1734.7,1834.8
		 M1734.7,1839.6c-12.6,10.9-30,15.7-41.9,27c8.8,8.6,18.7,18.6,26.8,28.8c6.2-5.8,9.2-13.8,15.2-19.7c6.7,4.7,9.4,14,15.8,19.7
		c8.1-10.2,18-20.2,26.8-28.8C1765.1,1855.5,1747.7,1849.7,1734.7,1839.6 M1734.8,1883.8c-3.1,7.3-16.8,13.9-9.1,22.4
		c5.3,3.7,5.9-8.2,9.7-9.8c2.6,3.3,3.4,10.1,7.8,10.7C1753.1,1899.3,1738.7,1889.9,1734.8,1883.8z"/>
	<path id="path6724" d="M1706,2015.6c15.3,1.1,19.2,24,28.8,34.4c9.8-8.9,14.1-35,30.1-34c-2.8,21.8-20.5,40.4-29.6,61
		c-8.3-12.6-15.6-27.9-24.1-41.2C1711.4,2028.7,1700.1,2022.3,1706,2015.6 M1715.7,2032.5c5.5,11.6,12.8,22.6,18.9,33.9
		c7.3-10.4,14-22.5,19.8-34c-6.6,6.7-13.1,16.2-19,24.6C1728.6,2049.9,1722.6,2038.8,1715.7,2032.5L1715.7,2032.5z"/>
</g>
</svg>
