<?xml version="1.0" encoding="utf-8"?>
<!-- Generator: Adobe Illustrator 28.0.0, SVG Export Plug-In . SVG Version: 6.00 Build 0)  -->
<svg version="1.0" id="Layer_1" xmlns="http://www.w3.org/2000/svg" xmlns:xlink="http://www.w3.org/1999/xlink" x="0px" y="0px"
	 viewBox="0 0 990 360" style="enable-background:new 0 0 990 360;" xml:space="preserve">
<g id="g5602" transform="matrix(0.40241451,0,0,-0.40241451,-640.29789,234.03241)">
	<path id="path5604" d="M3966.3-64.2v0.9c-57.2,28.6-112.6,61.5-168.6,92.1c-57.9,30.1-112,66.5-168.9,98.4
		c-30.2,20.2-62.9,36.5-92.6,57.5l-0.9,0l0-14.3c5.4-156,6-312.3,0-468.3l0-14.3l0.9,0c29.7,21,62.4,37.4,92.6,57.5
		c56.9,31.9,111,68.3,168.9,98.4C3853.7-125.7,3909.1-92.8,3966.3-64.2 M3949.3-64.1c-63.5-32.8-125.9-67.9-187.9-103.1
		c1.6,9.3,15.9,7.4,18.5,16.6c0.9,6.7-3.5,12.3-7.4,17.3c20.4,21,46.7,35.1,73.6,46c2.6-1.3,1.3-4.7,2.3-6.9c6-14.3,31-6.8,30.1,7.9
		c-0.2,13.2-13.8,21.8-26,22.1c10.3,3.3,23.7,7.3,26,20.2c3.6,15.7-21.6,25.6-29.5,12.1c-2.3-2.3,0.5-6.8-2.9-8
		c-26.8,10.4-53.2,25-73.6,45.8c4.4,4.9,8.8,11,7.2,18c-3.1,8.6-16.8,6.6-18.2,15.9C3823.1,4,3887.2-30.1,3949.3-64.1 M3872.9-87.4
		c0.4-13.1-25.7-10.3-16.7,2.1c4.2,6.3,6.8-6.2,8.9-1.1c-2,9.1-13.6,5.6-19.9,4.2c-31.4-12.1-65.2-27-83.5-56.7
		c-4.7-3.5,2.9-15.9,3.2-6.9c-2.1,7.7,9.2,6,9.4,0.2c2.7-12.4-19.2-16.3-20.9-3.5c-2.4,11.8,5.7,23,14.1,30.7
		c19.7,19.2,44.4,32.6,70.3,41.7C3849.5-70.3,3872.5-69.1,3872.9-87.4 M3872.9-41.1c0-12.9-15.3-15.8-25.1-13.2
		c-26.8,8.3-52.7,21-74.2,39.4C3763.2-6,3751.2,6,3753,20.8c0.9,11.7,19.5,11.2,21.1,0.7c2.1-4.3-3.8-10.8-8-8.2
		c-3.4,2,1.4,8.5-3.6,8.3c-3.3-3.9-1.5-9.7,1.1-13.6c12.7-19.6,33.8-31.6,54.1-42c14.2-5,27.9-15.7,43.5-12.5
		c4.2,0.3,5.2,10.4,1.1,5.3c-1.3-6.1-10.7-0.1-7.6,4.3C3856.3-26.5,3874.4-31.2,3872.9-41.1 M3840.9-68.8
		c-33.1-15.9-69.8-32.4-89.7-65c-4.5-9.7,0.3-20.8,5.1-29.5c-0.6-4.8-5.2-2.4-6.1,1c-4.1,9.6-14.5,19.8-8.8,30.9
		c20.9,31.6,55.1,52,90.7,63.2C3834.4-67.6,3840.7-66.3,3840.9-68.8 M3841.2-59.4c-7.5-2.2-14.5,2.5-21.6,4.4
		c-30.7,11.9-59.9,31-78.3,58.9c-5.3,11.7,4.9,22.9,10.1,32.9c1.1,4.8,7.2-0.5,3.8-2.9c-5.1-7.7-7.7-18.1-4.4-26.9
		C3770.4-26.5,3808.5-42.5,3841.2-59.4 M3823.3-66c-34.6-12.9-68.9-35.1-88.9-66.3c-13.4,22.7-25.3,46-39.7,68.3
		c14.1,22.6,26.3,46.1,39.7,68.8c20.2-31.2,54.3-53.2,88.9-66.2C3819.8-64.9,3819.8-62.6,3823.3-66 M3748.1-165.3
		c-10.9-7.1-7.8,20.9-21.4,17.3c-1.6-7.8,2-16.1,8.3-20.7c3.3-1.9-0.4-6.8-3.4-5.4c-4.3,10.9-16.9,19.9-8.8,32.4
		C3738.6-137.8,3741-155.9,3748.1-165.3 M3747.8,37.5c-6.3-7.8-7.6-22.9-19.9-23.3c-7.5-2.8-6.5,7-8.3,11.5
		c2.5,7.1,9,12.2,11.2,19.5c1.3,4.1,7.8-1.1,4.7-3.6c-6.4-5-11.4-13.7-8.3-21.8C3740.6,18.6,3737.5,45,3747.8,37.5 M3747.6-176.1
		C3737.4-184.4,3742.3-167.7,3747.6-176.1 M3747,47.2C3737.6,42.8,3743.7,57.2,3747,47.2 M3730.2-179.8c-0.1-1.6-2.8-1.1-4.1-1
		c-4.5,9.8-13.7,20.1-25.4,19.1c-37.6-2.1-69.5-25-99.5-45.5c1.3,8.8,10.6,11.2,15.5,17.5c26.8,21.2,59.6,38.5,94.6,37.2
		C3720.5-158.6,3726-170.1,3730.2-179.8 M3730.2-135.2c-8.3,2.2-11.5-2.6-15.1-8.9c-13.3,22.4-28.1,46.9-42,70
		c-27.1,0.3-54.6,1.9-81.8,0.9c-0.5,3.7,3.1,6.1,4.7,9.1c-0.7,3.5-5.4,5.7-4.7,9.7c27.2-0.9,54.6,0.8,81.8,0.7
		c12.4,22.5,26.5,44,39.4,66.2c0.5,7,5.8,2.3,6.2-2.1c1.3-5.8,10.2,1.1,11.4-3.4c-13.6-20.7-23.2-44.1-37.1-64.8
		c-5.1-7,1.8-14.4,5.1-20.4C3710.3-96.4,3718.8-117.1,3730.2-135.2 M3729.9,50.1c-6.5-10.2-12-28.5-27.4-25.3
		c-32,2.3-61.1,17.9-85.8,37.3c-5.2,5.9-14,9-15.5,17.5c29.8-20.4,61.4-42.9,98.7-45.5c11.2-1.1,20.7,7.9,25.1,17.4
		C3725.5,55.1,3732.2,53.7,3729.9,50.1 M3727.1-187.8c-62.6-34.5-123-73.1-183.9-110.3c3.1,71.5,5.2,142.9,4.1,214.5
		c6.9-1,1.7-13.2,3.5-18c0.2-9.9,13.7-11,20.7-7.8c9.9-27.8,6.6-58.3,3.5-87.1c-3.3-2.9-6.9,4.4-10.9,0.8
		c-15.6-2.2-15.4-30.4,1-31.6c11.6-2.3,20.2,5.4,27.4,13c-4.9-10.6-5.3-24.6,4.6-32.5c11.5-9.5,31.7,6,24.5,19.4
		c-0.3,3.3-6.3,4-4.8,7.7c22.7,17.2,47.6,33.8,75.7,40.3c1.1-8.2,9.6-19.4,18.6-13.8C3716.7-192.9,3722.1-181.9,3727.1-187.8
		 M3727,58.7c-8.6-0.5-14.2,9.6-23.1,8.5c-7.2-2-9.6-9-11.6-15.3c-28.1,6.7-53,23-75.8,40.3c-1.5,3.7,4.5,4.3,4.8,7.7
		c7.3,13.4-13,28.9-24.5,19.4c-10-7.8-9.3-21.9-4.6-32.5c-8.2,10.4-25.4,19.4-36.6,8.1c-10.4-12.4,2.9-34.1,18.4-25.3
		c6-28,5.5-59.7-2.7-87.8c-7.6,4.1-21.7,1.4-21-9.3c-0.2-4.5,3-15.5-3.2-16.5c1.2,71.6-1.2,142.9-4.1,214.4
		c60-36,119.1-74.5,180.7-108.1C3725,61.3,3727.7,60.9,3727,58.7 M3718.6-181.1c-1.9-13.6-27.2-8.3-16.1,3.7
		c7.5-7.4,11.8,2.6,0.2,3.9c-33.8,0.4-62.5-21.5-88.4-40.8c-5.7-6.2-16.9-13.7-8.9-22.9c3.3,2-2.7,9.4,5.1,9.8
		c13.7-3.2,2.2-21.8-8.3-16.3c-11,5.1-8.4,20.4-0.9,27.4c27.3,25.1,60.9,49.1,99.1,50.6C3708.8-165.4,3721-171,3718.6-181.1
		 M3718.7,49c-4-11.5-18.7-11.7-29-10.6c-32.8,7-62.2,25.7-86.5,48.3c-6.7,5.9-11.9,16.8-6,24.9c4.2,9.7,20.2,4.4,19.7-5.3
		c-1.1-4.1-5.9-8.8-9.7-4.7c-4.6,1.3,2.8,7.3-1.8,8.1c-3.3-3-3.6-8.5-1.3-12.1c10-12.6,24.2-20.6,36.7-30.4
		c20.4-10.3,42.7-26.1,66.5-19.8c5.8-0.1,2.3,10-1,4.2c-5.2-5.6-9.9,5.4-4.4,8.4C3709.1,65.9,3720.5,57.6,3718.7,49 M3709.9-147.1
		c-38.4,0.3-72.9-21.4-102.6-43.2c2.4,6.5,1.6,4.2-3.2,2.2c7.3,36.9,3.9,77.2-12.7,110.8c26.3-1.1,52.7-1.1,79,0.2
		C3682.4-101,3698.8-123.6,3709.9-147.1 M3710,17.2c-13.9-22-27-44.4-39.2-67.5c-26.3,2.1-54.2-0.4-79.4,0.8
		c17.6,33.2,19.7,73.4,12.7,110c2.1,1.3,5.7-5.5,4.5-1.7c-3.5,8.3,6.6-1.2,9.2-3.6c26.8-18.8,58.1-36.2,91.9-35.7
		C3709.8,19,3709.9,17.8,3710,17.2 M3602.9-158.8c-1.4-14.3-1.2-31.2-9-43.3c1.3,36,7.3,80-14.1,113.4c-6.4,10-23.5,2.4-27.9,11.5
		c12.1,0.3,32.9,5.4,38.3-10.2C3600.7-109.6,3604.5-134.5,3602.9-158.8 M3602.8,11.3c-1.7-20.2-5.4-41.2-16.7-58.4
		c-10-5.5-23.2-4.4-34.1-3.3c4.5,9.1,21.8,1.9,28.4,12c19.3,32.3,16.5,72.1,12.8,108.1c-2.3,9.1,3.6,3.3,4.2-0.3
		C3601.9,50.5,3604.2,30.8,3602.8,11.3 M3591.9-166.7c-2-14.4-2.7-29.1-7-43c-3.6-7.3-11.6-15.1-20.5-11.8
		c-10.7,1.8-8.5,22.9,3.4,19c6.1-0.2,5.2-12.1-2.1-9.1c-0.5-6.3,10.6-0.7,11.2,3.9c9.1,29.2,8.7,60.7,3.7,90.6
		c-3.7,8.7-5,20.4-15.4,23.8c-4.1,0.4-3-4.9,0.6-4.5c6.9-2.5-2-11-6.4-7.6c-8.8,3.8-5.9,19.2,3.3,20.2c7.6,1.1,13.4-4.8,17.5-10.3
		C3592.1-116.9,3592.5-142.8,3591.9-166.7 M3591.7,21.3c-1.3-19.8-1.9-42.5-15.8-58.2c-5.7-7.7-21-7.7-21.7,3.9
		c-2.9,8.1,8.8,16,13.5,8c3.9-5.6-9.3-4.5-4.2-9.2c11.1,0.8,12.9,14.5,16.8,22.8c6.1,26.2,3.8,53.5-0.2,79.8
		c-1.4,7.7-4.1,19.9-14.8,18.1c-0.9-5.9,11.4-0.9,5.4-10.1c-10.8-8.5-18.3,10.3-9.4,16.2c11.4,6.7,23.9-5.6,25.3-16.7
		C3590,58.1,3593.5,39.7,3591.7,21.3 M3589.1-64.3c-6.2-13.6-21.7-8.1-33.4-8.5c-0.9,13.1,22.5-3.9,26.8,9.4
		C3576-57,3567-57.8,3559-60c-3.6-2-5.5,7-0.9,5.5C3569.2-54.8,3585.4-50.8,3589.1-64.3 M3551.2-64.9
		C3543.5-72.8,3549.9-52.5,3551.2-64.9z"/>
	<path id="path5606" d="M3934-64.1c-12.5,7.8-26.7,16.1-40.5,22.7c-3.8,2.1-12.5-0.4-9.3-5.9c4.8-8.9,17.1-10.2,24-16.9
		c-8.2-6-21.2-7.8-24.8-18.3c0.4-4.1,6.3-5,9.5-3.9C3907.2-80.1,3920-71,3934-64.1 M3926-64.1c-10.6-5.4-21.2-10.7-31.6-16.1
		c3.7,8.8,16.7,9.6,21.9,16.8c-6.3,6.3-18.1,7.6-21.9,16.1C3904.6-53,3916.7-57.7,3926-64.1z"/>
	<path id="path5608" d="M3786.8-66.2c2.6,8.2-8.5,8.6-13.8,11.1c-13.5,7.4-24.8,18.2-35.1,29.5c-3.8,3.7-7.6-2.2-9-5.4
		c-7.3-10.6-12.9-22.1-19.3-33.2c6.8-10.6,12-22.2,19.4-32.5c1.3-3.6,5.9-9.5,9.5-4.9C3751.6-86,3768.5-73.6,3786.8-66.2
		 M3776.8-65.2c-4.1-4.9-11.3-4.9-14.4,1.1C3763.9-56.1,3777.7-57.5,3776.8-65.2 M3764-73.1c-10.9-6-18.5-16.7-28.6-23.1
		c-5.2,7-8.7,15.1-13.9,22.1c-14.8,14.6,9.5,28.8,13.9,42.7c9.8-6.9,17.9-16.9,28.6-23.1c-2.4-4.2-8.9-5-10.5-9.7
		C3756.1-68,3761.4-69.1,3764-73.1z"/>
	<path id="path5610" d="M3685-131.9c-3.2,14.8-14.4,27.6-21.5,41c-15.5-0.8-33.8,4-48.2-2.6c6.8-20,10.9-41.6,7-62.4
		c4.6-5.7,10.8,0.8,14.4,4.2C3650.4-140.4,3670.6-139.5,3685-131.9 M3678.1-128.9c-10.6-5.6-23.6-7.3-34.4-13.5
		c-0.5,4.3-0.5,8.7-1.1,13c-4.9,5-16.1-10.6-15,1.4c0.4,10.8-5.6,20.8-5,31.4c8.3,1.1,16.8-0.1,25,1.1
		C3668.4-89.9,3668.8-117.9,3678.1-128.9 M3639-143c-1-4.5-10.8-9.6-10.8-2.3C3624.3-135.9,3641.3-132.5,3639-143z"/>
	<path id="path5612" d="M3685,2.1c0.6,7.4-9.9,5-14.4,6.9c-13.5,5.7-28.9,8.6-39.4,19.7c-3.2,4.2-11.7,1-9-4.9
		c4.5-19.4-0.8-39.4-7-57.9c14.2-6.7,32-1.3,47.6-3C3671-24.8,3679.1-11.5,3685,2.1 M3677.9,0.5c-6.6-10.3-10-22.5-17.6-32
		c-12.2-2-25.2,1.4-37.6,0.3c0.4,12.2,6,24.1,5.3,36.8c4.8-0.9,8.6-5,13.6-4.7c2.9,3.5-0.1,11.4,2.7,13.7
		C3654.6,8.2,3669.6,7.3,3677.9,0.5 M3638.9,13.9c0.9-8.4-12.7-5.2-10.7,1.8C3625.9,25.9,3640,20.4,3638.9,13.9z"/>
	<path id="path5614" d="M3593.9-255.7c-2.2,15.7-21.8-5.4-29.7-5.7c-2,9.7,2.6,21.1-3.6,29.6c-4.2,2.2-8.4-3-8.5-6.9
		c-2-15.1-0.2-30.4-1-45.6C3564.9-274.6,3584.8-270.4,3593.9-255.7 M3584.9-258.9c-10-5.5-19-14.1-29.8-18.2
		c0.8,11.7,0.6,23.7,1.8,35.3c5.5-8,0-19.2,3.4-27.4C3568.4-267.5,3577.7-257.2,3584.9-258.9z"/>
	<path id="path5616" d="M3594.1,124.2c1.1,6.2-4.3,10.6-9,13.3c-11.6,6.1-22.1,14.2-34.3,18.9c1.1-13.8,0.1-27.6,0.7-41.4
		c-0.2-4.6,3-13.5,9.2-10.9c6.3,8.7,1.4,20.3,3.5,30.2C3574.1,132.2,3583.9,118.2,3594.1,124.2 M3585.2,130.6
		c-9.4,0.6-16.3,8.9-24.8,10.9c-3.9-7.5,1.9-19.4-3.4-27.3c-1.4,11.4-1,23.6-2,35.3C3565.7,144.9,3575.8,137.1,3585.2,130.6z"/>
</g>
<g id="g5618" transform="matrix(0.42643926,0,0,-0.42643926,-480.29788,265.43186)">
	<path id="path5620" d="M3441.2,352.9l0,71.7c-3.8,66.6,4.9,132.9-2.8,198.6l-2.7,0c-115.6-64-229.8-131.3-344.1-197.5
		c-21.1-10.3-40.1-24.7-60.4-36.6v-0.9c53.2-34.4,109.1-64.2,163.9-96.2c41.4-27.5,87-48.4,129.1-74.9
		c37.3-20.8,73.5-43.4,111.6-62.9l2.7,0 M3433.7,365.8c-3.1-66.6-1.2-133.1-2.3-199.5c-62,33.5-122.7,71.4-186.2,103.8
		c-64.3,41-130.9,76.5-195.2,116.8c-5.2,0.2-3.5,3.8,0.8,3.6c50.9,32.6,104.2,61.6,156.4,92.7c19.5,14.3,40.5,27,62.9,36.1
		c53.8,31.2,107.5,61.7,161.3,91.7C3431.4,529.6,3432.9,447.7,3433.7,365.8z"/>
	<path id="path5622" d="M3430.9,370.9c2.8,8.5-4.3,16.7,0,24.9c6.9,16-17.2,34.8-27.5,18.3c-7.3,27.2-6.4,58-1,85.9
		c20.9-13.8,32.8,21.9,13.3,29.9c-30.2,9-37.1-30.6-56.5-43.3c2.5,20.1,18.8,36.3,18.2,56.8c-2.8,13.3-18.6,22-30,12.5
		c-11.2-4.2-7.8-20.9,1.8-24.8c-19.4-19.2-45.3-32-70.5-42.6c-1.4-0.8-3.3-0.5-4.5,0.5c6.6,10.4-4.7,21.6-15.8,20.6
		c-11.8-0.5-16.7-14.3-28.8-14.9c-15.4-4.2-17.3-30.3,0.2-31.9c-4.1-9.4-17.4-13.2-24.9-20.5c-16.2-8.1-31.3-19.4-49.3-23
		c2.5,11.7-12.3,22.3-21.9,13.1c-12.8-5-10.9-21.5-3.5-30.5c17.7-11.8,42.1-4.8,59.9-13.9c-19.2-7.1-40.4-2.5-58.9-12.1
		c-8.3-8.7-10.8-26.2,2.5-31.5c9.6-9.1,24.4,1.5,21.9,13.2c25.7-7.2,49.1-21.9,70.1-38.1c1.5-1.3,6.9-4.8,2.6-5.7
		c-11.5-1.7-14.3-17-7.3-25.1c6.3-9,19.8-6.8,25.5-16.5c10.8-10.4,32.9-2.6,29.5,13.1c-2.6,1.3-1.7,4.1,1.2,3.6
		c25.2-9.6,48.9-23.1,69.8-40.2c5.3-3.5-2.6-5.3-4.4-8.4c-11.5-17.1,19.7-32.6,29.4-16.2c16.7,21.6-13.4,45-12.2,66.5
		c13.9-10.8,19.1-29.1,33.3-39.6c9.5-11.7,34-4.1,32,12.2c3.8,13.6-13,20.3-23,13.7c-4.5,28.1-7.3,58.8,1,86.1
		C3411.1,350.3,3428.7,358.6,3430.9,370.9 M3425.8,371.8c-0.8-7.9-12.2-13.3-17.5-6.3c-5,3.7,4.5,15,5.6,6.4
		c5.7-3.5,6.5,10.2,0.3,9.4c-13.2-1.9-15.7-17.9-18.5-28.4c-5.2-28.7-4.4-60,5.7-87.4c5.2-11.4,17.5,3.6,5.2,1
		c-5.3,8,11.4,13,12.7,2.7c6.8-15.3-14.9-22.3-23.3-11.1c-15.2,29-12.8,63-8.9,94.4c2.8,13.7,6.8,30.7,21.8,35.8
		C3419,391.7,3428.4,381.4,3425.8,371.8 M3425.8,399.8c-1-11-15.8-14.3-23.3-7.4c-12.4,10.5-15.3,27.6-17,43
		c-1.7,27-3.5,55.7,8.8,80.7c2.4,7.2,12,10.5,18.7,8.2c10.9-2.6,9.2-22.5-2.5-22.1c-5.9,1.1-7.1,12.3,0.7,8.2
		c4.7,8.1-10.1,7-11.1-0.2c-9.3-30.9-10.3-64.6-1.8-95.9c2.5-7.9,6.6-17.1,15.9-18.1c6.2-0.9,5.4,12.9-0.3,9.4c-1.3-9-11,3.5-5,6.9
		C3416.5,420.6,3429.3,409,3425.8,399.8 M3399,388.4c-11.7-9.8-14.5-25.9-16.8-40.2c-2.8-25.3-3.4-50.9,2-75.9
		c-8.9,6.5-9.7,22-9,32.9c1.1,28-1.6,60.5,16.7,83.8c-14.6,16.8-15,40.3-16.7,61.3c1.6,17.8-4.7,40.5,8.1,54.7
		C3381,468.9,3372.6,419.9,3399,388.4 M3384.9,388.4c-17.2-29.7-15.2-66-13.6-98.9c-7.4,1.4-11.4,11.9-19.4,13.3
		c-0.6-7.8,2.8-14.8,3.1-22.4c-28.6,16.5-58.8,36.9-93.1,37c-17.6,29.2-50,46.7-79.7,61.9c5.7,4.4,16.5,4.1,21.7,9.7
		c-6.5,4.5-15.7,4.9-21.7,9c29.5,15.6,62.2,32.2,79.4,61.9c34,0.2,64.5,19.9,92.6,37c1.9-5.8-4.2-15.1-2.4-22.4
		c7.9,1.6,11.9,11.5,19.3,13.5C3369.7,454.8,3368.3,418.4,3384.9,388.4 M3369.7,234.2c-0.2-8.7-10.7-15.1-18.2-9.2
		c-8.7,3-6.8,19.5,4.1,15c4.8-2.6-4.3-6.3,0-8.6c8.2-1.6,6,11.4,1.6,14.8c-20.5,19.8-44.8,35.8-72,44.8c-10.2,2.8-23.9,6.9-31.9-2.3
		c-4.9-8.1,13.7-10,6.1-2.3c2.9,7.6,15.5-0.8,10.4-7.7c-7.1-14.3-29.7-0.2-22.6,12.4c3.4,10.6,15.6,11.4,24.9,11.5
		c28.6-5.2,54.2-20.6,77.6-37C3357.5,256.1,3371.3,248,3369.7,234.2 M3369.7,536.6c-18.7-32.8-56.8-49.9-91.6-60.7
		c-11.8-2.7-29-1.3-32,13.1c-3.1,13.5,20.5,22.9,24.4,7.6c4.2-8.9-15.9-11.3-9.3-3c0.5,6.2-12.2,0.4-7.9-4.7
		c8-9.7,22.2-5.2,32.5-2.1c24.7,7.7,46.4,22.2,65.7,39.2c6.1,4.2,12.5,12.3,8,19.8c-5.1,2.7-6.4-2.9-2.5-5.6c-2.7-8.2-17,0.5-10,8.1
		C3354.9,561.6,3374.5,550.8,3369.7,536.6 M3363.2,260.2c-10,6.4-17.8,16-29,21c-25.2,12.9-51.5,30.9-79.9,24.2
		c-2.1,13.1-12.2,22.8-21.9,31c-21.5,16.7-45.1,31.5-71,39.9c4.9,4.2,16.8-0.1,22.8-3.2c27.4-16.5,60.6-30.6,74.1-61.8
		c24.2,4.1,46.1-9.1,66.9-19.2C3338.5,282.5,3358.4,277.9,3363.2,260.2 M3362.9,515.6c-2.7-7.5-8.3-13-14.9-17.1
		c-27.9-14.9-56.3-36.9-89.6-32.5c-8.2-21.5-28.5-34.1-46.7-46.2c-15.8-8.3-31.1-22.2-50.1-20.2c-0.5,3.7,5.8,3.2,7.6,4.7
		c13.9,3.1,25.4,11.6,37.6,18.4c18.2,13.1,42.2,25.3,47.6,49.2c17.1-4.9,32.8,1.4,48.9,8.2c19.9,9.9,40.8,19.4,56.7,35.4
		C3360.7,516.8,3364.2,518.3,3362.9,515.6 M3249.7,300.1c0.3-16.4-25.1-17.9-26.9-2.3c-4.9,11.6,15.9,15.6,13.9,2.9
		c-4.2,1.5-9.9-2.5-3.2-5.4c10.8-5.2,9.4,12.1,4.5,16.7c-19.7,25.6-49.2,40.2-78.6,50.5c-6.4,3.3-19.1,5-21-4.1
		c1-2.7,4.7-4.3,5.1-0.4c2.8,7.3,10.8-5.1,5.4-7.5c-8.8-9.2-25.8,5-17,15.5c9.8,13.9,27.6,3.8,40.9,1.9c19.6-8.8,38.5-20,55.6-33.3
		C3238.6,325.3,3250.3,315,3249.7,300.1 M3249.7,474.2c-2-16.9-16.5-27-28.3-37.1c-20.9-13.8-42.7-28.7-68.2-31.9
		c-9.3-4-23.4,1.9-22.9,13c-1.2,10,14.6,16.6,20.4,7.5c1.5-3.6-4.3-12.7-7-6.1c-1,5.8-7.8-0.7-3.8-3.7c6.1-6.2,16.5-2.7,23.2,0.6
		c18.8,6.5,36.3,14.9,52.3,26.7c10.6,9.7,27.9,19.8,26,36.2c0.4,8.4-16.1,1.2-8.8-2.9c8.8,3.4,2.2-11.1-3.7-7.8
		c-9.4,2.3-7.6,15.3-0.6,19.6C3238,495.8,3251.5,485.5,3249.7,474.2L3249.7,474.2z"/>
	<path id="path5624" d="M3425.3,177.5c-0.5,21.2,1.2,42.7-1.9,63.7c-1.8,5.5-9.3,1.8-9.9-2.6c-0.3-13.2-1.8-26-1-39.2
		c-11.3,6-22.4,11.6-33.5,17.7c-4.8,4.2-13.6-3.5-7.8-7.9C3388.6,198,3406.7,185.7,3425.3,177.5 M3420.6,185.3
		c-11.3,5.3-21.5,12.9-32.7,18.5c-1.6,0.2-2.3,3.3,0,2c8.7-4.6,18-8.5,27.4-11.3c1.3,8.1,2.9,16.3,3,24.6c-3.8,4,6.2,11.2,2.2,1.2
		C3420.2,208.6,3420.1,196.9,3420.6,185.3z"/>
	<path id="path5626" d="M3424.8,552.6c1,15.8,0.2,31.7,0.5,47.5c-18.4-8.8-36.3-20.2-53.5-31.4c-5.8-3.7,0.3-11.5,5.9-9.1
		c10.8,6.1,22.1,10.9,32.6,17.6c9.5-6.5-7.8-39.3,10.7-43.9C3426.7,537.8,3423.1,546.4,3424.8,552.6 M3420.4,552.3
		c-4.7,7-2.6,21.1-5.2,30.6c-10-2.8-19.5-7.5-28.9-11.6c9.2,8.2,23.1,14.3,34.2,20.8C3420,578.8,3420.2,565.5,3420.4,552.3
		L3420.4,552.3z"/>
	<path id="path5628" d="M3366,383.5c-18.4,4.3-41.9,0.8-62.1,2.2c-8.5-18.5-21.1-34.7-28.6-53.4c21,0,43.3-8.1,60.7-20.9
		c5.6,2.2,0.9,10.2,4,13.7c3.9-1.1,9.2-7.7,13-3.6C3351.6,342.6,3352.9,366.1,3366,383.5 M3357,378.4c-5.1-11.8-7-24.5-8.9-37.1
		c-8.7,1.3-15,9-24,9.6c-1.8-8.3-0.7-16.7-2.4-24.9c-12.8,3.1-24.7,9.4-38,10.4c3.2,16.3,17.3,29.6,22.7,45.6
		C3321.8,378,3345.1,386,3357,378.4 M3348,328.6c-4.1-3.7-9.2,3.9-13.7,4.4c0.1-4.4,2.3-11.3-2.1-13.7c-10.9,3.4-3.1,17-4.2,24.7
		C3334.6,339.5,3350.4,340.4,3348,328.6z"/>
	<path id="path5630" d="M3366.4,393.1c-13.1,17.9-14.7,41.6-13.3,62.8c-4.6,6.1-15.4-11.1-13.9,1.2c0,3.2,0,10.4-5.1,8.1
		c-16.3-13.3-38.6-20-58.8-20.3c7.5-18.6,20.2-35.2,28.8-53.3C3324.6,392.2,3345.8,390.9,3366.4,393.1 M3357.3,397.4
		c-16.5-3.5-34.1,0.7-50.8-2.1c-5.4,16.1-19.2,29.3-22.9,45.6c13.5,0.8,25.4,7.5,38.2,10.4c1.6-8.2,0.6-16.6,2.4-24.9
		c9,0.7,15.3,8.3,23.9,9.6C3350.6,423.1,3352.2,409.7,3357.3,397.4 M3347.8,444.7c-1.8-8-14.1-7.1-19.7-11.3
		c0.3,8-6.3,21.2,4.2,24.7c4.3-2.4,2.2-9.3,2-13.7C3337.6,445,3350.5,456.1,3347.8,444.7L3347.8,444.7z"/>
	<path id="path5632" d="M3299.8,388.3c-11.9,16.8-19.7,37-32.6,52.9c-9.3-18.2-27-33.5-45.8-41.1c-6.3-5,4.9-9.2,8.8-11
		c-2.3-3.3-13.6-4.8-10-10.9c18.1-8.1,36.1-21.5,45.5-39.6c1.8-6,5.7,2.2,6.7,4.6C3282.4,357.8,3289.1,374,3299.8,388.3 M3295,388.3
		c-10.9-12.6-15.7-30-27-41.9c-8.6,8.8-18.6,18.7-28.8,26.8c5.8,6.2,13.8,9.2,19.7,15.2c-4.7,6.7-14,9.4-19.7,15.8
		c10.2,8.1,20.2,18,28.8,26.8C3279.1,418.8,3284.9,401.4,3295,388.3 M3250.8,388.4c-7.3-3.1-13.9-16.8-22.4-9.1
		c-3.7,5.3,8.2,6,9.8,9.7c-3.3,2.6-10.1,3.4-10.7,7.8C3235.3,406.8,3244.7,392.3,3250.8,388.4z"/>
	<path id="path5634" d="M3119,359.7c-1.1,15.3-24,19.2-34.4,28.8c8.9,9.9,35,14.1,34,30.1c-21.8-2.8-40.4-20.5-61-29.6
		c12.6-8.3,27.9-15.6,41.2-24.1C3105.9,365.1,3112.4,353.7,3119,359.7 M3102.2,369.3c-11.6,5.5-22.6,12.8-34,18.9
		c10.4,7.3,22.5,14,34,19.8c-6.7-6.6-16.2-13.1-24.6-19C3084.7,382.2,3095.8,376.3,3102.2,369.3L3102.2,369.3z"/>
</g>
<g id="g6148" transform="matrix(0.40241451,0,0,0.40241451,-640.29789,-167.79455)">
	<path id="path6150" d="M2967.7,1062.8l0-0.9c57.2-28.6,112.6-61.5,168.5-92.2c57.9-30.1,112-66.6,168.9-98.4
		c30.2-20.2,62.9-36.5,92.6-57.5l0.9,0l0,14.3c-5.3,156.1-6,312.3,0,468.3l0,14.3l-0.9,0c-29.7-21-62.4-37.3-92.6-57.5
		c-56.9-31.8-111-68.3-168.9-98.4C3080.4,1124.3,3025,1091.4,2967.7,1062.8 M2984.7,1062.8c63.5,32.8,125.9,67.8,188,103.1
		c-1.7-9.3-15.9-7.4-18.5-16.6c-0.9-6.7,3.5-12.3,7.4-17.3c-20.4-21-46.7-35.1-73.6-46c-2.6,1.3-1.3,4.7-2.2,6.9
		c-5.9,14.3-31,6.8-30.1-7.9c0.2-13.2,13.8-21.8,26-22.1c-10.3-3.3-23.7-7.3-26-20.2c-3.6-15.7,21.6-25.6,29.5-12.1
		c2.3,2.3-0.5,6.8,2.9,8c26.8-10.4,53.2-25,73.6-45.8c-4.4-4.9-8.8-11-7.2-18c3.1-8.6,16.8-6.6,18.2-15.9
		C3110.9,994.6,3046.8,1028.7,2984.7,1062.8 M3061.1,1086c-0.4,13.2,25.7,10.3,16.7-2.2c-4.2-6.3-6.8,6.2-8.9,1.1
		c2-9.1,13.6-5.6,19.9-4.2c31.4,12.1,65.2,27,83.6,56.7c4.7,3.5-2.9,15.9-3.2,6.9c2.1-7.7-9.2-6-9.4-0.2
		c-2.7,12.4,19.2,16.3,20.9,3.5c2.4-11.8-5.7-23-14.1-30.7c-19.7-19.2-44.5-32.6-70.3-41.7C3084.5,1068.9,3061.6,1067.8,3061.1,1086
		 M3061.1,1039.7c0,12.9,15.3,15.7,25.1,13.2c26.8-8.3,52.7-21,74.2-39.4c10.4-8.9,22.4-21,20.6-35.8c-0.9-11.7-19.6-11.2-21.1-0.7
		c-2,4.3,3.8,10.8,8,8.2c3.3-2-1.4-8.5,3.6-8.3c3.3,3.9,1.5,9.7-1,13.6c-12.7,19.6-33.8,31.6-54.1,42c-14.2,5-27.9,15.7-43.5,12.6
		c-4.2-0.3-5.2-10.4-1.1-5.2c1.3,6.1,10.7,0.1,7.5-4.3C3077.7,1025.1,3059.6,1029.8,3061.1,1039.7 M3093.1,1067.4
		c33.1,15.9,69.8,32.4,89.7,65c4.5,9.7-0.3,20.8-5.1,29.5c0.7,4.8,5.2,2.4,6.1-1c4.1-9.6,14.5-19.8,8.8-30.9
		c-20.9-31.6-55.1-52-90.7-63.2C3099.6,1066.2,3093.4,1064.9,3093.1,1067.4 M3092.8,1058c7.5,2.2,14.5-2.5,21.6-4.4
		c30.7-11.9,59.9-31,78.3-58.9c5.3-11.7-4.9-22.9-10.1-32.9c-1.1-4.8-7.2,0.5-3.8,2.9c5.1,7.7,7.7,18.1,4.4,26.9
		C3163.6,1025.1,3125.5,1041.1,3092.8,1058 M3110.7,1064.6c34.6,12.9,68.9,35.1,88.9,66.3c13.4-22.7,25.3-46,39.7-68.3
		c-14.1-22.6-26.3-46.1-39.7-68.8c-20.2,31.2-54.3,53.3-88.9,66.2C3114.2,1063.5,3114.2,1061.2,3110.7,1064.6 M3186,1163.9
		c11,7.1,7.7-20.9,21.4-17.3c1.6,7.8-2,16.1-8.3,20.7c-3.3,1.9,0.4,6.7,3.4,5.4c4.3-10.9,16.9-19.9,8.8-32.4
		C3195.4,1136.4,3193,1154.5,3186,1163.9 M3186.2,961.1c6.3,7.8,7.6,22.9,19.9,23.3c7.5,2.8,6.5-7,8.3-11.5
		c-2.5-7.1-9-12.2-11.2-19.5c-1.3-4.1-7.8,1.1-4.7,3.6c6.4,5,11.4,13.7,8.3,21.8C3193.5,980,3196.5,953.6,3186.2,961.1
		 M3186.4,1174.7C3196.7,1183,3191.7,1166.3,3186.4,1174.7 M3187,951.4C3196.4,955.8,3190.3,941.4,3187,951.4 M3203.9,1178.4
		c0.1,1.6,2.9,1.1,4.1,1c4.5-9.8,13.7-20.1,25.4-19.2c37.6,2.1,69.5,25,99.5,45.5c-1.3-8.8-10.7-11.2-15.5-17.5
		c-26.8-21.2-59.6-38.5-94.6-37.1C3213.5,1157.2,3208.1,1168.7,3203.9,1178.4 M3203.9,1133.7c8.3-2.2,11.5,2.6,15.1,8.8
		c13.3-22.4,28.1-46.9,41.9-70c27.1-0.3,54.6-1.9,81.8-0.9c0.5-3.8-3.1-6-4.7-9c0.7-3.5,5.4-5.7,4.6-9.7
		c-27.2,0.9-54.6-0.8-81.8-0.6c-12.4-22.5-26.5-44-39.4-66.2c-0.5-7-5.8-2.3-6.2,2.1c-1.2,5.8-10.2-1.1-11.4,3.5
		c13.6,20.7,23.2,44.1,37.1,64.8c5.1,7-1.8,14.4-5.1,20.4C3223.8,1095,3215.3,1115.6,3203.9,1133.7 M3204.1,948.4
		c6.5,10.2,12,28.5,27.4,25.3c32-2.3,61.1-17.9,85.8-37.3c5.2-5.9,14-9,15.5-17.5c-29.8,20.4-61.4,42.9-98.7,45.5
		c-11.2,1.1-20.7-7.9-25.2-17.4C3208.5,943.5,3201.8,944.9,3204.1,948.4 M3207,1186.4c62.6,34.5,123,73,183.9,110.3
		c-3.1-71.5-5.2-142.9-4.1-214.5c-6.9,1-1.7,13.2-3.5,18c-0.2,9.9-13.6,11.1-20.6,7.8c-9.9,27.8-6.6,58.3-3.5,87.1
		c3.3,2.8,6.9-4.4,10.9-0.8c15.6,2.2,15.4,30.4-1,31.6c-11.6,2.3-20.2-5.4-27.5-13c4.9,10.5,5.3,24.6-4.6,32.5
		c-11.5,9.5-31.7-6-24.5-19.4c0.3-3.3,6.3-4,4.8-7.7c-22.8-17.2-47.6-33.8-75.7-40.3c-1.1,8.2-9.6,19.4-18.6,13.9
		C3217.3,1191.5,3212,1180.5,3207,1186.4 M3207,939.9c8.6,0.5,14.2-9.6,23-8.5c7.2,2,9.6,9,11.6,15.3c28.1-6.7,53-23,75.7-40.3
		c1.5-3.7-4.5-4.3-4.8-7.7c-7.3-13.4,13-28.9,24.5-19.4c10,7.8,9.3,21.9,4.6,32.5c8.1-10.5,25.4-19.4,36.6-8.2
		c10.4,12.3-2.9,34.1-18.4,25.3c-6,28.1-5.5,59.8,2.7,87.8c7.6-4.1,21.7-1.4,21,9.3c0.2,4.5-3,15.5,3.2,16.5
		c-1.2-71.6,1.2-142.9,4.1-214.4c-60,36-119.1,74.5-180.6,108.2C3209,937.3,3206.3,937.7,3207,939.9 M3215.4,1179.6
		c2,13.6,27.2,8.3,16.1-3.7c-7.5,7.4-11.8-2.6-0.2-3.9c33.8-0.4,62.6,21.5,88.4,40.8c5.7,6.2,16.9,13.7,8.9,22.9
		c-3.3-2,2.7-9.4-5.1-9.8c-13.7,3.2-2.2,21.8,8.3,16.3c11-5.1,8.4-20.4,0.9-27.4c-27.3-25.1-60.9-49.1-99.1-50.6
		C3225.2,1164,3213,1169.6,3215.4,1179.6 M3215.3,949.6c4,11.5,18.8,11.7,29,10.6c32.8-7,62.1-25.7,86.5-48.3
		c6.7-5.9,11.9-16.8,6-25c-4.2-9.7-20.2-4.4-19.7,5.4c1.1,4,5.9,8.8,9.7,4.7c4.6-1.3-2.8-7.3,1.8-8.1c3.3,2.9,3.7,8.4,1.3,12.1
		c-10,12.6-24.1,20.6-36.7,30.4c-20.4,10.3-42.7,26.1-66.5,19.8c-5.8,0.1-2.3-10,1-4.2c5.3,5.6,9.9-5.4,4.4-8.4
		C3224.9,932.6,3213.5,941,3215.3,949.6 M3224.2,1145.7c38.4-0.3,72.9,21.4,102.6,43.2c-2.4-6.5-1.6-4.2,3.2-2.2
		c-7.3-36.9-3.9-77.2,12.6-110.8c-26.3,1.1-52.7,1.2-79-0.2C3251.6,1099.6,3235.3,1122.2,3224.2,1145.7 M3224,981.4
		c13.9,22,27,44.4,39.2,67.5c26.3-2.2,54.2,0.4,79.4-0.8c-17.7-33.2-19.8-73.4-12.8-110c-2.1-1.3-5.6,5.5-4.5,1.7
		c3.5-8.3-6.6,1.2-9.2,3.6c-26.8,18.8-58.1,36.2-91.8,35.7C3224.2,979.5,3224.1,980.8,3224,981.4 M3331.2,1157.4
		c1.4,14.3,1.2,31.2,9,43.3c-1.3-36-7.3-80,14-113.4c6.3-10,23.5-2.4,27.9-11.6c-12.1-0.3-32.9-5.3-38.3,10.2
		C3333.3,1108.1,3329.5,1133.1,3331.2,1157.4 M3331.2,987.3c1.7,20.2,5.4,41.2,16.7,58.4c10,5.5,23.2,4.4,34.1,3.3
		c-4.5-9.1-21.8-1.9-28.4-12c-19.3-32.2-16.5-72.1-12.8-108.1c2.3-9.1-3.6-3.2-4.2,0.3C3332.1,948.1,3329.8,967.8,3331.2,987.3
		 M3342.2,1165.3c2,14.4,2.7,29.1,7,43c3.6,7.3,11.6,15.1,20.5,11.8c10.7-1.8,8.5-22.9-3.4-19c-6.1,0.2-5.2,12.1,2.1,9
		c0.5,6.3-10.6,0.7-11.2-3.9c-9.1-29.2-8.7-60.7-3.7-90.6c3.6-8.7,5-20.4,15.4-23.8c4.1-0.4,3,4.9-0.6,4.5c-6.9,2.5,2,11,6.4,7.6
		c8.7-3.8,5.8-19.2-3.3-20.2c-7.6-1.1-13.4,4.8-17.5,10.3C3341.9,1115.5,3341.6,1141.4,3342.2,1165.3 M3342.3,977.3
		c1.3,19.8,1.9,42.5,15.8,58.1c5.7,7.7,21,7.7,21.6-3.9c2.9-8.1-8.8-16-13.5-8c-3.9,5.6,9.3,4.5,4.2,9.2
		c-11.1-0.8-12.9-14.5-16.8-22.8c-6.1-26.2-3.8-53.5,0.2-79.8c1.4-7.7,4.1-19.9,14.8-18.1c0.9,5.9-11.4,0.9-5.4,10.1
		c10.8,8.5,18.3-10.3,9.4-16.2c-11.4-6.7-23.9,5.6-25.3,16.7C3344.1,940.5,3340.5,958.9,3342.3,977.3 M3345,1062.9
		c6.2,13.6,21.7,8.1,33.4,8.5c0.8-13.1-22.4,3.9-26.8-9.4c6.5-6.4,15.5-5.6,23.5-3.4c3.7,2,5.5-7,0.9-5.6
		C3364.9,1053.3,3348.6,1049.4,3345,1062.9 M3382.8,1063.5C3390.5,1071.4,3384.2,1051.1,3382.8,1063.5z"/>
	<path id="path6152" d="M3000.1,1062.7c12.5-7.9,26.7-16.1,40.5-22.7c3.8-2.1,12.5,0.4,9.3,5.9c-4.8,8.9-17.1,10.2-24,16.9
		c8.2,6,21.2,7.8,24.8,18.3c-0.4,4.1-6.3,5-9.5,3.9C3026.9,1078.8,3014,1069.7,3000.1,1062.7 M3008,1062.7
		c10.6,5.3,21.2,10.7,31.6,16.1c-3.8-8.8-16.8-9.6-21.9-16.8c6.2-6.3,18.1-7.6,21.9-16.1C3029.4,1051.6,3017.3,1056.3,3008,1062.7z"
		/>
	<path id="path6154" d="M3147.2,1064.8c-2.6-8.2,8.5-8.6,13.8-11.2c13.4-7.4,24.8-18.2,35.1-29.5c3.8-3.7,7.6,2.2,9,5.4
		c7.3,10.6,12.9,22.1,19.3,33.2c-6.8,10.6-12,22.2-19.3,32.5c-1.3,3.6-5.9,9.5-9.5,4.9C3182.5,1084.6,3165.6,1072.2,3147.2,1064.8
		 M3157.2,1063.8c4.2,4.9,11.3,4.9,14.4-1.1C3170.2,1054.7,3156.3,1056.1,3157.2,1063.8 M3170.1,1071.7c10.9,6,18.5,16.7,28.6,23.1
		c5.2-7,8.7-15.1,13.9-22.1c14.8-14.6-9.5-28.8-14-42.7c-9.8,6.9-17.9,16.9-28.6,23.1c2.4,4.2,8.9,5,10.5,9.7
		C3177.9,1066.6,3172.6,1067.7,3170.1,1071.7z"/>
	<path id="path6156" d="M3249.1,1130.5c3.2-14.9,14.4-27.6,21.5-41c15.5,0.8,33.7-4,48.2,2.6c-6.8,20-10.8,41.6-7,62.5
		c-4.6,5.7-10.8-0.8-14.4-4.2C3283.7,1139,3263.5,1138.1,3249.1,1130.5 M3256,1127.5c10.6,5.6,23.6,7.3,34.4,13.5
		c0.5-4.3,0.5-8.7,1.1-13c4.9-5,16.1,10.6,15-1.5c-0.4-10.8,5.5-20.8,5-31.4c-8.3-1.1-16.8,0.1-25.1-1.1
		C3265.6,1088.5,3265.3,1116.5,3256,1127.5 M3295,1141.5c1,4.4,10.8,9.5,10.8,2.3C3309.8,1134.5,3292.8,1131.1,3295,1141.5z"/>
	<path id="path6158" d="M3249,996.5c-0.6-7.4,9.9-5.1,14.3-6.9c13.5-5.7,28.9-8.6,39.4-19.7c3.2-4.2,11.6-1,9,4.9
		c-4.5,19.4,0.8,39.4,7,57.9c-14.2,6.7-32,1.3-47.6,3C3263,1023.3,3254.9,1010.1,3249,996.5 M3256.1,998.1c6.6,10.3,10,22.5,17.6,32
		c12.3,2,25.2-1.5,37.6-0.3c-0.4-12.2-6-24.1-5.4-36.7c-4.8,0.9-8.6,5.1-13.6,4.7c-2.9-3.5,0-11.4-2.7-13.7
		C3279.4,990.4,3264.4,991.3,3256.1,998.1 M3295.1,984.7c-0.9,8.5,12.8,5.2,10.7-1.8C3308.1,972.7,3294,978.2,3295.1,984.7z"/>
	<path id="path6160" d="M3340.2,1254.3c2.2-15.7,21.8,5.3,29.7,5.6c2-9.7-2.6-21.1,3.6-29.6c4.2-2.2,8.4,3,8.5,6.8
		c2,15.1,0.2,30.4,1,45.6C3369.2,1273.1,3349.3,1269,3340.2,1254.3 M3349.2,1257.4c10,5.5,19,14.1,29.8,18.2
		c-0.8-11.7-0.6-23.7-1.8-35.2c-5.5,8,0,19.2-3.4,27.4C3365.7,1266.1,3356.4,1255.8,3349.2,1257.4z"/>
	<path id="path6162" d="M3339.9,874.3c-1.1-6.2,4.3-10.6,9-13.3c11.6-6.1,22.1-14.2,34.3-18.9c-1.1,13.8-0.1,27.6-0.7,41.4
		c0.2,4.6-3,13.5-9.2,10.9c-6.3-8.6-1.4-20.3-3.5-30.2C3359.9,866.3,3350.1,880.3,3339.9,874.3 M3348.8,868
		c9.4-0.6,16.3-8.9,24.8-10.9c3.9,7.5-1.9,19.4,3.5,27.2c1.4-11.4,0.9-23.6,2-35.3C3368.3,853.6,3358.3,861.4,3348.8,868z"/>
</g>
<g id="g6164" transform="matrix(0.42643926,0,0,0.42643926,-480.29788,-199.19401)">
	<path id="path6166" d="M2351.7,736.8l0-71.7c3.8-66.6-4.9-132.9,2.8-198.6l2.7,0c115.6,64,229.8,131.2,344.1,197.5
		c21.1,10.3,40.1,24.7,60.5,36.6v0.9c-53.2,34.4-109,64.3-163.8,96.2c-41.4,27.5-87,48.5-129.1,74.9c-37.3,20.8-73.5,43.4-111.6,63
		l-2.7,0 M2359.2,723.9c3.2,66.6,1.2,133.1,2.3,199.5c62-33.5,122.7-71.5,186.2-103.9c64.3-41,130.9-76.6,195.2-116.8
		c5.1-0.2,3.5-3.8-0.8-3.6c-50.9-32.6-104.2-61.6-156.4-92.6c-19.5-14.3-40.5-26.9-62.9-36.1c-53.8-31.2-107.6-61.6-161.3-91.7
		C2361.5,560.1,2360.1,641.9,2359.2,723.9z"/>
	<path id="path6168" d="M2362.1,718.8c-2.8-8.5,4.3-16.7,0-24.9c-6.9-16,17.2-34.8,27.5-18.3c7.3-27.2,6.4-58,0.9-85.9
		c-20.9,13.8-32.8-21.9-13.3-29.9c30.2-9,37.1,30.6,56.5,43.3c-2.5-20.1-18.8-36.3-18.2-56.8c2.8-13.3,18.6-22,29.9-12.5
		c11.2,4.1,7.8,20.8-1.8,24.8c19.4,19.2,45.3,32,70.5,42.6c1.4,0.8,3.3,0.5,4.5-0.5c-6.6-10.4,4.7-21.6,15.8-20.6
		c11.8,0.5,16.7,14.3,28.8,14.9c15.4,4.1,17.3,30.3-0.2,31.9c4.1,9.4,17.4,13.2,24.9,20.5c16.2,8,31.3,19.4,49.3,23
		c-2.5-11.7,12.3-22.3,21.9-13.1c12.8,5,10.9,21.5,3.6,30.5c-17.7,11.8-42.1,4.8-59.9,13.9c19.2,7.1,40.4,2.5,58.9,12
		c8.3,8.6,10.8,26.2-2.5,31.5c-9.6,9.1-24.4-1.5-21.9-13.1c-25.7,7.2-49.1,21.9-70.1,38.1c-1.5,1.4-6.9,4.8-2.6,5.7
		c11.5,1.7,14.3,17,7.3,25c-6.3,9-19.8,6.8-25.5,16.5c-10.8,10.4-32.8,2.7-29.5-13.1c2.5-1.3,1.7-4.1-1.2-3.6
		c-25.1,9.6-48.9,23.2-69.8,40.2c-5.3,3.5,2.6,5.3,4.4,8.4c11.5,17.1-19.7,32.6-29.4,16.3c-16.7-21.6,13.4-45,12.2-66.6
		c-13.9,10.9-19.1,29.1-33.3,39.6c-9.5,11.7-34,4.1-32-12.2c-3.8-13.6,13-20.3,23-13.7c4.5-28.1,7.3-58.9-1-86.1
		C2381.9,739.4,2364.2,731.1,2362.1,718.8 M2367.1,717.9c0.8,7.9,12.2,13.3,17.5,6.3c5-3.7-4.5-15-5.6-6.3
		c-5.7,3.5-6.5-10.2-0.3-9.4c13.2,1.9,15.8,17.9,18.5,28.4c5.2,28.7,4.5,60-5.7,87.4c-5.2,11.4-17.5-3.5-5.2-1
		c5.3-8-11.5-12.9-12.7-2.6c-6.7,15.3,14.9,22.3,23.3,11.1c15.2-29,12.8-63,8.9-94.5c-2.8-13.7-6.9-30.7-21.8-35.8
		C2374,698,2364.6,708.3,2367.1,717.9 M2367.1,689.8c1,11,15.8,14.3,23.4,7.3c12.4-10.5,15.3-27.6,17-43c1.6-27,3.5-55.7-8.8-80.7
		c-2.5-7.1-12-10.5-18.7-8.2c-10.8,2.6-9.2,22.5,2.5,22.1c5.9-1.1,7.1-12.4-0.7-8.1c-4.7-8.1,10-7,11.1,0.2
		c9.3,30.9,10.3,64.6,1.8,95.8c-2.5,7.9-6.6,17.1-15.9,18.1c-6.2,0.9-5.4-12.9,0.3-9.4c1.3,9,11-3.6,5-6.9
		C2376.4,669.1,2363.6,680.6,2367.1,689.8 M2393.9,701.3c11.7,9.8,14.5,25.9,16.8,40.2c2.9,25.3,3.4,50.9-2,75.9
		c8.9-6.5,9.7-22,9-32.9c-1.1-28,1.6-60.5-16.7-83.8c14.6-16.8,15-40.4,16.7-61.3c-1.7-17.8,4.7-40.6-8.1-54.7
		C2412,620.7,2420.3,669.7,2393.9,701.3 M2408,701.2c17.2,29.6,15.3,65.9,13.6,98.9c7.4-1.4,11.4-11.9,19.3-13.4
		c0.6,7.7-2.8,14.9-3.1,22.4c28.6-16.5,58.8-36.9,93.1-37c17.5-29.2,50-46.7,79.7-61.9c-5.7-4.4-16.5-4.1-21.7-9.7
		c6.4-4.5,15.7-4.9,21.7-9c-29.5-15.6-62.2-32.2-79.4-61.9c-34-0.2-64.5-19.9-92.6-37c-1.8,5.8,4.2,15.1,2.4,22.4
		c-7.9-1.6-11.9-11.5-19.3-13.5C2423.2,634.8,2424.7,671.2,2408,701.2 M2423.2,855.4c0.2,8.7,10.7,15.1,18.2,9.2
		c8.6-3,6.8-19.5-4.1-15c-4.8,2.6,4.3,6.3,0,8.6c-8.2,1.6-6-11.4-1.6-14.8c20.5-19.8,44.8-35.8,72-44.8c10.2-2.8,23.9-7,31.9,2.3
		c4.9,8.1-13.7,10-6.1,2.3c-2.9-7.6-15.5,0.8-10.4,7.7c7.1,14.2,29.7,0.2,22.6-12.5c-3.4-10.6-15.6-11.4-24.9-11.5
		c-28.6,5.3-54.2,20.6-77.6,37.1C2435.5,833.5,2421.7,841.7,2423.2,855.4 M2423.2,553.1c18.7,32.8,56.8,49.9,91.6,60.7
		c11.8,2.7,29,1.3,32-13.1c3.1-13.5-20.5-22.9-24.4-7.6c-4.2,8.9,15.9,11.3,9.3,3c-0.5-6.2,12.2-0.4,7.9,4.7
		c-8,9.7-22.2,5.2-32.5,2.1c-24.7-7.7-46.5-22.2-65.7-39.2c-6.1-4.2-12.5-12.2-8-19.8c5.1-2.7,6.4,2.9,2.5,5.6
		c2.7,8.1,17-0.5,10-8.1C2438,528.1,2418.4,538.8,2423.2,553.1 M2429.7,829.4c10-6.4,17.8-16,29-21c25.2-12.9,51.5-30.9,79.9-24.2
		c2.1-13.1,12.2-22.8,21.9-31c21.5-16.7,45.1-31.5,71-40c-4.9-4.1-16.8,0.1-22.8,3.2c-27.4,16.5-60.6,30.6-74.1,61.8
		c-24.2-4.1-46.1,9.1-66.9,19.2C2454.5,807.1,2434.6,811.7,2429.7,829.4 M2430,574c2.7,7.5,8.3,13,15,17.1
		c27.9,14.9,56.3,36.9,89.7,32.5c8.2,21.5,28.5,34.1,46.7,46.2c15.8,8.2,31.1,22.2,50.1,20.1c0.5-3.7-5.8-3.2-7.6-4.7
		c-13.9-3.1-25.4-11.6-37.6-18.4c-18.2-13.1-42.2-25.3-47.6-49.2c-17.1,4.9-32.8-1.4-48.9-8.2c-19.9-9.9-40.8-19.4-56.7-35.4
		C2432.2,572.9,2428.7,571.4,2430,574 M2543.2,789.5c-0.3,16.4,25.1,17.9,26.9,2.3c4.9-11.6-15.9-15.5-13.9-2.9
		c4.2-1.5,9.9,2.5,3.2,5.4c-10.8,5.2-9.4-12.1-4.5-16.7c19.7-25.6,49.2-40.2,78.6-50.5c6.4-3.3,19.1-5,21,4.1
		c-0.9,2.7-4.7,4.3-5.1,0.4c-2.8-7.3-10.8,5.1-5.4,7.5c8.9,9.2,25.8-5,17-15.5c-9.8-13.9-27.6-3.7-40.9-1.9
		c-19.6,8.8-38.5,20.1-55.6,33.3C2554.4,764.3,2542.7,774.6,2543.2,789.5 M2543.2,615.4c2,16.9,16.5,27,28.4,37.1
		c20.9,13.7,42.7,28.7,68.2,31.9c9.3,4,23.4-1.9,22.9-13c1.2-10-14.6-16.6-20.4-7.4c-1.5,3.6,4.4,12.7,7,6.1c1-5.8,7.8,0.7,3.8,3.7
		c-6.1,6.2-16.5,2.7-23.2-0.6c-18.8-6.5-36.3-14.9-52.3-26.7c-10.6-9.7-27.9-19.7-26-36.2c-0.4-8.4,16.1-1.2,8.8,2.9
		c-8.8-3.4-2.2,11.1,3.7,7.8c9.4-2.3,7.6-15.3,0.6-19.6C2554.9,593.8,2541.4,604.1,2543.2,615.4L2543.2,615.4z"/>
	<path id="path6170" d="M2367.7,912.2c0.5-21.2-1.2-42.7,1.9-63.7c1.7-5.5,9.3-1.8,9.9,2.6c0.3,13.2,1.8,26,1,39.2
		c11.2-6,22.4-11.7,33.5-17.8c4.8-4.2,13.6,3.5,7.8,7.8C2404.4,891.7,2386.2,903.9,2367.7,912.2 M2372.4,904.3
		c11.3-5.3,21.5-12.9,32.7-18.5c1.6-0.2,2.3-3.3,0-2c-8.7,4.6-18,8.6-27.4,11.3c-1.3-8.1-2.9-16.3-3-24.6c3.8-4-6.2-11.2-2.2-1.2
		C2372.8,881.1,2372.9,892.7,2372.4,904.3z"/>
	<path id="path6172" d="M2368.1,537.1c-1-15.8-0.2-31.7-0.5-47.5c18.4,8.8,36.3,20.1,53.5,31.4c5.8,3.7-0.2,11.5-5.9,9.1
		c-10.8-6.1-22.1-10.9-32.6-17.6c-9.5,6.5,7.8,39.3-10.7,43.9C2366.2,551.8,2369.8,543.3,2368.1,537.1 M2372.5,537.4
		c4.7-7,2.5-21.1,5.1-30.6c10.1,2.8,19.5,7.5,28.9,11.6c-9.2-8.2-23.1-14.2-34.3-20.8C2372.9,510.8,2372.7,524.1,2372.5,537.4
		L2372.5,537.4z"/>
	<path id="path6174" d="M2426.9,706.1c18.4-4.3,41.9-0.8,62.1-2.2c8.5,18.5,21.2,34.7,28.6,53.4c-21,0-43.3,8.1-60.7,20.9
		c-5.6-2.2-0.9-10.2-4-13.7c-3.9,1.1-9.2,7.7-13,3.6C2441.3,747.1,2440.1,723.6,2426.9,706.1 M2435.9,711.2
		c5.1,11.7,7.1,24.5,8.9,37.1c8.7-1.3,15-9,24-9.6c1.8,8.3,0.7,16.7,2.4,24.9c12.8-3.1,24.7-9.4,38-10.4
		c-3.2-16.3-17.3-29.6-22.7-45.6C2471.1,711.7,2447.8,703.6,2435.9,711.2 M2444.9,761.1c4.1,3.7,9.2-4,13.6-4.4
		c-0.1,4.4-2.3,11.3,2.1,13.7c10.9-3.4,3.1-17,4.2-24.7C2458.3,750.2,2442.6,749.3,2444.9,761.1z"/>
	<path id="path6176" d="M2426.6,696.5c13.1-17.9,14.7-41.6,13.3-62.9c4.6-6.1,15.4,11.1,13.9-1.3c0-3.2,0-10.4,5.1-8.1
		c16.3,13.3,38.6,20,58.8,20.2c-7.5,18.6-20.2,35.2-28.8,53.3C2468.3,697.4,2447.2,698.8,2426.6,696.5 M2435.7,692.2
		c16.5,3.5,34.1-0.7,50.8,2.1c5.4-16.1,19.2-29.3,22.9-45.7c-13.5-0.8-25.4-7.5-38.3-10.4c-1.6,8.2-0.6,16.6-2.3,24.9
		c-9-0.7-15.3-8.3-23.9-9.6C2442.3,666.6,2440.7,679.9,2435.7,692.2 M2445.1,645c1.8,8,14.1,7.1,19.7,11.3c-0.3-8,6.3-21.2-4.2-24.7
		c-4.3,2.4-2.2,9.3-2,13.7C2455.3,644.6,2442.5,633.5,2445.1,645L2445.1,645z"/>
	<path id="path6178" d="M2493.1,701.3c11.9-16.8,19.7-37.1,32.6-52.9c9.3,18.2,27,33.5,45.9,41.1c6.3,5-4.9,9.2-8.8,11
		c2.3,3.3,13.6,4.8,10,10.9c-18.1,8.1-36.1,21.5-45.4,39.7c-1.8,6-5.7-2.2-6.7-4.6C2510.5,731.8,2503.9,715.7,2493.1,701.3
		 M2497.9,701.3c11,12.6,15.7,30,27,41.9c8.6-8.8,18.6-18.7,28.8-26.8c-5.8-6.2-13.8-9.2-19.7-15.2c4.7-6.7,14-9.4,19.7-15.8
		c-10.2-8.1-20.2-18-28.8-26.8C2513.8,670.9,2508,688.2,2497.9,701.3 M2542.1,701.2c7.3,3.1,13.9,16.8,22.4,9.1
		c3.7-5.3-8.2-5.9-9.8-9.7c3.3-2.6,10.1-3.4,10.7-7.8C2557.6,682.8,2548.2,697.3,2542.1,701.2z"/>
	<path id="path6180" d="M2673.9,729.9c1.1-15.3,24-19.2,34.4-28.8c-8.9-9.8-35-14.1-34-30.1c21.8,2.8,40.4,20.5,61,29.6
		c-12.6,8.3-27.9,15.6-41.1,24.1C2687,724.5,2680.6,735.8,2673.9,729.9 M2690.8,720.3c11.5-5.5,22.6-12.8,33.9-18.9
		c-10.4-7.3-22.5-14-34-19.8c6.7,6.6,16.2,13.1,24.6,19C2708.2,707.3,2697.1,713.3,2690.8,720.3L2690.8,720.3z"/>
</g>
<g id="g6420" transform="matrix(0.40241451,0,0,-0.40241451,-640.29789,-285.96762)">
	<path id="path6422" d="M2674.1-1356.5l0,0.9c-57.2,28.6-112.6,61.5-168.6,92.1c-57.9,30.1-112,66.5-168.9,98.4
		c-30.2,20.2-62.9,36.5-92.6,57.5l-0.9,0l0-14.3c5.4-156,6-312.3,0-468.3l0-14.3l0.9,0c29.7,21,62.4,37.4,92.6,57.5
		c56.9,31.9,111,68.3,168.9,98.4C2561.5-1418,2616.9-1385.1,2674.1-1356.5 M2657.1-1356.4c-63.5-32.8-125.9-67.9-187.9-103.1
		c1.6,9.3,15.9,7.4,18.5,16.6c0.9,6.7-3.5,12.3-7.4,17.3c20.4,21,46.7,35.1,73.6,46c2.6-1.3,1.3-4.7,2.3-6.9c6-14.3,31-6.8,30.1,7.9
		c-0.2,13.2-13.8,21.8-26,22.1c10.3,3.3,23.7,7.3,26,20.2c3.6,15.7-21.6,25.6-29.5,12.1c-2.3-2.3,0.5-6.8-2.9-8
		c-26.8,10.4-53.2,25-73.6,45.8c4.4,4.9,8.8,11,7.2,18c-3.1,8.6-16.8,6.6-18.2,15.9C2530.9-1288.4,2595-1322.4,2657.1-1356.4
		 M2580.7-1379.7c0.4-13.2-25.7-10.3-16.7,2.1c4.2,6.3,6.8-6.2,8.9-1.1c-2,9.1-13.6,5.6-19.9,4.2c-31.4-12.1-65.2-27-83.5-56.7
		c-4.7-3.5,2.9-15.9,3.2-6.9c-2.1,7.7,9.2,6,9.4,0.2c2.7-12.4-19.2-16.3-20.9-3.5c-2.4,11.8,5.7,23,14.1,30.7
		c19.7,19.2,44.4,32.6,70.3,41.7C2557.3-1362.6,2580.3-1361.5,2580.7-1379.7 M2580.7-1333.4c0-12.9-15.3-15.8-25.1-13.2
		c-26.8,8.3-52.7,21-74.2,39.4c-10.4,8.9-22.4,20.9-20.6,35.7c0.9,11.7,19.5,11.2,21.1,0.7c2.1-4.3-3.8-10.8-8-8.2
		c-3.4,2,1.4,8.5-3.6,8.3c-3.3-3.9-1.5-9.7,1.1-13.6c12.7-19.6,33.8-31.6,54.1-42c14.2-5,27.9-15.7,43.5-12.5
		c4.2,0.3,5.2,10.4,1.1,5.3c-1.3-6.1-10.7-0.1-7.6,4.3C2564.1-1318.8,2582.2-1323.5,2580.7-1333.4 M2548.7-1361.1
		c-33.1-15.9-69.8-32.4-89.7-65c-4.5-9.7,0.3-20.8,5.1-29.5c-0.6-4.8-5.2-2.4-6.1,1c-4.1,9.6-14.5,19.8-8.8,30.9
		c20.9,31.6,55.1,52,90.7,63.2C2542.3-1359.9,2548.5-1358.7,2548.7-1361.1 M2549-1351.7c-7.5-2.2-14.5,2.5-21.6,4.4
		c-30.7,11.9-59.9,31-78.3,58.9c-5.3,11.7,4.9,22.9,10.1,32.9c1.1,4.8,7.2-0.5,3.8-2.9c-5.1-7.7-7.7-18.1-4.4-26.9
		C2478.2-1318.9,2516.3-1334.8,2549-1351.7 M2531.2-1358.3c-34.6-12.9-68.9-35.1-88.9-66.3c-13.4,22.7-25.3,46-39.7,68.3
		c14.1,22.6,26.3,46.1,39.7,68.8c20.2-31.2,54.3-53.2,88.9-66.2C2527.6-1357.2,2527.6-1354.9,2531.2-1358.3 M2455.9-1457.6
		c-10.9-7.1-7.8,20.9-21.4,17.3c-1.6-7.8,2-16.1,8.3-20.7c3.3-1.9-0.4-6.8-3.4-5.4c-4.3,10.9-16.9,19.9-8.8,32.4
		C2446.4-1430.1,2448.8-1448.2,2455.9-1457.6 M2455.6-1254.8c-6.3-7.8-7.6-22.9-19.9-23.3c-7.5-2.8-6.5,7-8.3,11.5
		c2.5,7.1,9,12.2,11.2,19.5c1.3,4.1,7.8-1.1,4.7-3.6c-6.4-5-11.4-13.7-8.3-21.8C2448.4-1273.7,2445.3-1247.3,2455.6-1254.8
		 M2455.4-1468.4C2445.2-1476.7,2450.1-1460,2455.4-1468.4 M2454.8-1245.2C2445.4-1249.5,2451.5-1235.1,2454.8-1245.2 M2438-1472.2
		c-0.1-1.6-2.8-1.1-4.1-1c-4.5,9.8-13.7,20.1-25.4,19.1c-37.6-2.1-69.5-25-99.5-45.5c1.3,8.8,10.6,11.2,15.5,17.5
		c26.8,21.2,59.6,38.5,94.6,37.2C2428.3-1450.9,2433.8-1462.4,2438-1472.2 M2438-1427.5c-8.3,2.2-11.5-2.6-15.1-8.9
		c-13.3,22.4-28.1,46.9-42,70c-27.1,0.3-54.6,1.9-81.8,0.9c-0.5,3.7,3.1,6.1,4.7,9.1c-0.7,3.5-5.4,5.7-4.7,9.7
		c27.2-0.9,54.6,0.8,81.8,0.7c12.4,22.5,26.5,44,39.4,66.2c0.5,7,5.8,2.3,6.2-2.1c1.3-5.8,10.2,1.1,11.4-3.4
		c-13.6-20.7-23.2-44.1-37.1-64.8c-5.1-7,1.8-14.4,5.1-20.4C2418.1-1388.7,2426.6-1409.4,2438-1427.5 M2437.7-1242.2
		c-6.5-10.2-12-28.5-27.4-25.3c-32,2.3-61.1,17.9-85.8,37.3c-5.2,5.9-14,9-15.5,17.5c29.8-20.4,61.4-42.9,98.7-45.5
		c11.2-1.1,20.7,7.9,25.1,17.4C2433.3-1237.2,2440-1238.6,2437.7-1242.2 M2434.9-1480.1c-62.6-34.5-123-73.1-183.9-110.3
		c3.1,71.5,5.2,142.9,4.1,214.5c6.9-1,1.7-13.2,3.5-18c0.2-9.9,13.7-11,20.7-7.8c9.9-27.8,6.6-58.3,3.5-87.1
		c-3.3-2.9-6.9,4.4-10.9,0.8c-15.6-2.2-15.4-30.4,1-31.6c11.6-2.3,20.2,5.4,27.4,13c-4.9-10.6-5.3-24.6,4.6-32.5
		c11.5-9.5,31.7,6,24.5,19.4c-0.3,3.3-6.3,4-4.8,7.7c22.7,17.2,47.6,33.8,75.7,40.3c1.1-8.2,9.6-19.4,18.6-13.8
		C2424.5-1485.2,2429.9-1474.2,2434.9-1480.1 M2434.8-1233.6c-8.6-0.5-14.2,9.6-23.1,8.5c-7.2-2-9.6-9-11.6-15.3
		c-28.1,6.7-53,23-75.8,40.3c-1.5,3.7,4.5,4.3,4.8,7.7c7.3,13.4-13,28.9-24.5,19.4c-10-7.8-9.3-21.9-4.6-32.5
		c-8.2,10.4-25.4,19.4-36.6,8.1c-10.4-12.4,2.9-34.1,18.4-25.3c6-28,5.5-59.7-2.7-87.8c-7.6,4.1-21.7,1.4-21-9.3
		c-0.2-4.5,3-15.5-3.2-16.5c1.2,71.6-1.2,142.9-4.1,214.4c60-36,119.1-74.5,180.7-108.1C2432.8-1231.1,2435.5-1231.4,2434.8-1233.6
		 M2426.4-1473.4c-1.9-13.6-27.2-8.3-16.1,3.7c7.5-7.4,11.8,2.6,0.2,3.9c-33.8,0.4-62.5-21.5-88.4-40.8c-5.7-6.2-16.9-13.7-8.9-22.9
		c3.3,2-2.7,9.4,5.1,9.8c13.7-3.2,2.2-21.8-8.3-16.3c-11,5.1-8.4,20.4-0.9,27.4c27.3,25.1,60.9,49.1,99.1,50.6
		C2416.6-1457.7,2428.8-1463.3,2426.4-1473.4 M2426.5-1243.3c-4-11.5-18.7-11.7-29-10.6c-32.8,7-62.2,25.7-86.5,48.3
		c-6.7,5.9-11.9,16.8-6,24.9c4.2,9.7,20.2,4.4,19.7-5.3c-1.1-4.1-5.9-8.8-9.7-4.7c-4.6,1.3,2.8,7.3-1.8,8.1c-3.3-3-3.6-8.5-1.3-12.1
		c10-12.6,24.2-20.6,36.7-30.4c20.4-10.3,42.7-26.1,66.5-19.8c5.8-0.1,2.3,10-1,4.2c-5.2-5.6-9.9,5.4-4.4,8.4
		C2416.9-1226.4,2428.3-1234.8,2426.5-1243.3 M2417.7-1439.4c-38.4,0.3-72.9-21.4-102.6-43.2c2.4,6.5,1.6,4.2-3.2,2.2
		c7.3,36.9,3.9,77.2-12.7,110.8c26.3-1.1,52.7-1.1,79,0.2C2390.2-1393.4,2406.6-1415.9,2417.7-1439.4 M2417.8-1275.1
		c-13.9-22-27-44.4-39.2-67.5c-26.3,2.1-54.2-0.4-79.4,0.8c17.6,33.2,19.7,73.4,12.7,110c2.1,1.3,5.7-5.5,4.5-1.7
		c-3.5,8.3,6.6-1.2,9.2-3.6c26.8-18.8,58.1-36.2,91.9-35.7C2417.6-1273.3,2417.7-1274.5,2417.8-1275.1 M2310.7-1451.2
		c-1.4-14.3-1.2-31.2-9-43.3c1.3,36,7.3,80-14.1,113.4c-6.4,10-23.5,2.4-27.9,11.5c12.1,0.3,32.9,5.4,38.3-10.2
		C2308.5-1401.9,2312.3-1426.8,2310.7-1451.2 M2310.6-1281.1c-1.7-20.2-5.4-41.2-16.7-58.4c-10-5.5-23.2-4.4-34.1-3.3
		c4.5,9.1,21.8,1.9,28.4,12c19.3,32.3,16.5,72.1,12.8,108.1c-2.3,9.1,3.6,3.3,4.2-0.3C2309.7-1241.9,2312.1-1261.5,2310.6-1281.1
		 M2299.7-1459c-2-14.4-2.7-29.1-7-43c-3.6-7.3-11.6-15.1-20.5-11.8c-10.7,1.8-8.5,22.9,3.4,19c6-0.2,5.2-12.1-2.1-9.1
		c-0.5-6.3,10.6-0.7,11.2,3.9c9.1,29.2,8.7,60.7,3.7,90.6c-3.7,8.7-5,20.4-15.4,23.8c-4.1,0.4-3-4.9,0.6-4.5c6.9-2.5-2-11-6.4-7.6
		c-8.8,3.8-5.9,19.2,3.3,20.2c7.6,1.1,13.4-4.8,17.5-10.3C2299.9-1409.3,2300.3-1435.1,2299.7-1459 M2299.5-1271
		c-1.3-19.8-1.9-42.5-15.8-58.2c-5.7-7.7-21-7.7-21.7,3.9c-2.9,8.1,8.8,16,13.5,8c3.9-5.6-9.3-4.5-4.2-9.2
		c11.1,0.8,12.9,14.5,16.8,22.8c6.1,26.2,3.8,53.5-0.2,79.8c-1.4,7.7-4.1,19.9-14.8,18.1c-0.9-5.9,11.4-0.9,5.4-10.1
		c-10.8-8.5-18.3,10.3-9.4,16.2c11.4,6.7,23.9-5.6,25.3-16.7C2297.8-1234.2,2301.3-1252.6,2299.5-1271 M2296.9-1356.6
		c-6.2-13.6-21.7-8.1-33.4-8.5c-0.9,13.1,22.5-3.9,26.8,9.4c-6.5,6.4-15.5,5.6-23.5,3.4c-3.6-2-5.5,7-0.9,5.5
		C2277-1347.1,2293.2-1343.1,2296.9-1356.6 M2259-1357.3C2251.3-1365.1,2257.7-1344.9,2259-1357.3z"/>
	<path id="path6424" d="M2641.8-1356.4c-12.5,7.8-26.7,16.1-40.5,22.7c-3.8,2.1-12.5-0.4-9.3-5.9c4.8-8.9,17.1-10.2,24-16.9
		c-8.2-6-21.2-7.8-24.8-18.3c0.4-4.1,6.3-5,9.5-3.9C2615-1372.5,2627.8-1363.4,2641.8-1356.4 M2633.8-1356.4
		c-10.6-5.4-21.2-10.7-31.6-16.1c3.7,8.8,16.7,9.6,21.9,16.8c-6.3,6.3-18.1,7.6-21.9,16.1C2612.4-1345.3,2624.5-1350,2633.8-1356.4z
		"/>
	<path id="path6426" d="M2494.7-1358.5c2.6,8.2-8.5,8.6-13.8,11.1c-13.5,7.4-24.8,18.2-35.1,29.5c-3.8,3.7-7.6-2.2-9-5.4
		c-7.3-10.6-12.9-22.1-19.3-33.2c6.8-10.6,12-22.2,19.4-32.5c1.3-3.6,5.9-9.5,9.5-4.9C2459.4-1378.3,2476.3-1366,2494.7-1358.5
		 M2484.6-1357.6c-4.1-4.9-11.3-4.9-14.4,1.1C2471.7-1348.5,2485.5-1349.9,2484.6-1357.6 M2471.8-1365.4
		c-10.9-6-18.5-16.7-28.6-23.1c-5.2,7-8.7,15.1-13.9,22.1c-14.8,14.6,9.5,28.8,13.9,42.7c9.8-6.9,17.9-16.9,28.6-23.1
		c-2.4-4.2-8.9-5-10.5-9.7C2463.9-1360.4,2469.2-1361.4,2471.8-1365.4z"/>
	<path id="path6428" d="M2392.8-1424.2c-3.2,14.8-14.4,27.6-21.5,41c-15.5-0.8-33.8,4-48.2-2.6c6.8-20,10.9-41.6,7-62.4
		c4.6-5.7,10.8,0.8,14.4,4.2C2358.2-1432.7,2378.4-1431.9,2392.8-1424.2 M2385.9-1421.2c-10.6-5.6-23.6-7.3-34.4-13.5
		c-0.5,4.3-0.5,8.7-1.1,13c-4.9,5-16.1-10.6-15,1.4c0.4,10.8-5.6,20.8-5,31.4c8.3,1.1,16.8-0.1,25.1,1.1
		C2376.2-1382.2,2376.6-1410.2,2385.9-1421.2 M2346.8-1435.3c-1-4.5-10.8-9.6-10.8-2.3C2332.1-1428.2,2349.1-1424.8,2346.8-1435.3z"
		/>
	<path id="path6430" d="M2392.8-1290.2c0.6,7.4-9.9,5-14.4,6.9c-13.5,5.7-28.9,8.6-39.4,19.7c-3.2,4.2-11.7,1-9-4.9
		c4.5-19.4-0.8-39.4-7-57.9c14.2-6.7,32-1.3,47.6-3C2378.8-1317.1,2386.9-1303.8,2392.8-1290.2 M2385.7-1291.8
		c-6.6-10.3-10-22.5-17.6-32c-12.2-2-25.2,1.4-37.6,0.3c0.4,12.2,6,24.1,5.3,36.8c4.8-0.9,8.6-5,13.6-4.7c2.9,3.5-0.1,11.4,2.7,13.7
		C2362.4-1284.1,2377.4-1285,2385.7-1291.8 M2346.7-1278.4c0.9-8.4-12.7-5.2-10.7,1.8C2333.7-1266.4,2347.8-1271.9,2346.7-1278.4z"
		/>
	<path id="path6432" d="M2301.7-1548c-2.2,15.7-21.8-5.4-29.7-5.7c-2,9.7,2.6,21.1-3.6,29.6c-4.2,2.2-8.4-3-8.5-6.9
		c-2-15.1-0.2-30.4-1-45.6C2272.7-1566.9,2292.6-1562.7,2301.7-1548 M2292.7-1551.2c-10-5.5-19-14.1-29.8-18.2
		c0.8,11.7,0.6,23.7,1.8,35.3c5.5-8,0-19.2,3.4-27.4C2276.2-1559.8,2285.5-1549.5,2292.7-1551.2z"/>
	<path id="path6434" d="M2301.9-1168.1c1.1,6.2-4.3,10.6-9,13.3c-11.6,6.1-22.1,14.2-34.3,18.9c1.1-13.8,0.1-27.6,0.7-41.4
		c-0.2-4.6,3-13.5,9.2-10.9c6.3,8.7,1.4,20.3,3.5,30.2C2281.9-1160.1,2291.7-1174.1,2301.9-1168.1 M2293-1161.7
		c-9.4,0.6-16.3,8.9-24.8,10.9c-3.9-7.5,1.9-19.4-3.4-27.3c-1.4,11.4-1,23.6-2,35.3C2273.5-1147.4,2283.6-1155.2,2293-1161.7z"/>
</g>
<g id="g6436" transform="matrix(0.42643926,0,0,-0.42643926,-480.29788,-254.56817)">
	<path id="path6438" d="M2221.8-866.7l0,71.7c-3.8,66.6,4.9,132.9-2.8,198.6l-2.7,0c-115.6-64-229.8-131.3-344.1-197.5
		c-21.1-10.3-40.1-24.7-60.4-36.6l0-0.9c53.2-34.4,109.1-64.2,163.9-96.2c41.4-27.5,87-48.4,129.1-74.9
		c37.3-20.8,73.5-43.4,111.6-62.9l2.7,0 M2214.3-853.7c-3.1-66.6-1.2-133.1-2.3-199.5c-62,33.5-122.7,71.4-186.2,103.8
		c-64.3,41-130.9,76.5-195.2,116.8c-5.2,0.2-3.5,3.8,0.8,3.6c50.9,32.6,104.2,61.6,156.4,92.7c19.5,14.3,40.5,27,62.9,36.1
		c53.8,31.2,107.5,61.7,161.3,91.7C2212-689.9,2213.5-771.8,2214.3-853.7z"/>
	<path id="path6440" d="M2211.5-848.6c2.8,8.5-4.3,16.7,0,24.9c6.9,16-17.2,34.8-27.5,18.3c-7.3,27.2-6.4,58-1,85.9
		c20.9-13.8,32.8,21.9,13.3,29.9c-30.2,9-37.1-30.6-56.5-43.3c2.5,20.1,18.8,36.3,18.2,56.8c-2.8,13.3-18.6,22-30,12.5
		c-11.2-4.2-7.8-20.9,1.8-24.8c-19.4-19.2-45.3-32-70.5-42.6c-1.4-0.8-3.3-0.5-4.5,0.5c6.6,10.4-4.7,21.6-15.8,20.6
		c-11.8-0.5-16.7-14.3-28.8-14.9c-15.4-4.2-17.3-30.3,0.2-31.9c-4.1-9.4-17.4-13.2-24.9-20.5c-16.2-8.1-31.3-19.4-49.3-23
		c2.5,11.7-12.3,22.3-21.9,13.1c-12.8-5-10.9-21.5-3.5-30.5c17.7-11.8,42.1-4.8,59.9-13.9c-19.2-7.1-40.4-2.5-58.9-12.1
		c-8.3-8.7-10.8-26.2,2.5-31.5c9.6-9.1,24.4,1.5,21.9,13.2c25.7-7.2,49.1-21.9,70.1-38.1c1.5-1.3,6.9-4.8,2.6-5.7
		c-11.5-1.7-14.3-17-7.3-25.1c6.3-9,19.8-6.8,25.5-16.5c10.8-10.4,32.9-2.6,29.5,13.1c-2.6,1.3-1.7,4.1,1.2,3.6
		c25.2-9.6,48.9-23.1,69.8-40.2c5.3-3.5-2.6-5.3-4.4-8.4c-11.5-17.1,19.7-32.6,29.4-16.2c16.7,21.6-13.4,45-12.2,66.5
		c13.9-10.8,19.1-29.1,33.3-39.6c9.5-11.7,34-4.1,32,12.2c3.8,13.6-13,20.3-23,13.7c-4.5,28.1-7.3,58.8,1,86.1
		C2191.7-869.2,2209.3-861,2211.5-848.6 M2206.4-847.7c-0.8-7.9-12.2-13.3-17.5-6.3c-5,3.7,4.5,15,5.6,6.4c5.7-3.5,6.5,10.2,0.3,9.4
		c-13.2-1.9-15.7-17.9-18.5-28.4c-5.2-28.7-4.4-60,5.7-87.4c5.2-11.4,17.5,3.6,5.2,1c-5.3,8,11.4,13,12.7,2.7
		c6.8-15.3-14.9-22.3-23.3-11.1c-15.2,29-12.8,63-8.9,94.4c2.8,13.7,6.8,30.7,21.8,35.8C2199.6-827.8,2209-838.1,2206.4-847.7
		 M2206.4-819.7c-1-11-15.8-14.3-23.3-7.4c-12.4,10.5-15.3,27.6-17,43c-1.7,27-3.5,55.7,8.8,80.7c2.4,7.2,12,10.5,18.7,8.2
		c10.9-2.6,9.2-22.5-2.5-22.1c-5.9,1.1-7.1,12.3,0.7,8.2c4.7,8.1-10.1,7-11.1-0.2c-9.3-30.9-10.3-64.6-1.8-95.9
		c2.5-7.9,6.6-17.1,15.9-18.1c6.2-0.9,5.4,12.9-0.3,9.4c-1.3-9-11,3.5-5,6.9C2197.1-798.9,2209.9-810.5,2206.4-819.7 M2179.6-831.1
		c-11.7-9.8-14.5-25.9-16.8-40.2c-2.8-25.3-3.4-50.9,2-75.9c-8.9,6.5-9.7,22-9,32.9c1.1,28-1.6,60.5,16.7,83.8
		c-14.6,16.8-15,40.3-16.7,61.3c1.6,17.8-4.7,40.5,8.1,54.7C2161.6-750.6,2153.2-799.6,2179.6-831.1 M2165.5-831.1
		c-17.2-29.7-15.2-66-13.6-98.9c-7.4,1.4-11.4,11.9-19.4,13.3c-0.6-7.8,2.8-14.8,3.1-22.4c-28.6,16.5-58.8,36.9-93.1,37
		c-17.6,29.2-50,46.7-79.7,61.9c5.7,4.4,16.5,4.1,21.7,9.7c-6.5,4.5-15.7,4.9-21.7,9c29.5,15.6,62.2,32.2,79.4,61.9
		c34,0.2,64.5,19.9,92.6,37c1.9-5.8-4.2-15.1-2.4-22.4c7.9,1.6,11.9,11.5,19.3,13.5C2150.3-764.7,2148.9-801.1,2165.5-831.1
		 M2150.3-985.3c-0.2-8.7-10.7-15.1-18.2-9.2c-8.7,3-6.8,19.5,4.1,15c4.8-2.6-4.3-6.3,0-8.6c8.2-1.6,6,11.4,1.6,14.8
		c-20.5,19.8-44.8,35.8-72,44.8c-10.2,2.8-23.9,6.9-31.9-2.3c-4.9-8.1,13.7-10,6.1-2.3c2.9,7.6,15.5-0.8,10.4-7.7
		c-7.1-14.3-29.7-0.2-22.6,12.4c3.4,10.6,15.6,11.4,24.9,11.5c28.6-5.2,54.2-20.6,77.6-37C2138.1-963.4,2151.9-971.6,2150.3-985.3
		 M2150.3-682.9c-18.7-32.8-56.8-49.9-91.6-60.7c-11.8-2.7-29-1.3-32,13.1c-3.1,13.5,20.5,22.9,24.4,7.6c4.2-8.9-15.9-11.3-9.3-3
		c0.5,6.2-12.2,0.4-7.9-4.7c8-9.7,22.2-5.2,32.5-2.1c24.7,7.7,46.4,22.2,65.7,39.2c6.1,4.2,12.5,12.3,8,19.8
		c-5.1,2.7-6.4-2.9-2.5-5.6c-2.7-8.2-17,0.5-10,8.1C2135.5-657.9,2155.1-668.7,2150.3-682.9 M2143.8-959.3c-10,6.4-17.8,16-29,21
		c-25.2,12.9-51.5,30.9-79.9,24.2c-2.1,13.1-12.2,22.8-21.9,31c-21.5,16.7-45.1,31.5-71,39.9c4.9,4.2,16.8-0.1,22.8-3.2
		c27.4-16.5,60.6-30.6,74.1-61.8c24.2,4.1,46.1-9.1,66.9-19.2C2119.1-937,2139-941.6,2143.8-959.3 M2143.5-703.9
		c-2.7-7.5-8.3-13-14.9-17.1c-27.9-14.9-56.3-36.9-89.6-32.5c-8.2-21.5-28.5-34.1-46.7-46.2c-15.8-8.3-31.1-22.2-50.1-20.2
		c-0.5,3.7,5.8,3.2,7.6,4.7c13.9,3.1,25.4,11.6,37.6,18.4c18.2,13.1,42.2,25.3,47.6,49.2c17.1-4.9,32.8,1.4,48.9,8.2
		c19.9,9.9,40.8,19.4,56.7,35.4C2141.3-702.8,2144.8-701.3,2143.5-703.9 M2030.3-919.4c0.3-16.4-25.1-17.9-26.9-2.3
		c-4.9,11.6,15.9,15.6,13.9,2.9c-4.2,1.5-9.9-2.5-3.2-5.4c10.8-5.2,9.4,12.1,4.5,16.7c-19.7,25.6-49.2,40.2-78.6,50.5
		c-6.4,3.3-19.1,5-21-4.1c1-2.7,4.7-4.3,5.1-0.4c2.8,7.3,10.8-5.1,5.4-7.5c-8.8-9.2-25.8,5-17,15.5c9.8,13.9,27.6,3.8,40.9,1.9
		c19.6-8.8,38.5-20,55.6-33.3C2019.2-894.2,2030.9-904.5,2030.3-919.4 M2030.3-745.3c-2-16.9-16.5-27-28.3-37.1
		c-20.9-13.8-42.7-28.7-68.2-31.9c-9.3-4-23.4,1.9-22.9,13c-1.2,10,14.6,16.6,20.4,7.5c1.5-3.6-4.3-12.7-7-6.1
		c-1,5.8-7.8-0.7-3.8-3.7c6.1-6.2,16.5-2.7,23.2,0.6c18.8,6.5,36.3,14.9,52.3,26.7c10.6,9.7,27.9,19.8,26,36.2
		c0.4,8.4-16.1,1.2-8.8-2.9c8.8,3.4,2.2-11.1-3.7-7.8c-9.4,2.3-7.6,15.3-0.6,19.6C2018.6-723.7,2032.1-734,2030.3-745.3
		L2030.3-745.3z"/>
	<path id="path6442" d="M2205.9-1042c-0.5,21.2,1.2,42.7-1.9,63.7c-1.8,5.5-9.3,1.8-9.9-2.6c-0.3-13.2-1.8-26-1-39.2
		c-11.3,6-22.4,11.6-33.5,17.7c-4.8,4.2-13.6-3.5-7.8-7.9C2169.2-1021.5,2187.3-1033.8,2205.9-1042 M2201.2-1034.2
		c-11.3,5.3-21.5,12.9-32.7,18.5c-1.6,0.2-2.3,3.3,0,2c8.7-4.6,18-8.5,27.4-11.3c1.3,8.1,2.9,16.3,3,24.6c-3.8,4,6.2,11.2,2.2,1.2
		C2200.8-1010.9,2200.7-1022.6,2201.2-1034.2z"/>
	<path id="path6444" d="M2205.4-666.9c1,15.8,0.2,31.7,0.5,47.5c-18.4-8.8-36.3-20.2-53.5-31.4c-5.8-3.7,0.3-11.5,5.9-9.1
		c10.8,6.1,22.1,10.9,32.6,17.6c9.5-6.5-7.8-39.3,10.7-43.9C2207.3-681.7,2203.7-673.1,2205.4-666.9 M2201-667.3
		c-4.7,7-2.6,21.1-5.2,30.6c-10-2.8-19.5-7.5-28.9-11.6c9.2,8.2,23.1,14.3,34.2,20.8C2200.6-640.7,2200.8-654,2201-667.3L2201-667.3
		z"/>
	<path id="path6446" d="M2146.6-836c-18.4,4.3-41.9,0.8-62.1,2.2c-8.5-18.5-21.1-34.7-28.6-53.4c21,0,43.3-8.1,60.7-20.9
		c5.6,2.2,0.9,10.2,4,13.7c3.9-1.1,9.2-7.7,13-3.6C2132.2-877,2133.5-853.4,2146.6-836 M2137.6-841.1c-5.1-11.8-7-24.5-8.9-37.1
		c-8.7,1.3-15,9-24,9.6c-1.8-8.3-0.7-16.7-2.4-24.9c-12.8,3.1-24.7,9.4-38,10.4c3.2,16.3,17.3,29.6,22.7,45.6
		C2102.4-841.5,2125.7-833.5,2137.6-841.1 M2128.6-890.9c-4.1-3.7-9.2,3.9-13.7,4.4c0.1-4.4,2.3-11.3-2.1-13.7
		c-10.9,3.4-3.1,17-4.2,24.7C2115.2-880,2131-879.2,2128.6-890.9z"/>
	<path id="path6448" d="M2147-826.4c-13.1,17.9-14.7,41.6-13.3,62.8c-4.6,6.1-15.4-11.1-13.9,1.2c0,3.2,0,10.4-5.1,8.1
		c-16.3-13.3-38.6-20-58.8-20.3c7.5-18.6,20.2-35.2,28.8-53.3C2105.2-827.3,2126.4-828.7,2147-826.4 M2137.9-822.1
		c-16.5-3.5-34.1,0.7-50.8-2.1c-5.4,16.1-19.2,29.3-22.9,45.6c13.5,0.8,25.4,7.5,38.2,10.4c1.6-8.2,0.6-16.6,2.4-24.9
		c9,0.7,15.3,8.3,23.9,9.6C2131.2-796.5,2132.8-809.8,2137.9-822.1 M2128.4-774.8c-1.8-8-14.1-7.1-19.7-11.3
		c0.3,8-6.3,21.2,4.2,24.7c4.3-2.4,2.2-9.3,2-13.7C2118.2-774.5,2131.1-763.4,2128.4-774.8L2128.4-774.8z"/>
	<path id="path6450" d="M2080.4-831.2c-11.9,16.8-19.7,37-32.6,52.9c-9.3-18.2-27-33.5-45.8-41.1c-6.3-5,4.9-9.2,8.8-11
		c-2.3-3.3-13.6-4.8-10-10.9c18.1-8.1,36.1-21.5,45.5-39.6c1.8-6,5.7,2.2,6.7,4.6C2063-861.7,2069.7-845.6,2080.4-831.2
		 M2075.6-831.2c-10.9-12.6-15.7-30-27-41.9c-8.6,8.8-18.6,18.7-28.8,26.8c5.8,6.2,13.8,9.2,19.7,15.2c-4.7,6.7-14,9.4-19.7,15.8
		c10.2,8.1,20.2,18,28.8,26.8C2059.7-800.8,2065.5-818.1,2075.6-831.2 M2031.4-831.1c-7.3-3.1-13.9-16.8-22.4-9.1
		c-3.7,5.3,8.2,6,9.8,9.7c-3.3,2.6-10.1,3.4-10.7,7.8C2015.9-812.7,2025.3-827.2,2031.4-831.1z"/>
	<path id="path6452" d="M1899.6-859.8c-1.1,15.3-24,19.2-34.4,28.8c8.9,9.9,35,14.1,34,30.1c-21.8-2.8-40.4-20.5-61-29.6
		c12.6-8.3,27.9-15.6,41.2-24.1C1886.5-854.5,1893-865.8,1899.6-859.8 M1882.7-850.2c-11.6,5.5-22.6,12.8-34,18.9
		c10.4,7.3,22.5,14,34,19.8c-6.7-6.6-16.2-13.1-24.6-19C1865.3-837.3,1876.4-843.2,1882.7-850.2L1882.7-850.2z"/>
</g>
<g id="g6692" transform="matrix(0.40241451,0,0,0.40241451,-640.29789,-687.7946)">
	<path id="path6694" d="M1675.6,2355.1v-0.9c57.2-28.6,112.6-61.5,168.5-92.2c57.9-30.1,112-66.6,168.9-98.4
		c30.2-20.2,62.9-36.5,92.6-57.5h0.9l0,14.3c-5.3,156.1-6,312.3,0,468.3l0,14.3l-0.9,0c-29.7-21-62.4-37.3-92.6-57.5
		c-56.9-31.8-111-68.3-168.9-98.4C1788.2,2416.6,1732.8,2383.7,1675.6,2355.1 M1692.6,2355.1c63.5,32.8,125.9,67.8,188,103.1
		c-1.7-9.3-15.9-7.4-18.5-16.6c-0.9-6.7,3.5-12.3,7.4-17.3c-20.4-21-46.7-35.1-73.6-46c-2.6,1.3-1.3,4.7-2.2,6.9
		c-5.9,14.3-31,6.8-30.1-7.9c0.2-13.2,13.8-21.8,26-22.1c-10.3-3.3-23.7-7.3-26-20.2c-3.6-15.7,21.6-25.6,29.5-12.1
		c2.3,2.3-0.5,6.8,2.9,8c26.8-10.4,53.2-25,73.6-45.8c-4.4-4.9-8.8-11-7.2-18c3.1-8.6,16.8-6.6,18.2-15.9
		C1818.7,2287,1754.6,2321,1692.6,2355.1 M1768.9,2378.3c-0.4,13.2,25.7,10.3,16.7-2.2c-4.2-6.3-6.8,6.2-8.9,1.1
		c2-9.1,13.6-5.6,19.9-4.2c31.4,12.1,65.2,27,83.6,56.7c4.7,3.5-2.9,15.9-3.2,6.9c2.1-7.7-9.2-6-9.4-0.2
		c-2.7,12.4,19.2,16.3,20.9,3.5c2.4-11.8-5.7-23-14.1-30.7c-19.7-19.2-44.5-32.6-70.3-41.7
		C1792.4,2361.2,1769.4,2360.1,1768.9,2378.3 M1768.9,2332c0,12.9,15.3,15.7,25.1,13.2c26.8-8.3,52.7-21,74.2-39.4
		c10.4-8.9,22.4-21,20.6-35.8c-0.9-11.7-19.6-11.2-21.1-0.7c-2,4.3,3.8,10.8,8,8.2c3.3-2-1.4-8.5,3.6-8.3c3.3,3.9,1.5,9.7-1,13.6
		c-12.7,19.6-33.8,31.6-54.1,42c-14.2,5-27.9,15.7-43.5,12.6c-4.2-0.3-5.2-10.4-1.1-5.2c1.3,6.1,10.7,0.1,7.5-4.3
		C1785.5,2317.4,1767.4,2322.1,1768.9,2332 M1801,2359.7c33.1,15.9,69.8,32.4,89.7,65c4.5,9.7-0.3,20.8-5.1,29.5
		c0.7,4.8,5.2,2.4,6.1-1c4.1-9.6,14.5-19.8,8.8-30.9c-20.9-31.6-55.1-52-90.7-63.2C1807.4,2358.5,1801.2,2357.3,1801,2359.7
		 M1800.6,2350.3c7.5,2.2,14.5-2.5,21.6-4.4c30.7-11.9,59.9-31,78.3-58.9c5.3-11.7-4.9-22.9-10.1-32.9c-1.1-4.8-7.2,0.5-3.8,2.9
		c5.1,7.7,7.7,18.1,4.4,26.9C1871.4,2317.5,1833.3,2333.4,1800.6,2350.3 M1818.5,2356.9c34.6,12.9,68.9,35.1,88.9,66.3
		c13.4-22.7,25.3-46,39.7-68.3c-14.1-22.6-26.3-46.1-39.7-68.8c-20.2,31.2-54.3,53.3-88.9,66.2
		C1822,2355.8,1822,2353.5,1818.5,2356.9 M1893.8,2456.2c11,7.1,7.7-20.9,21.4-17.3c1.6,7.8-2,16.1-8.3,20.7
		c-3.3,1.9,0.4,6.8,3.4,5.4c4.3-10.9,16.9-19.9,8.8-32.4C1903.2,2428.7,1900.8,2446.8,1893.8,2456.2 M1894,2253.4
		c6.3,7.8,7.6,22.9,19.9,23.3c7.5,2.8,6.5-7,8.3-11.5c-2.5-7.1-9-12.2-11.2-19.5c-1.3-4.1-7.8,1.1-4.7,3.6c6.4,5,11.4,13.7,8.3,21.8
		C1901.3,2272.3,1904.3,2245.9,1894,2253.4 M1894.2,2467C1904.5,2475.3,1899.6,2458.6,1894.2,2467 M1894.8,2243.7
		C1904.2,2248.1,1898.1,2233.7,1894.8,2243.7 M1911.7,2470.7c0.1,1.6,2.9,1.1,4.1,1c4.5-9.8,13.7-20.1,25.4-19.2
		c37.6,2.1,69.5,25,99.5,45.5c-1.3-8.8-10.7-11.2-15.5-17.5c-26.8-21.2-59.6-38.5-94.6-37.1
		C1921.3,2449.5,1915.9,2461,1911.7,2470.7 M1911.7,2426.1c8.3-2.2,11.5,2.6,15.1,8.8c13.3-22.4,28.1-46.9,41.9-70
		c27.1-0.3,54.6-1.9,81.7-0.9c0.5-3.8-3.1-6-4.7-9c0.7-3.5,5.4-5.7,4.6-9.7c-27.2,0.9-54.6-0.8-81.8-0.6
		c-12.4-22.5-26.5-44-39.4-66.2c-0.5-7-5.8-2.3-6.2,2.1c-1.2,5.8-10.2-1.1-11.4,3.5c13.6,20.7,23.2,44.1,37.1,64.8
		c5.1,7-1.8,14.4-5.1,20.4C1931.6,2387.3,1923.1,2408,1911.7,2426.1 M1912,2240.8c6.5,10.2,12,28.5,27.4,25.3
		c32-2.3,61.1-17.9,85.8-37.3c5.2-5.9,14-9,15.5-17.5c-29.8,20.4-61.4,42.9-98.7,45.5c-11.2,1.1-20.7-7.9-25.2-17.4
		C1916.3,2235.8,1909.6,2237.2,1912,2240.8 M1914.8,2478.7c62.6,34.5,123,73,183.9,110.3c-3.1-71.5-5.2-142.9-4.1-214.5
		c-6.9,1-1.7,13.2-3.5,18c-0.2,9.9-13.6,11.1-20.6,7.8c-9.9,27.8-6.6,58.3-3.5,87.1c3.3,2.8,6.9-4.4,10.9-0.8
		c15.6,2.2,15.4,30.4-1,31.6c-11.6,2.3-20.2-5.4-27.5-13c4.9,10.5,5.3,24.6-4.6,32.5c-11.5,9.5-31.7-6-24.5-19.4
		c0.3-3.4,6.3-4,4.8-7.7c-22.8-17.2-47.6-33.8-75.7-40.3c-1.1,8.2-9.6,19.4-18.6,13.9C1925.1,2483.8,1919.8,2472.8,1914.8,2478.7
		 M1914.8,2232.2c8.6,0.5,14.2-9.6,23-8.5c7.2,2,9.6,9,11.6,15.3c28.1-6.7,53-23,75.7-40.3c1.5-3.7-4.5-4.3-4.8-7.7
		c-7.3-13.4,13-28.9,24.5-19.4c10,7.8,9.3,21.9,4.6,32.5c8.1-10.5,25.4-19.4,36.6-8.2c10.4,12.3-2.9,34.1-18.4,25.3
		c-6,28.1-5.5,59.8,2.7,87.8c7.6-4.1,21.7-1.4,21,9.3c0.2,4.5-3,15.5,3.2,16.5c-1.2-71.6,1.2-142.9,4.1-214.4
		c-60,36-119.1,74.5-180.6,108.2C1916.8,2229.6,1914.1,2230,1914.8,2232.2 M1923.2,2472c2,13.6,27.2,8.3,16.1-3.7
		c-7.5,7.4-11.8-2.6-0.2-3.9c33.8-0.4,62.6,21.5,88.4,40.8c5.7,6.2,16.9,13.7,8.9,22.9c-3.3-2,2.7-9.4-5.1-9.8
		c-13.7,3.2-2.2,21.8,8.3,16.3c11-5.1,8.4-20.4,0.9-27.4c-27.3-25.1-60.9-49.1-99.1-50.6C1933.1,2456.3,1920.8,2461.9,1923.2,2472
		 M1923.1,2241.9c4,11.5,18.8,11.7,29,10.6c32.8-7,62.1-25.7,86.5-48.3c6.7-5.9,11.9-16.8,6-25c-4.2-9.7-20.2-4.4-19.7,5.4
		c1.1,4,5.9,8.8,9.7,4.7c4.6-1.3-2.8-7.3,1.8-8.1c3.3,2.9,3.7,8.4,1.3,12.1c-10,12.6-24.1,20.6-36.7,30.4
		c-20.4,10.3-42.7,26.1-66.5,19.8c-5.8,0.1-2.3-10,1-4.2c5.3,5.6,9.9-5.4,4.4-8.4C1932.7,2225,1921.3,2233.3,1923.1,2241.9
		 M1932,2438c38.4-0.3,72.9,21.4,102.6,43.2c-2.4-6.5-1.6-4.2,3.2-2.2c-7.3-36.9-3.9-77.2,12.6-110.8c-26.3,1.1-52.7,1.2-79-0.2
		C1959.4,2391.9,1943.1,2414.5,1932,2438 M1931.8,2273.7c13.9,22,27,44.4,39.2,67.5c26.3-2.2,54.2,0.4,79.4-0.8
		c-17.7-33.2-19.8-73.4-12.8-110c-2.1-1.3-5.6,5.5-4.5,1.7c3.5-8.3-6.6,1.2-9.2,3.6c-26.8,18.8-58.1,36.2-91.8,35.7
		C1932,2271.9,1931.9,2273.1,1931.8,2273.7 M2039,2449.7c1.4,14.3,1.2,31.2,9,43.3c-1.3-36-7.3-80,14-113.4
		c6.3-10,23.5-2.4,27.9-11.6c-12.1-0.3-32.9-5.3-38.3,10.2C2041.1,2400.4,2037.3,2425.4,2039,2449.7 M2039,2279.6
		c1.7,20.2,5.4,41.2,16.7,58.4c10,5.5,23.2,4.4,34.1,3.3c-4.5-9.1-21.8-1.9-28.4-12c-19.3-32.2-16.5-72.1-12.8-108.1
		c2.3-9.1-3.6-3.2-4.2,0.3C2039.9,2240.4,2037.6,2260.1,2039,2279.6 M2050,2457.6c2,14.4,2.7,29.1,7,43c3.6,7.3,11.6,15.1,20.5,11.8
		c10.7-1.8,8.5-22.9-3.4-19c-6.1,0.2-5.2,12.1,2.1,9c0.5,6.3-10.6,0.7-11.2-3.9c-9.1-29.2-8.7-60.7-3.7-90.6
		c3.6-8.7,5-20.4,15.4-23.8c4.1-0.4,3,4.9-0.6,4.5c-6.9,2.5,2,11,6.4,7.6c8.7-3.8,5.8-19.2-3.3-20.2c-7.6-1.1-13.4,4.8-17.5,10.3
		C2049.7,2407.8,2049.4,2433.7,2050,2457.6 M2050.1,2269.6c1.3,19.8,1.9,42.5,15.8,58.1c5.7,7.7,21,7.7,21.6-3.9
		c2.9-8.1-8.8-16-13.5-8c-3.9,5.6,9.3,4.5,4.2,9.2c-11.1-0.8-12.9-14.5-16.8-22.8c-6.1-26.2-3.8-53.5,0.2-79.8
		c1.4-7.7,4.1-19.9,14.8-18.1c0.9,5.9-11.4,0.9-5.4,10.1c10.8,8.5,18.3-10.3,9.4-16.2c-11.4-6.7-23.9,5.6-25.3,16.7
		C2051.9,2232.8,2048.3,2251.2,2050.1,2269.6 M2052.8,2355.2c6.2,13.6,21.7,8.1,33.4,8.5c0.8-13.1-22.4,3.9-26.8-9.4
		c6.5-6.4,15.5-5.6,23.5-3.4c3.7,2,5.5-7,0.9-5.6C2072.7,2345.6,2056.4,2341.7,2052.8,2355.2 M2090.6,2355.8
		C2098.4,2363.7,2092,2343.4,2090.6,2355.8z"/>
	<path id="path6696" d="M1707.9,2355c12.5-7.9,26.7-16.1,40.5-22.7c3.8-2.1,12.5,0.4,9.3,5.9c-4.8,8.9-17.1,10.2-24,16.9
		c8.2,6,21.2,7.8,24.8,18.3c-0.4,4.1-6.3,5-9.5,3.9C1734.7,2371.1,1721.8,2362,1707.9,2355 M1715.8,2355
		c10.6,5.3,21.2,10.7,31.6,16.1c-3.8-8.8-16.8-9.6-21.9-16.8c6.2-6.3,18.1-7.6,21.9-16.1C1737.2,2344,1725.1,2348.6,1715.8,2355z"/>
	<path id="path6698" d="M1855,2357.1c-2.6-8.2,8.5-8.6,13.8-11.2c13.4-7.4,24.8-18.2,35.1-29.5c3.8-3.7,7.6,2.2,9,5.4
		c7.3,10.6,12.9,22.1,19.3,33.2c-6.8,10.6-12,22.2-19.3,32.5c-1.3,3.6-5.9,9.5-9.5,4.9C1890.3,2376.9,1873.4,2364.6,1855,2357.1
		 M1865,2356.2c4.2,4.9,11.3,4.9,14.4-1.1C1878,2347.1,1864.1,2348.5,1865,2356.2 M1877.9,2364c10.9,6,18.5,16.7,28.6,23.1
		c5.2-7,8.7-15.1,13.9-22.1c14.8-14.6-9.5-28.8-14-42.7c-9.8,6.9-17.9,16.9-28.6,23.1c2.4,4.2,8.9,5,10.5,9.7
		C1885.7,2359,1880.4,2360,1877.9,2364z"/>
	<path id="path6700" d="M1956.9,2422.8c3.2-14.9,14.4-27.6,21.5-41c15.5,0.8,33.7-4,48.2,2.6c-6.8,20-10.8,41.6-7,62.5
		c-4.6,5.7-10.8-0.8-14.4-4.2C1991.5,2431.3,1971.3,2430.4,1956.9,2422.8 M1963.8,2419.8c10.6,5.6,23.6,7.3,34.4,13.5
		c0.5-4.3,0.5-8.7,1.1-13c4.9-5,16.1,10.6,15-1.5c-0.4-10.8,5.5-20.8,5-31.4c-8.3-1.1-16.8,0.1-25.1-1.1
		C1973.4,2380.8,1973.1,2408.8,1963.8,2419.8 M2002.8,2433.9c1,4.4,10.8,9.5,10.8,2.3C2017.6,2426.8,2000.6,2423.4,2002.8,2433.9z"
		/>
	<path id="path6702" d="M1956.8,2288.8c-0.6-7.4,9.9-5.1,14.3-6.9c13.5-5.7,28.9-8.6,39.4-19.7c3.2-4.2,11.6-1,9,4.9
		c-4.5,19.4,0.8,39.4,7,57.9c-14.2,6.7-32,1.3-47.6,3C1970.8,2315.7,1962.7,2302.4,1956.8,2288.8 M1963.9,2290.4
		c6.6,10.3,10,22.5,17.6,32c12.3,2,25.2-1.5,37.6-0.3c-0.4-12.2-6-24.1-5.4-36.7c-4.8,0.9-8.6,5.1-13.6,4.7
		c-2.9-3.5,0-11.4-2.7-13.7C1987.2,2282.7,1972.2,2283.6,1963.9,2290.4 M2002.9,2277c-0.9,8.5,12.8,5.2,10.7-1.8
		C2015.9,2265,2001.8,2270.5,2002.9,2277z"/>
	<path id="path6704" d="M2048,2546.6c2.2-15.7,21.8,5.3,29.7,5.6c2-9.7-2.6-21.1,3.6-29.6c4.2-2.2,8.4,3,8.5,6.8
		c2,15.1,0.2,30.4,1,45.6C2077,2565.4,2057.1,2561.3,2048,2546.6 M2057,2549.7c10,5.5,19,14.1,29.8,18.2
		c-0.8-11.7-0.6-23.7-1.8-35.2c-5.5,8,0,19.2-3.4,27.4C2073.5,2558.4,2064.2,2548.1,2057,2549.7z"/>
	<path id="path6706" d="M2047.7,2166.6c-1.1-6.2,4.3-10.6,9-13.3c11.6-6.1,22.1-14.2,34.3-18.9c-1.1,13.8-0.1,27.6-0.7,41.4
		c0.2,4.6-3,13.5-9.2,10.9c-6.3-8.6-1.4-20.3-3.5-30.2C2067.7,2158.7,2057.9,2172.7,2047.7,2166.6 M2056.6,2160.3
		c9.4-0.6,16.3-8.9,24.8-10.9c3.9,7.5-1.9,19.4,3.5,27.2c1.4-11.4,0.9-23.6,2-35.3C2076.1,2145.9,2066.1,2153.7,2056.6,2160.3z"/>
</g>
<g id="g6708" transform="matrix(0.42643926,0,0,0.42643926,-480.29788,-719.19405)">
	<path id="path6710" d="M1132.3,1956.3l0-71.7c3.8-66.6-4.9-132.9,2.8-198.6l2.7,0c115.6,64,229.8,131.2,344.1,197.5
		c21.1,10.3,40.1,24.7,60.5,36.6l0,0.9c-53.2,34.4-109,64.3-163.8,96.2c-41.4,27.5-87,48.5-129.1,74.9
		c-37.3,20.8-73.5,43.4-111.6,63l-2.7,0 M1139.8,1943.4c3.2,66.6,1.2,133.1,2.3,199.5c62-33.5,122.7-71.5,186.2-103.9
		c64.3-41,130.9-76.6,195.2-116.8c5.2-0.2,3.5-3.8-0.8-3.6c-50.9-32.6-104.2-61.6-156.4-92.6c-19.5-14.3-40.5-26.9-62.9-36.1
		c-53.8-31.2-107.6-61.6-161.3-91.7C1142.1,1779.6,1140.7,1861.5,1139.8,1943.4z"/>
	<path id="path6712" d="M1142.7,1938.3c-2.8-8.5,4.3-16.7,0-24.9c-6.9-16,17.2-34.8,27.5-18.3c7.3-27.2,6.4-58,0.9-85.9
		c-20.9,13.8-32.8-21.9-13.3-29.9c30.2-9,37.1,30.6,56.5,43.3c-2.5-20.1-18.8-36.3-18.2-56.8c2.8-13.3,18.6-22,29.9-12.5
		c11.2,4.1,7.8,20.8-1.8,24.8c19.4,19.2,45.3,32,70.5,42.6c1.4,0.8,3.3,0.5,4.5-0.5c-6.6-10.4,4.7-21.6,15.8-20.6
		c11.8,0.5,16.7,14.3,28.8,14.9c15.4,4.1,17.3,30.3-0.2,31.9c4.1,9.4,17.4,13.2,24.9,20.5c16.2,8,31.3,19.4,49.3,23
		c-2.5-11.7,12.3-22.3,21.9-13.1c12.8,5,10.9,21.5,3.6,30.5c-17.7,11.8-42.1,4.8-59.9,13.9c19.2,7.1,40.4,2.5,58.9,12
		c8.3,8.6,10.8,26.2-2.5,31.5c-9.6,9.1-24.4-1.5-21.9-13.1c-25.7,7.2-49.1,21.9-70.1,38.1c-1.5,1.4-6.9,4.8-2.6,5.7
		c11.5,1.7,14.3,17,7.3,25c-6.3,9-19.8,6.8-25.5,16.5c-10.8,10.4-32.8,2.7-29.5-13.1c2.5-1.3,1.7-4.1-1.2-3.6
		c-25.1,9.6-48.9,23.2-69.8,40.2c-5.3,3.5,2.6,5.3,4.4,8.4c11.5,17.1-19.7,32.6-29.4,16.3c-16.7-21.6,13.4-45,12.2-66.6
		c-13.9,10.9-19.1,29.1-33.3,39.6c-9.5,11.7-34,4.1-32-12.2c-3.8-13.6,13-20.3,23-13.7c4.5-28.1,7.3-58.9-1-86.1
		C1162.5,1958.9,1144.8,1950.6,1142.7,1938.3 M1147.7,1937.4c0.8,7.9,12.2,13.3,17.5,6.3c5-3.7-4.5-15-5.6-6.3
		c-5.7,3.5-6.5-10.2-0.3-9.4c13.2,1.9,15.8,17.9,18.5,28.4c5.2,28.7,4.5,60-5.7,87.4c-5.2,11.4-17.5-3.5-5.2-1
		c5.3-8-11.5-12.9-12.7-2.6c-6.7,15.3,14.9,22.3,23.3,11.1c15.2-29,12.8-63,8.9-94.5c-2.8-13.7-6.9-30.7-21.8-35.8
		C1154.6,1917.5,1145.2,1927.8,1147.7,1937.4 M1147.7,1909.4c1,11,15.8,14.3,23.4,7.3c12.4-10.5,15.3-27.6,17-43
		c1.6-27,3.5-55.7-8.8-80.7c-2.5-7.1-12-10.5-18.7-8.2c-10.8,2.6-9.2,22.5,2.5,22.1c5.9-1.1,7.1-12.4-0.7-8.1
		c-4.7-8.1,10-7,11.1,0.2c9.3,30.9,10.3,64.6,1.8,95.8c-2.5,7.9-6.6,17.1-15.9,18.1c-6.2,0.9-5.4-12.9,0.3-9.4c1.3,9,11-3.6,5-6.9
		C1157,1888.6,1144.2,1900.1,1147.7,1909.4 M1174.5,1920.8c11.7,9.8,14.5,25.9,16.8,40.2c2.9,25.3,3.4,50.9-2,75.9
		c8.9-6.5,9.7-22,9-32.9c-1.1-28,1.6-60.5-16.7-83.8c14.6-16.8,15-40.4,16.7-61.3c-1.7-17.8,4.7-40.6-8.1-54.7
		C1192.6,1840.2,1200.9,1889.2,1174.5,1920.8 M1188.6,1920.8c17.2,29.6,15.3,65.9,13.6,98.9c7.4-1.4,11.4-11.9,19.3-13.4
		c0.6,7.7-2.8,14.9-3.1,22.4c28.6-16.5,58.8-36.9,93.1-37c17.5-29.2,50-46.7,79.7-61.9c-5.7-4.4-16.5-4.1-21.7-9.7
		c6.4-4.5,15.7-4.9,21.7-9c-29.5-15.6-62.2-32.2-79.4-61.9c-34-0.2-64.5-19.9-92.6-37c-1.8,5.8,4.2,15.1,2.4,22.4
		c-7.9-1.6-11.9-11.5-19.3-13.5C1203.8,1854.4,1205.3,1890.7,1188.6,1920.8 M1203.8,2075c0.2,8.7,10.7,15.1,18.2,9.2
		c8.6-3,6.8-19.5-4.1-15c-4.8,2.6,4.3,6.3,0,8.6c-8.2,1.6-6-11.4-1.6-14.8c20.5-19.8,44.8-35.8,72-44.8c10.2-2.8,23.9-7,31.9,2.3
		c4.9,8.1-13.7,10-6.1,2.3c-2.9-7.6-15.5,0.8-10.4,7.7c7.1,14.2,29.7,0.2,22.6-12.5c-3.4-10.6-15.6-11.4-24.9-11.5
		c-28.6,5.3-54.2,20.6-77.6,37.1C1216.1,2053,1202.3,2061.2,1203.8,2075 M1203.8,1772.6c18.7,32.8,56.8,49.9,91.6,60.7
		c11.8,2.7,29,1.3,32-13.1c3.1-13.5-20.5-22.9-24.4-7.6c-4.2,8.9,15.9,11.3,9.3,3c-0.5-6.2,12.2-0.4,7.9,4.7
		c-8,9.7-22.2,5.2-32.5,2.1c-24.7-7.7-46.5-22.2-65.7-39.2c-6.1-4.2-12.5-12.2-8-19.8c5.1-2.7,6.4,2.9,2.5,5.6
		c2.7,8.1,17-0.5,10-8.1C1218.6,1747.6,1199,1758.3,1203.8,1772.6 M1210.3,2048.9c10-6.4,17.8-16,29-21
		c25.2-12.9,51.5-30.9,79.9-24.2c2.1-13.1,12.2-22.8,21.9-31c21.5-16.7,45.1-31.5,71-40c-4.9-4.1-16.8,0.1-22.8,3.2
		c-27.4,16.5-60.6,30.6-74.1,61.8c-24.2-4.1-46.1,9.1-66.9,19.2C1235.1,2026.6,1215.2,2031.2,1210.3,2048.9 M1210.6,1793.5
		c2.7,7.5,8.3,13,15,17.1c27.9,14.9,56.3,36.9,89.7,32.5c8.2,21.5,28.5,34.1,46.7,46.2c15.8,8.2,31.1,22.2,50.1,20.1
		c0.5-3.7-5.8-3.2-7.6-4.7c-13.9-3.1-25.4-11.6-37.6-18.4c-18.2-13.1-42.2-25.3-47.6-49.2c-17.1,4.9-32.8-1.4-48.9-8.2
		c-19.9-9.9-40.8-19.4-56.7-35.4C1212.8,1792.4,1209.3,1790.9,1210.6,1793.5 M1323.8,2009c-0.3,16.4,25.1,17.9,26.9,2.3
		c4.9-11.6-15.9-15.5-13.9-2.9c4.2-1.5,9.9,2.5,3.2,5.4c-10.8,5.2-9.4-12.1-4.5-16.7c19.7-25.6,49.2-40.2,78.6-50.5
		c6.4-3.3,19.1-5,21,4.1c-0.9,2.7-4.7,4.3-5.1,0.4c-2.8-7.3-10.8,5.1-5.4,7.5c8.9,9.2,25.8-5,17-15.5c-9.8-13.9-27.6-3.7-40.9-1.9
		c-19.6,8.8-38.5,20.1-55.6,33.3C1335,1983.8,1323.3,1994.1,1323.8,2009 M1323.8,1835c2,16.9,16.5,27,28.4,37.1
		c20.9,13.7,42.7,28.7,68.2,31.9c9.3,4,23.4-1.9,22.9-13c1.2-10-14.6-16.6-20.4-7.4c-1.5,3.6,4.4,12.7,7,6.1c1-5.8,7.8,0.7,3.8,3.7
		c-6.1,6.2-16.5,2.7-23.2-0.6c-18.8-6.5-36.3-14.9-52.3-26.7c-10.6-9.7-27.9-19.7-26-36.2c-0.4-8.4,16.1-1.2,8.8,2.9
		c-8.8-3.4-2.2,11.1,3.7,7.8c9.4-2.3,7.6-15.3,0.6-19.6C1335.5,1813.4,1322,1823.6,1323.8,1835L1323.8,1835z"/>
	<path id="path6714" d="M1148.2,2131.7c0.5-21.2-1.2-42.7,1.9-63.7c1.7-5.5,9.3-1.8,9.9,2.6c0.3,13.2,1.8,26,1,39.2
		c11.2-6,22.4-11.7,33.5-17.8c4.8-4.2,13.6,3.5,7.8,7.8C1185,2111.2,1166.8,2123.5,1148.2,2131.7 M1153,2123.9
		c11.3-5.3,21.5-12.9,32.7-18.5c1.6-0.2,2.3-3.3,0-2c-8.7,4.6-18,8.6-27.4,11.3c-1.3-8.1-2.9-16.3-3-24.6c3.8-4-6.2-11.2-2.2-1.2
		C1153.4,2100.6,1153.5,2112.2,1153,2123.9z"/>
	<path id="path6716" d="M1148.7,1756.6c-1-15.8-0.2-31.7-0.5-47.5c18.4,8.8,36.3,20.1,53.5,31.4c5.8,3.7-0.2,11.5-5.9,9.1
		c-10.8-6.1-22.1-10.9-32.6-17.6c-9.5,6.5,7.8,39.3-10.7,43.9C1146.8,1771.3,1150.4,1762.8,1148.7,1756.6 M1153.1,1756.9
		c4.7-7,2.5-21.1,5.1-30.6c10.1,2.8,19.5,7.5,28.9,11.6c-9.2-8.2-23.1-14.2-34.3-20.8C1153.5,1730.3,1153.3,1743.6,1153.1,1756.9
		L1153.1,1756.9z"/>
	<path id="path6718" d="M1207.5,1925.6c18.4-4.3,41.9-0.8,62.1-2.2c8.5,18.5,21.2,34.7,28.6,53.4c-21,0-43.3,8.1-60.7,20.9
		c-5.6-2.2-0.9-10.2-4-13.7c-3.9,1.1-9.2,7.7-13,3.6C1221.9,1966.6,1220.7,1943.1,1207.5,1925.6 M1216.5,1930.8
		c5.1,11.7,7.1,24.5,8.9,37.1c8.7-1.3,15-9,24-9.6c1.8,8.3,0.7,16.7,2.4,24.9c12.8-3.1,24.7-9.4,38-10.4
		c-3.2-16.3-17.3-29.6-22.7-45.6C1251.7,1931.2,1228.4,1923.1,1216.5,1930.8 M1225.5,1980.6c4.1,3.7,9.2-4,13.6-4.4
		c-0.1,4.4-2.3,11.3,2.1,13.7c10.9-3.4,3.1-17,4.2-24.7C1238.9,1969.7,1223.2,1968.8,1225.5,1980.6z"/>
	<path id="path6720" d="M1207.1,1916.1c13.1-17.9,14.7-41.6,13.3-62.9c4.6-6.1,15.4,11.1,13.9-1.3c0-3.2,0-10.4,5.1-8.1
		c16.3,13.3,38.6,20,58.8,20.2c-7.5,18.6-20.2,35.2-28.8,53.3C1248.9,1916.9,1227.8,1918.3,1207.1,1916.1 M1216.3,1911.8
		c16.5,3.5,34.1-0.7,50.8,2.1c5.4-16.1,19.2-29.3,22.9-45.7c-13.5-0.8-25.4-7.5-38.3-10.4c-1.6,8.2-0.6,16.6-2.3,24.9
		c-9-0.7-15.3-8.3-23.9-9.6C1222.9,1886.1,1221.3,1899.4,1216.3,1911.8 M1225.7,1864.5c1.8,8,14.1,7.1,19.7,11.3
		c-0.3-8,6.3-21.2-4.2-24.7c-4.3,2.4-2.2,9.3-2,13.7C1235.9,1864.1,1223.1,1853,1225.7,1864.5L1225.7,1864.5z"/>
	<path id="path6722" d="M1273.7,1920.8c11.9-16.8,19.7-37.1,32.6-52.9c9.3,18.2,27,33.5,45.9,41.1c6.3,5-4.9,9.2-8.8,11
		c2.3,3.3,13.6,4.8,10,10.9c-18.1,8.1-36.1,21.5-45.4,39.7c-1.8,6-5.7-2.2-6.7-4.6C1291.1,1951.3,1284.5,1935.2,1273.7,1920.8
		 M1278.5,1920.8c11,12.6,15.7,30,27,41.9c8.6-8.8,18.6-18.7,28.8-26.8c-5.8-6.2-13.8-9.2-19.7-15.2c4.7-6.7,14-9.4,19.7-15.8
		c-10.2-8.1-20.2-18-28.8-26.8C1294.4,1890.4,1288.6,1907.7,1278.5,1920.8 M1322.7,1920.7c7.3,3.1,13.9,16.8,22.4,9.1
		c3.7-5.3-8.2-5.9-9.8-9.7c3.3-2.6,10.1-3.4,10.7-7.8C1338.2,1902.3,1328.8,1916.8,1322.7,1920.7z"/>
	<path id="path6724" d="M1454.5,1949.4c1.1-15.3,24-19.2,34.4-28.8c-8.9-9.8-35-14.1-34-30.1c21.8,2.8,40.4,20.5,61,29.6
		c-12.6,8.3-27.9,15.6-41.1,24.1C1467.6,1944,1461.2,1955.4,1454.5,1949.4 M1471.4,1939.8c11.5-5.5,22.6-12.8,33.9-18.9
		c-10.4-7.3-22.5-14-34-19.8c6.7,6.6,16.2,13.1,24.6,19C1488.8,1926.9,1477.7,1932.8,1471.4,1939.8L1471.4,1939.8z"/>
</g>
</svg>
