<?xml version="1.0" standalone="no"?>
<!DOCTYPE svg PUBLIC "-//W3C//DTD SVG 20010904//EN"
 "http://www.w3.org/TR/2001/REC-SVG-20010904/DTD/svg10.dtd">
<svg version="1.0" xmlns="http://www.w3.org/2000/svg"
 width="1280.000000pt" height="1280.000000pt" viewBox="0 0 1280.000000 1280.000000"
 preserveAspectRatio="xMidYMid meet">
<metadata>
Created by potrace 1.15, written by Peter Selinger 2001-2017
</metadata>
<g transform="translate(0.000000,1280.000000) scale(0.100000,-0.100000)"
fill="#000000" stroke="none">
<path d="M547 12252 l-548 -548 3 -57 3 -57 605 605 605 605 -60 0 -60 0 -548
-548z"/>
<path d="M1952 12193 l608 -608 605 605 605 605 -57 3 -57 3 -548 -548 -548
-548 -548 548 -547 547 -60 0 -60 0 607 -607z"/>
<path d="M4512 12193 l608 -608 605 605 605 605 -57 3 -57 3 -548 -548 -548
-548 -548 548 -547 547 -60 0 -60 0 607 -607z"/>
<path d="M7072 12193 l608 -608 605 605 605 605 -57 3 -57 3 -548 -548 -548
-548 -548 548 -547 547 -60 0 -60 0 607 -607z"/>
<path d="M9632 12193 l608 -608 605 605 605 605 -57 3 -57 3 -548 -548 -548
-548 -548 548 -547 547 -60 0 -60 0 607 -607z"/>
<path d="M12190 12195 l605 -605 3 57 3 57 -548 548 -548 548 -60 0 -60 0 605
-605z"/>
<path d="M670 12125 l-605 -605 608 -608 607 -607 607 607 608 608 -605 605
c-333 333 -607 605 -610 605 -3 0 -277 -272 -610 -605z m1160 -60 l545 -545
-548 -548 -547 -547 -547 547 -548 548 545 545 c300 300 547 545 550 545 3 0
250 -245 550 -545z"/>
<path d="M3230 12125 l-605 -605 608 -608 607 -607 607 607 608 608 -605 605
c-333 333 -607 605 -610 605 -3 0 -277 -272 -610 -605z m1160 -60 l545 -545
-548 -548 -547 -547 -547 547 -548 548 545 545 c300 300 547 545 550 545 3 0
250 -245 550 -545z"/>
<path d="M5790 12125 l-605 -605 608 -608 607 -607 607 607 608 608 -605 605
c-333 333 -607 605 -610 605 -3 0 -277 -272 -610 -605z m1160 -60 l545 -545
-548 -548 -547 -547 -547 547 -548 548 545 545 c300 300 547 545 550 545 3 0
250 -245 550 -545z"/>
<path d="M8350 12125 l-605 -605 608 -608 607 -607 607 607 608 608 -605 605
c-333 333 -607 605 -610 605 -3 0 -277 -272 -610 -605z m1160 -60 l545 -545
-548 -548 -547 -547 -547 547 -548 548 545 545 c300 300 547 545 550 545 3 0
250 -245 550 -545z"/>
<path d="M10910 12125 l-605 -605 608 -608 607 -607 607 607 608 608 -605 605
c-333 333 -607 605 -610 605 -3 0 -277 -272 -610 -605z m1160 -60 l545 -545
-548 -548 -547 -547 -547 547 -548 548 545 545 c300 300 547 545 550 545 3 0
250 -245 550 -545z"/>
<path d="M0 11395 l0 -60 547 -547 548 -548 -548 -548 -548 -548 3 -57 3 -57
605 605 605 605 -608 608 -607 607 0 -60z"/>
<path d="M1950 10845 l-605 -605 608 -608 607 -607 607 607 608 608 -605 605
c-333 333 -607 605 -610 605 -3 0 -277 -272 -610 -605z m1160 -60 l545 -545
-548 -548 -547 -547 -547 547 -548 548 545 545 c300 300 547 545 550 545 3 0
250 -245 550 -545z"/>
<path d="M4510 10845 l-605 -605 608 -608 607 -607 607 607 608 608 -605 605
c-333 333 -607 605 -610 605 -3 0 -277 -272 -610 -605z m1160 -60 l545 -545
-548 -548 -547 -547 -547 547 -548 548 545 545 c300 300 547 545 550 545 3 0
250 -245 550 -545z"/>
<path d="M7070 10845 l-605 -605 608 -608 607 -607 607 607 608 608 -605 605
c-333 333 -607 605 -610 605 -3 0 -277 -272 -610 -605z m1160 -60 l545 -545
-548 -548 -547 -547 -547 547 -548 548 545 545 c300 300 547 545 550 545 3 0
250 -245 550 -545z"/>
<path d="M9630 10845 l-605 -605 608 -608 607 -607 607 607 608 608 -605 605
c-333 333 -607 605 -610 605 -3 0 -277 -272 -610 -605z m1160 -60 l545 -545
-548 -548 -547 -547 -547 547 -548 548 545 545 c300 300 547 545 550 545 3 0
250 -245 550 -545z"/>
<path d="M12190 10845 l-605 -605 605 -605 605 -605 3 57 3 57 -548 548 -548
548 548 548 548 548 -3 57 -3 57 -605 -605z"/>
<path d="M670 9565 l-605 -605 608 -608 607 -607 607 607 608 608 -605 605
c-333 333 -607 605 -610 605 -3 0 -277 -272 -610 -605z m1160 -60 l545 -545
-548 -548 -547 -547 -547 547 -548 548 545 545 c300 300 547 545 550 545 3 0
250 -245 550 -545z"/>
<path d="M3230 9565 l-605 -605 608 -608 607 -607 607 607 608 608 -605 605
c-333 333 -607 605 -610 605 -3 0 -277 -272 -610 -605z m1160 -60 l545 -545
-548 -548 -547 -547 -547 547 -548 548 545 545 c300 300 547 545 550 545 3 0
250 -245 550 -545z"/>
<path d="M5790 9565 l-605 -605 608 -608 607 -607 607 607 608 608 -605 605
c-333 333 -607 605 -610 605 -3 0 -277 -272 -610 -605z m1160 -60 l545 -545
-548 -548 -547 -547 -547 547 -548 548 545 545 c300 300 547 545 550 545 3 0
250 -245 550 -545z"/>
<path d="M8350 9565 l-605 -605 608 -608 607 -607 607 607 608 608 -605 605
c-333 333 -607 605 -610 605 -3 0 -277 -272 -610 -605z m1160 -60 l545 -545
-548 -548 -547 -547 -547 547 -548 548 545 545 c300 300 547 545 550 545 3 0
250 -245 550 -545z"/>
<path d="M10910 9565 l-605 -605 608 -608 607 -607 607 607 608 608 -605 605
c-333 333 -607 605 -610 605 -3 0 -277 -272 -610 -605z m1160 -60 l545 -545
-548 -548 -547 -547 -547 547 -548 548 545 545 c300 300 547 545 550 545 3 0
250 -245 550 -545z"/>
<path d="M0 8835 l0 -60 547 -547 548 -548 -548 -548 -548 -548 3 -57 3 -57
605 605 605 605 -608 608 -607 607 0 -60z"/>
<path d="M1950 8285 l-605 -605 608 -608 607 -607 607 607 608 608 -605 605
c-333 333 -607 605 -610 605 -3 0 -277 -272 -610 -605z m1160 -60 l545 -545
-548 -548 -547 -547 -547 547 -548 548 545 545 c300 300 547 545 550 545 3 0
250 -245 550 -545z"/>
<path d="M4510 8285 l-605 -605 608 -608 607 -607 607 607 608 608 -605 605
c-333 333 -607 605 -610 605 -3 0 -277 -272 -610 -605z m1160 -60 l545 -545
-548 -548 -547 -547 -547 547 -548 548 545 545 c300 300 547 545 550 545 3 0
250 -245 550 -545z"/>
<path d="M7070 8285 l-605 -605 608 -608 607 -607 607 607 608 608 -605 605
c-333 333 -607 605 -610 605 -3 0 -277 -272 -610 -605z m1160 -60 l545 -545
-548 -548 -547 -547 -547 547 -548 548 545 545 c300 300 547 545 550 545 3 0
250 -245 550 -545z"/>
<path d="M9630 8285 l-605 -605 608 -608 607 -607 607 607 608 608 -605 605
c-333 333 -607 605 -610 605 -3 0 -277 -272 -610 -605z m1160 -60 l545 -545
-548 -548 -547 -547 -547 547 -548 548 545 545 c300 300 547 545 550 545 3 0
250 -245 550 -545z"/>
<path d="M12190 8285 l-605 -605 605 -605 605 -605 3 57 3 57 -548 548 -548
548 548 548 548 548 -3 57 -3 57 -605 -605z"/>
<path d="M670 7005 l-605 -605 608 -608 607 -607 607 607 608 608 -605 605
c-333 333 -607 605 -610 605 -3 0 -277 -272 -610 -605z m1160 -60 l545 -545
-548 -548 -547 -547 -547 547 -548 548 545 545 c300 300 547 545 550 545 3 0
250 -245 550 -545z"/>
<path d="M3230 7005 l-605 -605 608 -608 607 -607 607 607 608 608 -605 605
c-333 333 -607 605 -610 605 -3 0 -277 -272 -610 -605z m1160 -60 l545 -545
-548 -548 -547 -547 -547 547 -548 548 545 545 c300 300 547 545 550 545 3 0
250 -245 550 -545z"/>
<path d="M5790 7005 l-605 -605 608 -608 607 -607 607 607 608 608 -605 605
c-333 333 -607 605 -610 605 -3 0 -277 -272 -610 -605z m1160 -60 l545 -545
-548 -548 -547 -547 -547 547 -548 548 545 545 c300 300 547 545 550 545 3 0
250 -245 550 -545z"/>
<path d="M8350 7005 l-605 -605 608 -608 607 -607 607 607 608 608 -605 605
c-333 333 -607 605 -610 605 -3 0 -277 -272 -610 -605z m1160 -60 l545 -545
-548 -548 -547 -547 -547 547 -548 548 545 545 c300 300 547 545 550 545 3 0
250 -245 550 -545z"/>
<path d="M10910 7005 l-605 -605 608 -608 607 -607 607 607 608 608 -605 605
c-333 333 -607 605 -610 605 -3 0 -277 -272 -610 -605z m1160 -60 l545 -545
-548 -548 -547 -547 -547 547 -548 548 545 545 c300 300 547 545 550 545 3 0
250 -245 550 -545z"/>
<path d="M0 6275 l0 -60 547 -547 548 -548 -548 -548 -548 -548 3 -57 3 -57
605 605 605 605 -608 608 -607 607 0 -60z"/>
<path d="M1950 5725 l-605 -605 608 -608 607 -607 607 607 608 608 -605 605
c-333 333 -607 605 -610 605 -3 0 -277 -272 -610 -605z m1160 -60 l545 -545
-548 -548 -547 -547 -547 547 -548 548 545 545 c300 300 547 545 550 545 3 0
250 -245 550 -545z"/>
<path d="M4510 5725 l-605 -605 608 -608 607 -607 607 607 608 608 -605 605
c-333 333 -607 605 -610 605 -3 0 -277 -272 -610 -605z m1160 -60 l545 -545
-548 -548 -547 -547 -547 547 -548 548 545 545 c300 300 547 545 550 545 3 0
250 -245 550 -545z"/>
<path d="M7070 5725 l-605 -605 608 -608 607 -607 607 607 608 608 -605 605
c-333 333 -607 605 -610 605 -3 0 -277 -272 -610 -605z m1160 -60 l545 -545
-548 -548 -547 -547 -547 547 -548 548 545 545 c300 300 547 545 550 545 3 0
250 -245 550 -545z"/>
<path d="M9630 5725 l-605 -605 608 -608 607 -607 607 607 608 608 -605 605
c-333 333 -607 605 -610 605 -3 0 -277 -272 -610 -605z m1160 -60 l545 -545
-548 -548 -547 -547 -547 547 -548 548 545 545 c300 300 547 545 550 545 3 0
250 -245 550 -545z"/>
<path d="M12190 5725 l-605 -605 605 -605 605 -605 3 57 3 57 -548 548 -548
548 548 548 548 548 -3 57 -3 57 -605 -605z"/>
<path d="M670 4445 l-605 -605 608 -608 607 -607 607 607 608 608 -605 605
c-333 333 -607 605 -610 605 -3 0 -277 -272 -610 -605z m1160 -60 l545 -545
-548 -548 -547 -547 -547 547 -548 548 545 545 c300 300 547 545 550 545 3 0
250 -245 550 -545z"/>
<path d="M3230 4445 l-605 -605 608 -608 607 -607 607 607 608 608 -605 605
c-333 333 -607 605 -610 605 -3 0 -277 -272 -610 -605z m1160 -60 l545 -545
-548 -548 -547 -547 -547 547 -548 548 545 545 c300 300 547 545 550 545 3 0
250 -245 550 -545z"/>
<path d="M5790 4445 l-605 -605 608 -608 607 -607 607 607 608 608 -605 605
c-333 333 -607 605 -610 605 -3 0 -277 -272 -610 -605z m1160 -60 l545 -545
-548 -548 -547 -547 -547 547 -548 548 545 545 c300 300 547 545 550 545 3 0
250 -245 550 -545z"/>
<path d="M8350 4445 l-605 -605 608 -608 607 -607 607 607 608 608 -605 605
c-333 333 -607 605 -610 605 -3 0 -277 -272 -610 -605z m1160 -60 l545 -545
-548 -548 -547 -547 -547 547 -548 548 545 545 c300 300 547 545 550 545 3 0
250 -245 550 -545z"/>
<path d="M10910 4445 l-605 -605 608 -608 607 -607 607 607 608 608 -605 605
c-333 333 -607 605 -610 605 -3 0 -277 -272 -610 -605z m1160 -60 l545 -545
-548 -548 -547 -547 -547 547 -548 548 545 545 c300 300 547 545 550 545 3 0
250 -245 550 -545z"/>
<path d="M0 3715 l0 -60 547 -547 548 -548 -548 -548 -548 -548 3 -57 3 -57
605 605 605 605 -608 608 -607 607 0 -60z"/>
<path d="M1950 3165 l-605 -605 608 -608 607 -607 607 607 608 608 -605 605
c-333 333 -607 605 -610 605 -3 0 -277 -272 -610 -605z m1160 -60 l545 -545
-548 -548 -547 -547 -547 547 -548 548 545 545 c300 300 547 545 550 545 3 0
250 -245 550 -545z"/>
<path d="M4510 3165 l-605 -605 608 -608 607 -607 607 607 608 608 -605 605
c-333 333 -607 605 -610 605 -3 0 -277 -272 -610 -605z m1160 -60 l545 -545
-548 -548 -547 -547 -547 547 -548 548 545 545 c300 300 547 545 550 545 3 0
250 -245 550 -545z"/>
<path d="M7070 3165 l-605 -605 608 -608 607 -607 607 607 608 608 -605 605
c-333 333 -607 605 -610 605 -3 0 -277 -272 -610 -605z m1160 -60 l545 -545
-548 -548 -547 -547 -547 547 -548 548 545 545 c300 300 547 545 550 545 3 0
250 -245 550 -545z"/>
<path d="M9630 3165 l-605 -605 608 -608 607 -607 607 607 608 608 -605 605
c-333 333 -607 605 -610 605 -3 0 -277 -272 -610 -605z m1160 -60 l545 -545
-548 -548 -547 -547 -547 547 -548 548 545 545 c300 300 547 545 550 545 3 0
250 -245 550 -545z"/>
<path d="M12190 3165 l-605 -605 605 -605 605 -605 3 57 3 57 -548 548 -548
548 548 548 548 548 -3 57 -3 57 -605 -605z"/>
<path d="M670 1885 l-605 -605 608 -608 607 -607 607 607 608 608 -605 605
c-333 333 -607 605 -610 605 -3 0 -277 -272 -610 -605z m1160 -60 l545 -545
-548 -548 -547 -547 -547 547 -548 548 545 545 c300 300 547 545 550 545 3 0
250 -245 550 -545z"/>
<path d="M3230 1885 l-605 -605 608 -608 607 -607 607 607 608 608 -605 605
c-333 333 -607 605 -610 605 -3 0 -277 -272 -610 -605z m1160 -60 l545 -545
-548 -548 -547 -547 -547 547 -548 548 545 545 c300 300 547 545 550 545 3 0
250 -245 550 -545z"/>
<path d="M5790 1885 l-605 -605 608 -608 607 -607 607 607 608 608 -605 605
c-333 333 -607 605 -610 605 -3 0 -277 -272 -610 -605z m1160 -60 l545 -545
-548 -548 -547 -547 -547 547 -548 548 545 545 c300 300 547 545 550 545 3 0
250 -245 550 -545z"/>
<path d="M8350 1885 l-605 -605 608 -608 607 -607 607 607 608 608 -605 605
c-333 333 -607 605 -610 605 -3 0 -277 -272 -610 -605z m1160 -60 l545 -545
-548 -548 -547 -547 -547 547 -548 548 545 545 c300 300 547 545 550 545 3 0
250 -245 550 -545z"/>
<path d="M10910 1885 l-605 -605 608 -608 607 -607 607 607 608 608 -605 605
c-333 333 -607 605 -610 605 -3 0 -277 -272 -610 -605z m1160 -60 l545 -545
-548 -548 -547 -547 -547 547 -548 548 545 545 c300 300 547 545 550 545 3 0
250 -245 550 -545z"/>
<path d="M0 1155 l0 -60 548 -548 548 -548 57 3 57 3 -605 605 -605 605 0 -60z"/>
<path d="M1950 605 l-605 -605 60 0 60 0 547 547 548 548 548 -548 547 -547
60 0 60 0 -605 605 c-333 333 -607 605 -610 605 -3 0 -277 -272 -610 -605z"/>
<path d="M4510 605 l-605 -605 60 0 60 0 547 547 548 548 548 -548 547 -547
60 0 60 0 -605 605 c-333 333 -607 605 -610 605 -3 0 -277 -272 -610 -605z"/>
<path d="M7070 605 l-605 -605 60 0 60 0 547 547 548 548 548 -548 547 -547
60 0 60 0 -605 605 c-333 333 -607 605 -610 605 -3 0 -277 -272 -610 -605z"/>
<path d="M9630 605 l-605 -605 60 0 60 0 547 547 548 548 548 -548 547 -547
60 0 60 0 -605 605 c-333 333 -607 605 -610 605 -3 0 -277 -272 -610 -605z"/>
<path d="M12190 605 l-605 -605 60 0 60 0 548 548 548 548 -3 57 -3 57 -605
-605z"/>
</g>
</svg>
