<?xml version="1.0" encoding="utf-8"?>
<!-- Generator: Adobe Illustrator 24.0.3, SVG Export Plug-In . SVG Version: 6.00 Build 0)  -->
<svg version="1.1" id="Layer_1" xmlns="http://www.w3.org/2000/svg" xmlns:xlink="http://www.w3.org/1999/xlink" x="0px" y="0px"
	 viewBox="0 0 12 12" enable-background="new 0 0 12 12" xml:space="preserve">
<title>close</title>
<g id="Layer_2_1_">
	<g id="Layer_1-2">
		<g id="close">
			<path id="close-2" fill="#707070" d="M7.09,6l4.68-4.68c0.29-0.29,0.29-0.77,0-1.06l0,0c-0.3-0.29-0.77-0.29-1.07,0l0,0L6,4.91
				L1.32,0.23c-0.3-0.3-0.79-0.3-1.09,0s-0.3,0.79,0,1.09L4.91,6l-4.68,4.67c-0.29,0.3-0.29,0.77,0,1.07l0,0
				c0.3,0.29,0.77,0.29,1.07,0l0,0L6,7.09l4.67,4.68c0.33,0.28,0.82,0.24,1.1-0.08c0.25-0.29,0.25-0.73,0-1.02l0,0L7.09,6z"/>
		</g>
	</g>
</g>
</svg>
