<?xml version="1.0" encoding="utf-8"?>
<!-- Generator: Adobe Illustrator 27.6.1, SVG Export Plug-In . SVG Version: 6.00 Build 0)  -->
<svg version="1.1" id="Layer_1" xmlns="http://www.w3.org/2000/svg" xmlns:xlink="http://www.w3.org/1999/xlink" x="0px" y="0px"
	 viewBox="0 0 16 16" style="enable-background:new 0 0 16 16;" xml:space="preserve">
<path d="M7.1,7.1v-4c0-0.1,0-0.2-0.1-0.2C7,2.9,6.9,2.9,6.9,2.9c-0.1,0-0.2,0-0.2,0.1C6.6,3,6.6,3.1,6.6,3.1v4c0,0.1,0,0.2,0.1,0.2
	s0.1,0.1,0.2,0.1c0.1,0,0.2,0,0.2-0.1S7.1,7.2,7.1,7.1z M13.1,10.3c0,0.2-0.1,0.3-0.2,0.4c-0.1,0.1-0.2,0.2-0.4,0.2H8.7l-0.5,4.3
	c0,0.1,0,0.1-0.1,0.2c-0.1,0.1-0.1,0.1-0.2,0.1h0c-0.2,0-0.3-0.1-0.3-0.2L7,10.9H3.4c-0.2,0-0.3-0.1-0.4-0.2
	c-0.1-0.1-0.2-0.2-0.2-0.4c0-0.7,0.2-1.4,0.7-2s1-0.9,1.6-0.9V2.9c-0.3,0-0.6-0.1-0.8-0.3S4,2,4,1.7s0.1-0.6,0.3-0.8
	s0.5-0.3,0.8-0.3h5.7c0.3,0,0.6,0.1,0.8,0.3S12,1.4,12,1.7s-0.1,0.6-0.3,0.8s-0.5,0.3-0.8,0.3v4.6c0.6,0,1.1,0.3,1.6,0.9
	C12.9,8.9,13.1,9.6,13.1,10.3L13.1,10.3z"/>
</svg>
