<?xml version="1.0" encoding="utf-8"?>
<!-- Generator: Adobe Illustrator 24.0.3, SVG Export Plug-In . SVG Version: 6.00 Build 0)  -->
<svg version="1.1" id="Layer_1" xmlns="http://www.w3.org/2000/svg" xmlns:xlink="http://www.w3.org/1999/xlink" x="0px" y="0px"
	 viewBox="0 0 24 24" enable-background="new 0 0 24 24" xml:space="preserve">
<path fill="#FFFFFF" d="M20.2,3.9c-4.5-4.5-11.8-4.5-16.3,0C1.7,6,0.5,8.9,0.5,12c0,6.4,5.1,11.5,11.5,11.5c3.1,0,6-1.2,8.2-3.3
	C24.7,15.7,24.7,8.4,20.2,3.9z M14,15.1c0.3,0.3,0.3,0.9,0,1.2s-0.9,0.3-1.2,0l-3.5-3.5c-0.4-0.4-0.4-1.1,0-1.5l3.5-3.5
	c0.2-0.3,0.4-0.4,0.6-0.4s0.5,0.1,0.6,0.3c0.3,0.3,0.3,0.9,0,1.2L10.9,12L14,15.1z"/>
</svg>
