<?xml version="1.0" encoding="utf-8"?>
<!-- Generator: Adobe Illustrator 24.0.3, SVG Export Plug-In . SVG Version: 6.00 Build 0)  -->
<svg version="1.1" id="Layer_1" xmlns="http://www.w3.org/2000/svg" xmlns:xlink="http://www.w3.org/1999/xlink" x="0px" y="0px"
	 viewBox="0 0 24 24" enable-background="new 0 0 24 24" xml:space="preserve">
<path fill="#FFFFFF" d="M12,0.5c-3.1,0-6,1.2-8.2,3.3c-4.5,4.5-4.5,11.8,0,16.3s11.8,4.5,16.3,0c2.2-2.1,3.4-5,3.4-8.1
	C23.5,5.6,18.4,0.5,12,0.5z M14.8,12.6l-3.5,3.5c-0.2,0.3-0.4,0.4-0.6,0.4s-0.5-0.1-0.6-0.3c-0.3-0.3-0.3-0.9,0-1.2l3.1-3.1
	l-3.1-3.1c-0.3-0.3-0.3-0.9,0-1.2s0.9-0.3,1.2,0l3.5,3.5C15.2,11.5,15.2,12.2,14.8,12.6z"/>
</svg>
