<svg xmlns="http://www.w3.org/2000/svg" height="48" viewBox="0 96 960 960" width="48"><path d="M480.356 160Q526 160 561 167q35 7 84 25l-114 48q-13-3-27-4.5t-35-1.5q-13 0-35 2.5t-36 7.5q75 80 149 128.5T752 411h-7l30 72q-133 14-227-28T382 332q-33 78-96 140.5T137 569q0 145.558 100 247.779T480 919q143 0 242.5-99T823 576q0-15.96-1.5-29.43Q820 533.1 818 526l48-108q15 40 22.5 76t7.5 82q0 87-33 163t-89.5 132.5Q717 928 641.5 960T480 992q-86.833 0-162.917-32Q241 928 184.5 871.5T96 738.917Q64 662.833 64 576q0-85 31.5-161T183 282.5Q239 226 315 193t165.356-33ZM353.338 564Q376 564 392 580.338t16 39Q408 642 391.662 658t-39 16Q330 674 314 657.662t-16-39Q298 596 314.338 580t39-16ZM570 330Zm38.338 234Q631 564 647 580.338t16 39Q663 642 646.662 658t-39 16Q585 674 569 657.662t-16-39Q553 596 569.338 580t39-16ZM805 110l44 103 100 41-100 43-44 102-45-102-100-43 100-41 45-103ZM155 475q36-13 92-68t81-135q-78 36-116.5 89T155 475Zm173-203Z"/></svg>