<?xml version="1.0" encoding="utf-8"?>
<!-- Generator: Adobe Illustrator 27.8.1, SVG Export Plug-In . SVG Version: 6.00 Build 0)  -->
<svg version="1.0" id="Layer_1" xmlns="http://www.w3.org/2000/svg" xmlns:xlink="http://www.w3.org/1999/xlink" x="0px" y="0px"
	 viewBox="0 0 559 425" style="enable-background:new 0 0 559 425;" xml:space="preserve">
<g id="tYyaTf.tif">
	<g>
		<path d="M5.1,372.8c0.7-2.1,0.8-4.7,2.1-6.3c3.4-4.1,7-8.1,10.9-11.5c6.6-5.7,13.5-11,20.3-16.4c7.3-5.7,14.4-11.6,22-16.8
			c26.4-17.9,53.2-35.1,82.5-47.6c2.3-1,4.3-3,6.4-4.5c-0.1-0.4-0.3-0.8-0.4-1.2c-2.9,0.4-5.9,0.9-8.8,1.3
			c-14.6,2-28.8,0.7-42.3-6.2c-7-3.6-11.1-8.9-10-17.3c1-7.5,1.8-15.4,4.4-22.4c9-25.1,23-47.6,37.1-69.8
			c5.4-8.5,12.9-15.7,20.4-22.4c10.9-9.7,24.2-14.1,38.6-14.3c11.4-0.1,16.5,5.3,16.5,17.1c0,5.2,0,10.4-0.5,15.5
			c-0.2,2-1.7,3.9-3.1,6.9c0.4-8.6,1-15.7,1-22.8c0.1-9.5-4.1-13.8-13.2-14.1c-14.5-0.5-27.7,3.9-38.7,13.7
			c-7.4,6.6-14.7,13.8-20,22.2c-13.6,21.7-27.3,43.6-36.1,68.1c-2.6,7.2-3.4,15.1-4.5,22.8c-1,7,2.7,11.6,8.5,14.6
			c14.3,7.3,29.2,7.8,44.7,5.8c7.6-1,13.5-3.9,18.8-9.5c15.3-16.1,30.9-31.7,46.2-47.8c3.8-4,6.7-9,10-13.5
			c-0.3-0.4-0.5-0.8-0.8-1.1c-9.9,4.2-19.8,8.5-29.7,12.7c-0.4-0.5-0.9-1.1-1.3-1.6c0.6-1.6,0.9-3.5,2-4.8
			c7.1-8.9,16.1-15.1,26.5-19c0.9-0.3,1.8-0.5,2.7-0.7c6.1-0.8,8,1.5,6.6,8.9c5.9-2.3,11.6-4.2,17.1-6.6
			c22.9-10.1,45.8-20.3,68.6-30.8c3.5-1.6,7-4.2,9.5-7.3c27.1-33,58.3-61.3,92.3-86.1c14.6-10.6,29.9-20.3,45.4-29.3
			c20.2-11.8,42.1-19.2,64.9-23.7c2.6-0.5,5.4-0.7,8-0.5c1.9,0.2,5,1,5.4,2.2c0.7,2.2,0.5,5.6-0.8,7.3c-2.4,3.3-5.5,6.1-8.8,8.5
			c-21.3,15.2-42.7,30.3-64.2,45.2c-44.8,31-92.9,55.5-140.9,80.3c-2.1,1.1-4.1,2.7-5.6,4.5c-7.7,9.6-15.3,19.4-22.2,30
			c2.6-2,5.2-4,7.8-6c5-3.7,9.8-7.8,15.2-10.9c2.3-1.3,6.5-1.6,8.5-0.3c1.5,1,2,5.8,1.2,8.2c-1.7,4.9-4.2,9.7-7.2,13.8
			c-5,6.9-10.7,13.2-16.6,20.4c82.5-27.6,166.9-31.1,251.9-28.3c0,0.5,0,1,0.1,1.4c-4.2-0.2-8.3-0.6-12.5-0.7
			c-39-1.2-77.9,0.4-116.7,3.8c-42,3.7-82.9,12.4-123,25.6c-2.6,0.9-5.1,2.3-7.4,4c-14.3,10.8-28.3,22.1-44.6,29.7
			c-1.9,0.9-3.1,3.3-4.7,5c-1.3,1.4-2.8,2.6-4.2,3.9c-0.4-0.2-0.8-0.5-1.2-0.7c0.2-2.1,0.4-4.2,0.6-6.9c-5.2-1.1-6.3-5.3-5.3-11
			c-1.8,0.6-2.9,0.9-3.9,1.3c-5.2,2.3-10.1,5.4-15.5,6.8c-12.2,3.2-17.3,13.5-23.5,23.7c1.4,0.6,2.6,1.1,3.7,1.8
			c7.3,4.6,14.7,9,21.8,14c4.1,2.9,5.6,7.5,5.5,12.8c-0.1,10.2-3.1,19.5-7.1,28.6c-8,18.5-19.9,34.5-31.8,50.3
			c-10.8,14.2-23,27.3-34.7,40.7c-3.7,4.3-8.7,6.4-14.2,7c-7,0.8-10.7-1.2-11.2-8.4c-0.7-9.1-1.1-18.6,0.6-27.4
			c4.3-22.2,14.2-42.1,26.3-60.8c10.9-16.8,22.1-33.3,33.2-49.9c1.4-2.1,2.6-4.2,4.3-6.9c-1.8-0.5-3.2-1.1-4.7-1.4
			c-16.4-3.5-30.4,1.1-43.5,12.2c-28.9,24.5-58,48.8-87.9,71.8c-11.2,8.7-25,13.9-37.7,20.4c-2.5,1.3-5.4,1.5-8.2,2.2
			C6,373.8,5.5,373.3,5.1,372.8z M190.8,269.7c-0.7,0.8-1.1,1.2-1.4,1.6c-12.3,18.5-24.7,36.9-36.8,55.5c-12,18.5-21.8,38.4-26,60.4
			c-1.6,8.4-1.1,17.5-0.6,26.2c0.3,6.1,2.8,7.4,8.7,7c5.8-0.4,10.6-3,14.5-7.3c5.5-6.1,10.7-12.5,16.4-18.5
			c15.7-16.5,28-35.7,40.2-54.9c7.3-11.6,13.5-24,14.9-38.1c0.5-4.5,0.5-10.4-1.8-13.6C211.8,278.5,201.2,274,190.8,269.7z
			 M320.9,146.1c0.3,0.4,0.6,0.8,0.9,1.2c0.6-0.2,1.2-0.4,1.7-0.7c21.3-11.1,42.9-21.7,63.9-33.4c48.1-26.7,93.8-57.2,137.8-90.7
			c2.7-2,5.3-4.4,7.3-7.1c1.2-1.6,1.2-4.2,1.9-7.3c-5,0.3-8.6,0.1-12.2,0.7c-19.5,3.2-38.3,9.3-55.6,18.7
			c-41.3,22.3-79.3,49.9-112.9,83.7C342.6,122.6,331.8,134.5,320.9,146.1z M237.1,231.3c0.4,0.4,0.8,0.7,1.2,1.1
			c4.2-2.5,9.1-4.2,12.5-7.6c7.1-7.1,12.7-16.1,20.3-22.5c11.7-9.9,21.3-21.4,30.3-33.9c3.3-4.6,7-9,10.5-13.5
			c-4.8,1.3-9.2,3.2-13.6,5.1c-24.9,10.9-49.8,21.8-74.7,32.8c-1.3,0.6-2.4,2.1-3.4,3.3c-6.1,7.8-11.6,16.2-18.3,23.3
			c-13.6,14.3-27.8,27.9-41.8,41.7c-1,1-2.4,1.4-3.6,2.2c0.4,0.6,0.9,1.1,1.3,1.7c2.2-0.5,4.5-0.7,6.5-1.5
			c11.6-4.8,23.1-9.6,34.6-14.7c2.1-0.9,4.2-2.6,5.5-4.5c9.1-13.7,17.7-27.7,26.9-41.2c4.2-6.1,9.4-11.4,14.3-16.9
			c1.2-1.3,3-1.9,4.6-2.8c0.4,0.2,0.8,0.5,1.2,0.7c-0.4,2-0.5,4.1-1.1,6c-3.6,10.7-7.4,21.3-11,31.9
			C238.4,225.1,237.9,228.3,237.1,231.3z M6.7,372.6c3.4-1,5.6-1.2,7.4-2.2c14.9-8.2,30.8-15,44.3-25.1c25-18.7,48.6-39.4,72.8-59.3
			c2.5-2.1,4.9-4.4,7.3-6.6c-0.3-0.5-0.6-1-0.9-1.4c-14.7,8.2-29.6,16.1-44.1,24.6c-27.3,16-52,35.9-76.5,56c-3,2.5-5.5,5.7-8,8.8
			C8.2,368.3,7.8,369.9,6.7,372.6z M324.5,169.7c-10.8-3.1-48.1,28.5-57.9,51.2c9-2.9,17.8-5.6,26.6-8.5c0.9-0.3,1.8-0.7,2.5-1.3
			c10.1-8.7,18.8-18.7,25.5-30.4C323,177.5,323.4,173.5,324.5,169.7z M232.9,234.2c5.3-16.5,10.1-31.4,14.9-46.3
			c-17.3,16.2-27.4,37.9-40.3,57.7C216.4,241.5,225.4,237.6,232.9,234.2z M252,240.4c0.4,0.4,0.8,0.9,1.1,1.3
			c12.1-8.3,24.3-16.7,36.4-25c-0.2-0.4-0.4-0.8-0.6-1.2c-8.1,2.6-16.2,5.2-24.3,7.9c-0.7,0.2-1.4,0.9-1.8,1.5
			C259.2,230,255.6,235.2,252,240.4z M223.6,185.7c-8.1-2.8-29,9.7-33.1,18.7c0.4,0,0.9,0.1,1.2-0.1c9.2-3.9,18.4-7.6,27.4-11.9
			C221,191.4,221.9,188.1,223.6,185.7z M199.6,251.7c-0.2-0.3-0.3-0.6-0.5-0.9c-9.9,4.2-19.8,8.3-30.6,12.8c7.9,1,14.6,1.8,21.6,2.7
			C193.1,261.5,196.3,256.6,199.6,251.7z M254.1,223.8c0.3,0.4,0.6,0.8,0.9,1.2c2.5-1.1,5.8-1.6,7.4-3.5c5.6-6.9,10.7-14.4,16-21.7
			c-0.4-0.3-0.7-0.7-1.1-1C269.6,207.2,261.9,215.5,254.1,223.8z M259.9,225.6c-8.3,1.6-14.1,9.1-14.9,18.9
			C252,239.7,254.1,231.7,259.9,225.6z M241.2,244.3c2.2-5,4.1-9.4,6.3-14.5c-3.9,1.6-7,3-10.2,4.3c0,3,0,5.6,0,8.5
			C238.6,243.1,239.8,243.6,241.2,244.3z"/>
	</g>
</g>
</svg>
