<?xml version="1.0" encoding="utf-8"?>
<!-- Generator: Adobe Illustrator 27.8.1, SVG Export Plug-In . SVG Version: 6.00 Build 0)  -->
<svg version="1.0" id="Layer_1" xmlns="http://www.w3.org/2000/svg" xmlns:xlink="http://www.w3.org/1999/xlink" x="0px" y="0px"
	 viewBox="0 0 249 179" style="enable-background:new 0 0 249 179;" xml:space="preserve">
<g>
	<path d="M84.3,79.9c5.4,2.9,10.7,5.6,16.4,8.6c1.8-2.4,12.8-20.4,16.2-16.2c1.1,1.3-12.2,17.1-13.9,19.4
		c9.7,10,13.8,22.2,14.2,36.2c25.3-1.8,48.7-5.5,71.9-16.5c18.8-8.9,42.3-23.7,48.9-44.7c3.1-9.8,1.1-21.3-10.7-22.4
		c-12.4-1.2-25.7,0.8-38.1,1.7c-6.3,0.4-27.9,3.6-20.6-8.5c5.6-9.3,15.3-16,24.5-21.1c11.5-6.4,24-12,37.4-11.5
		c5.8,0.2,6.8,1.7,3.9,6.8c-2.6,4.7-5.7,10.4-9.9,13.9c-0.2-0.2-0.4-0.4-0.6-0.5c3-4.3,6.1-8.6,8.8-13.1c2.7-4.6,2.8-6.4-2.8-6.6
		C218.7,5,206.9,11,197.3,16.4c-9.3,5.3-17.7,12-23.6,21c-7.7,11.9,13.9,7.9,20.4,7.6c11.8-0.5,25.3-3.4,37.1-1.5
		c11.8,2,15.1,12.7,11.7,23.1c-6.6,20.3-29.2,34.6-47.2,43.8c-24.5,12.5-51.1,16.7-78.3,18.2c-1.8,9.1-3.1,17-9.5,24.3
		c-5.5,6.2-14.9,13.5-23.6,13.3c-10.7-0.3-19.5-12.1-30-11.1c-5.2,0.5-9,5.2-12.7,8.3c-4.3,3.6-8.4,7.3-13.5,9.6
		c-0.3-0.3-0.5-0.6-0.8-0.9c2.9-3.5,5.6-7.5,9.2-10.2c3.6-2.7,7.5-4.5,10.8-7.6c6.4-5.9,12.1-12.7,18-19.1
		c-18.1,0.9-37.2,2.5-53.5-7.5c-17.5-10.7-0.3-26.9,10.6-34.8c13.9-10,31.3-14.9,48.4-14.3c4.3,0.2,8.6,1.7,12.6,0
		c3.6-1.5,6.8-4.8,10.4-6.6c6.4-3,17.3-7,24.5-5.4C105.9,69.5,94.3,71.3,84.3,79.9z M80.6,80.9c-4.8-3.7-18.9-1.2-24.6-0.2
		c-7,1.2-13.9,3.5-20.2,6.8c-9.5,4.9-25.5,15.6-26.9,27.3C7.1,130,29.7,134,40.6,135c7.1,0.6,18.1,1.7,24.9-0.9
		c5.8-2.2,11.7-12.6,15.7-17.3c-4.9-5.3-10.6-11.3-10.3-19.1C71.1,90.6,76.3,86,80.6,80.9z M84,118.9c-4.1,4.9-8,9.5-12.2,14.5
		c4-0.4,7.5-0.8,11.1-1.2c0,0.2,0.1,0.5,0.1,0.7c-7.6,1-11.8,1.2-17.1,6.8c-4.4,4.7-9.4,9.2-13.3,14.4c8.1,0.8,13.8,2.9,20.9,6.8
		c7.2,3.8,12.7,5.7,20.3,1.6c12.7-6.9,21.7-19.3,21.9-34C104.1,128.3,93.2,126.7,84,118.9z M102.2,92.9
		c-5.9,8.4-11.7,16.5-17.5,24.8c9,7.9,19.5,10,30.9,9.9C115.4,114.3,111.3,102.8,102.2,92.9z M81.5,115.8c6.3-8.9,12-17.1,17.9-25.4
		c-3.7-3.2-8.9-7.3-13.9-8.2c-4.8-0.9-7.7,3.2-10.3,7.3C68.7,99.7,75.6,107.3,81.5,115.8z"/>
	<path d="M232.9,131.1c-2.8,1.1-2.2-2-4-2.8c0.4,1.7,0.8,3.2,1.1,4.7c-2.4,0.8-4.3-3.3-3.1-5.1C229.2,124.5,232.3,129.3,232.9,131.1
		z"/>
</g>
</svg>
