<svg xmlns="http://www.w3.org/2000/svg" height="48" viewBox="0 96 960 960" width="48"><path d="M412 962V731.981l58.082-170.119Q472 554 479.636 548.5 487.273 543 498 543h306q11.176 0 18.088 5Q829 553 832 562l57 170.005v229.857q0 9.446-6.93 16.292Q875.141 985 866.444 985h-24.7q-8.321 0-15.532-6.635Q819 971.731 819 962v-43H482v42.511q0 9.797-6.93 16.643Q468.141 985 459.444 985h-24.7q-8.321 0-15.532-6.635Q412 971.731 412 962Zm57-262h363l-37-114H506.712L469 700Zm-13 43v132-132Zm67.105 108q16.47 0 28.182-11.818Q563 827.365 563 810.895t-11.818-28.182Q539.365 771 522.895 771t-28.183 11.818Q483 794.636 483 811.105q0 16.47 11.818 28.182Q506.636 851 523.105 851Zm256 0q16.47 0 28.182-11.818Q819 827.365 819 810.895t-11.818-28.182Q795.365 771 778.895 771t-28.182 11.818Q739 794.636 739 811.105q0 16.47 11.818 28.182Q762.635 851 779.105 851ZM236 673v-76h76v76h-76Zm213-266v-76h76v76h-76ZM236 829v-76h76v76h-76Zm0 156v-76h76v76h-76Zm-165 0V432h213V166h406v271h-65V231H349v266H136v488H71Zm385-110h390V743H456v132Z"/></svg>