<?xml version="1.0" encoding="utf-8"?>
<!-- Generator: Adobe Illustrator 24.1.2, SVG Export Plug-In . SVG Version: 6.00 Build 0)  -->
<svg version="1.1" id="Layer_1" xmlns="http://www.w3.org/2000/svg" xmlns:xlink="http://www.w3.org/1999/xlink" x="0px" y="0px"
	 viewBox="0 0 30 30" enable-background="new 0 0 30 30" xml:space="preserve">
<g>
	<path fill="#707070" d="M30,23.51v-2.88c0-0.5-0.41-0.91-0.91-0.92c-0.51,0-0.92,0.41-0.92,0.92v2.88c0,1.58-1.28,2.86-2.86,2.86
		H4.69c-1.58,0-2.86-1.28-2.86-2.86v-2.88c0-0.51-0.41-0.92-0.92-0.92S0,20.12,0,20.63v2.88c0.01,2.58,2.11,4.69,4.69,4.69h20.61
		C27.89,28.2,29.99,26.09,30,23.51z"/>
	<path fill="#707070" d="M5.5,24.51h19c0.51,0,0.92-0.41,0.92-0.92c0-0.51-0.41-0.92-0.92-0.92h-19c-0.51,0-0.92,0.41-0.92,0.92
		C4.59,24.1,5,24.51,5.5,24.51z"/>
	<path fill="#707070" d="M15.91,18.66V4.38l5.56,4.96c0.38,0.34,0.96,0.3,1.3-0.07c0.25-0.28,0.3-0.69,0.14-1.01l-6.54-5.93
		c-0.78-0.7-1.95-0.7-2.73,0L7.3,7.98C7.12,8.14,7.01,8.36,7,8.61c0,0.02,0,0.04,0,0.05C7,8.89,7.08,9.1,7.23,9.27
		c0.34,0.38,0.92,0.41,1.3,0.07l5.56-4.96v14.28c0,0,0,0,0,0c0,0.5,0.41,0.91,0.91,0.92C15.5,19.58,15.91,19.17,15.91,18.66z"/>
</g>
</svg>
