<?xml version="1.0" encoding="utf-8"?>
<!-- Generator: Adobe Illustrator 24.0.3, SVG Export Plug-In . SVG Version: 6.00 Build 0)  -->
<svg version="1.1" id="Layer_1" xmlns="http://www.w3.org/2000/svg" xmlns:xlink="http://www.w3.org/1999/xlink" x="0px" y="0px"
	 viewBox="0 0 16.23 22.25" enable-background="new 0 0 16.23 22.25" xml:space="preserve">
<title>userpassword</title>
<g id="Layer_2_1_">
	<g id="Layer_1-2">
		<path fill="#225F78" d="M8.11,11.89c-1.28,0.01-2.3,1.05-2.29,2.33c0,0.61,0.25,1.18,0.67,1.61v1.92c0.07,0.9,0.86,1.57,1.75,1.5
			c0.8-0.06,1.43-0.7,1.5-1.5v-1.92c0.91-0.89,0.92-2.35,0.03-3.25C9.33,12.13,8.73,11.89,8.11,11.89z M8.85,14.89v0.05
			c-0.23,0.22-0.37,0.52-0.37,0.84v2c0,0.18-0.14,0.32-0.32,0.32c-0.17-0.01-0.31-0.15-0.32-0.32v-2c0-0.32-0.13-0.62-0.37-0.84
			c-0.4-0.38-0.42-1.01-0.05-1.41c0.19-0.2,0.46-0.32,0.74-0.32l0,0c0.55,0,1,0.44,1.01,0.99c0,0.25-0.09,0.5-0.27,0.69L8.85,14.89z
			"/>
		<path fill="#225F78" d="M14.51,9h-1.46V4.94C13.05,2.21,10.84,0,8.11,0C5.38,0,3.17,2.21,3.17,4.94V9H1.71C0.77,9,0,9.77,0,10.71
			c0,0,0,0.01,0,0.01v9.81c0,0.45,0.18,0.89,0.5,1.21c0.32,0.33,0.75,0.51,1.21,0.51h12.8c0.95,0,1.71-0.76,1.72-1.71v-9.82
			C16.23,9.77,15.46,9,14.51,9z M4.51,9V4.94c0.01-1.99,1.61-3.61,3.6-3.63l0,0c2.01,0,3.63,1.62,3.64,3.63V9H4.51z M14.95,10.7
			v9.82c0,0.22-0.18,0.4-0.4,0.4c0,0-0.01,0-0.01,0H1.71c-0.22,0-0.4-0.18-0.4-0.4v-9.8c0-0.22,0.18-0.4,0.4-0.4h12.8
			c0.22-0.01,0.4,0.17,0.41,0.39c0,0,0,0.01,0,0.01L14.95,10.7z"/>
	</g>
</g>
</svg>
