<?xml version="1.0" encoding="utf-8"?>
<!-- Generator: Adobe Illustrator 24.0.3, SVG Export Plug-In . SVG Version: 6.00 Build 0)  -->
<svg version="1.1" id="Layer_1" xmlns="http://www.w3.org/2000/svg" xmlns:xlink="http://www.w3.org/1999/xlink" x="0px" y="0px"
	 viewBox="0 0 21.27 13.02" enable-background="new 0 0 21.27 13.02" xml:space="preserve">
<title>username</title>
<g id="Layer_2_1_">
	<g id="Layer_1-2">
		<path fill="#225F78" d="M21.26,1.2c0-0.66-0.54-1.2-1.2-1.2c0,0,0,0,0,0H1.2C0.54,0,0,0.54,0,1.2c0,0.01,0,0.02,0,0.03v10.59
			c0.01,0.66,0.56,1.19,1.22,1.18c0,0,0,0,0,0h18.85c0.66,0,1.2-0.54,1.2-1.2c0,0,0,0,0,0L21.26,1.2z M10.64,6.77L2.79,1.35h15.68
			L10.64,6.77z M13.93,7.18c-0.11,0.14-0.16,0.32-0.13,0.49c0.02,0.17,0.11,0.33,0.25,0.44l4.6,3.56h-16l4.6-3.56
			C7.54,7.89,7.6,7.47,7.37,7.18C7.27,7.04,7.11,6.95,6.93,6.93H6.84c-0.14,0-0.29,0.05-0.4,0.14L1.35,11V2l8.94,6.18
			c0.23,0.15,0.52,0.15,0.75,0l8.92-6.2V11l-5.1-3.94c-0.14-0.11-0.32-0.16-0.49-0.13C14.2,6.95,14.04,7.04,13.93,7.18z"/>
	</g>
</g>
</svg>
