<?xml version="1.0" encoding="utf-8"?>
<!-- Generator: Adobe Illustrator 24.2.0, SVG Export Plug-In . SVG Version: 6.00 Build 0)  -->
<svg version="1.1" id="Layer_1" xmlns="http://www.w3.org/2000/svg" xmlns:xlink="http://www.w3.org/1999/xlink" x="0px" y="0px"
	 viewBox="0 0 24 24" enable-background="new 0 0 24 24" xml:space="preserve">
<g id="Layer_2_1_">
	<path fill="#87C6E4" d="M23.38,21.34L12.87,1.69c-0.09-0.17-0.23-0.31-0.41-0.41c-0.48-0.26-1.08-0.08-1.34,0.41L0.62,21.34
		c-0.08,0.14-0.12,0.3-0.12,0.47c0,0.55,0.44,0.99,0.99,0.99h21.02c0.16,0,0.32-0.04,0.47-0.12C23.46,22.42,23.64,21.82,23.38,21.34
		z M12.84,9.74l-0.17,6.85h-1.38l-0.15-6.85H12.84z M12.68,19.29c-0.18,0.17-0.43,0.26-0.68,0.25c-0.25,0.02-0.5-0.07-0.68-0.25
		c-0.16-0.16-0.25-0.38-0.24-0.61c-0.01-0.23,0.08-0.46,0.25-0.63c0.39-0.33,0.96-0.33,1.35,0c0.16,0.17,0.25,0.39,0.25,0.63
		C12.93,18.9,12.84,19.12,12.68,19.29z"/>
</g>
</svg>
